<svg width="720px" height="392px" version="1.1" xmlns="http://www.w3.org/2000/svg" xmlns:xlink="http://www.w3.org/1999/xlink" overflow="visible" id="z37u1wo">
   <desc>Engraved by Verovio 5.7.0-7135340</desc>
   <defs>
      <g id="E050-z37u1wo">
         <path transform="scale(1,-1)" d="M441 -245c-23 -4 -48 -6 -76 -6c-59 0 -102 7 -130 20c-88 42 -150 93 -187 154c-26 44 -43 103 -48 176c0 6 -1 13 -1 19c0 54 15 111 45 170c29 57 65 106 110 148s96 85 153 127c-3 16 -8 46 -13 92c-4 43 -5 73 -5 89c0 117 16 172 69 257c34 54 64 82 89 82 c21 0 43 -30 69 -92s39 -115 41 -159v-15c0 -109 -21 -162 -67 -241c-13 -20 -63 -90 -98 -118c-13 -9 -25 -19 -37 -29l31 -181c8 1 18 2 28 2c58 0 102 -12 133 -35c59 -43 92 -104 98 -184c1 -7 1 -15 1 -22c0 -123 -87 -209 -181 -248c8 -57 17 -110 25 -162 c5 -31 6 -58 6 -80c0 -30 -5 -53 -14 -70c-35 -64 -88 -99 -158 -103c-5 0 -11 -1 -16 -1c-37 0 -72 10 -108 27c-50 24 -77 59 -80 105v11c0 29 7 55 20 76c18 28 45 42 79 44h6c49 0 93 -42 97 -87v-9c0 -51 -34 -86 -105 -106c17 -24 51 -36 102 -36c62 0 116 43 140 85 c9 16 13 41 13 74c0 20 -1 42 -5 67c-8 53 -18 106 -26 159zM461 939c-95 0 -135 -175 -135 -286c0 -24 2 -48 5 -71c50 39 92 82 127 128c40 53 60 100 60 140v8c-4 53 -22 81 -55 81h-2zM406 119l54 -326c73 25 110 78 110 161c0 7 0 15 -1 23c-7 95 -57 142 -151 142h-12 zM382 117c-72 -2 -128 -47 -128 -120v-7c2 -46 43 -99 75 -115c-3 -2 -7 -5 -10 -10c-70 33 -116 88 -123 172v11c0 68 44 126 88 159c23 17 49 29 78 36l-29 170c-21 -13 -52 -37 -92 -73c-50 -44 -86 -84 -109 -119c-45 -69 -67 -130 -67 -182v-13c5 -68 35 -127 93 -176 s125 -73 203 -73c25 0 50 3 75 9c-19 111 -36 221 -54 331z" />
      </g>
      <g id="E084-z37u1wo">
         <path transform="scale(1,-1)" d="M20 -78c84 97 114 180 134 329h170c-13 -32 -82 -132 -99 -151l-84 -97c-33 -36 -59 -63 -80 -81h162v102l127 123v-225h57v-39h-57v-34c0 -43 19 -65 57 -65v-34h-244v36c48 0 60 26 60 70v27h-203v39z" />
      </g>
      <g id="E0A3-z37u1wo">
         <path transform="scale(1,-1)" d="M278 64c0 22 -17 39 -43 39c-12 0 -26 -3 -41 -10c-85 -43 -165 -94 -165 -156c5 -25 15 -32 49 -32c67 11 200 95 200 159zM0 -36c0 68 73 174 200 174c66 0 114 -39 114 -97c0 -84 -106 -173 -218 -173c-64 0 -96 32 -96 96z" />
      </g>
      <g id="E4E6-z37u1wo">
         <path transform="scale(1,-1)" d="M0 123c7 34 33 56 69 60c29 -3 43 -9 53 -29c4 -8 7 -15 10 -22c0 -21 -1 -25 -11 -35c-5 -8 -18 -14 -40 -20l12 -3l15 -1c44 0 97 26 122 56c10 11 18 26 24 42c7 1 15 2 22 3l-140 -424h-36l111 330c-10 -6 -27 -12 -53 -16l-52 -8h-10l-20 1c-1 0 -8 3 -21 6 c-37 9 -55 28 -55 60z" />
      </g>
      <g id="E240-z37u1wo">
         <path transform="scale(1,-1)" d="M179 -646c15 29 29 55 46 102c18 49 30 108 30 138c0 105 -80 173 -168 200c-18 5 -47 9 -87 16v190h22c8 0 33 -61 71 -95c4 -3 -2 3 61 -56c62 -58 122 -137 122 -241c0 -38 -13 -106 -35 -163c-20 -51 -43 -99 -66 -132c-6 -5 -10 -7 -13 -7s-5 2 -5 5l4 10 c1 3 14 25 18 33z" />
      </g>
      <g id="E0A4-z37u1wo">
         <path transform="scale(1,-1)" d="M0 -39c0 68 73 172 200 172c66 0 114 -37 114 -95c0 -84 -106 -171 -218 -171c-64 0 -96 30 -96 94z" />
      </g>
      <g id="E062-z37u1wo">
         <path transform="scale(1,-1)" d="M582 -120c0 32 26 58 58 58s58 -26 58 -58s-26 -58 -58 -58s-58 26 -58 58zM582 120c0 32 26 58 58 58s58 -26 58 -58s-26 -58 -58 -58s-58 26 -58 58zM158 96c51 0 73 -14 88 -49l16 -39c0 -17 -2 -30 -7 -40c-3 -11 -10 -21 -19 -31c-17 -18 -49 -43 -84 -43 c-55 0 -77 13 -112 44c-24 21 -35 55 -35 100c0 46 14 81 32 112c30 52 71 79 137 93l36 6l26 2c154 0 235 -68 274 -182c11 -32 18 -68 18 -107c0 -103 -26 -182 -68 -250c-89 -145 -234 -230 -412 -288l-30 -5c-9 0 -14 3 -14 8c3 10 5 11 10 16c35 15 70 30 96 44l78 43 c96 57 162 136 197 258c9 33 17 60 22 100c3 22 5 35 6 39c-7 69 -16 115 -23 140s-4 22 -16 40c-8 12 -19 23 -31 34c-24 21 -62 44 -118 44c-48 0 -84 -8 -113 -28c-28 -19 -42 -44 -42 -73v-16c2 -5 3 -9 4 -11c24 22 52 39 84 39z" />
      </g>
      <g id="E4E5-z37u1wo">
         <path transform="scale(1,-1)" d="M107 292c-13 24 -30 49 -52 71c-1 1 0 2 0 3l-2 2c3 3 4 4 6 4c12 0 26 -7 40 -20s44 -40 89 -81c26 -24 28 -29 46 -47c4 -4 8 -9 10 -14c6 -8 8 -16 8 -27c0 -19 -12 -40 -36 -61c-28 -23 -49 -38 -61 -73c-4 -11 -7 -27 -10 -50c13 -43 34 -83 59 -121 c31 -47 59 -79 101 -129c-8 0 -26 7 -54 20l-62 29l-21 6l-23 1c-25 0 -45 -10 -60 -30l-4 -14l-1 -12c0 -33 20 -56 39 -78c8 -9 17 -18 26 -26c17 -15 27 -24 28 -30l-3 -3c-11 5 -19 10 -25 15c-9 3 -37 21 -45 26c-24 14 -45 32 -63 51c-19 21 -37 44 -37 71 c0 63 27 95 80 95c41 0 86 -18 136 -52c-19 26 -37 48 -55 66c-23 23 -48 44 -73 65c-28 23 -47 40 -58 53s-17 26 -18 39c75 64 113 125 113 183c0 27 -7 48 -18 68z" />
      </g>
      <g id="E241-z37u1wo">
         <path transform="scale(1,-1)" d="M179 646c-4 8 -17 30 -18 33l-4 10c0 3 2 5 5 5s7 -2 13 -7c23 -33 46 -81 66 -132c22 -57 35 -125 35 -163c0 -104 -60 -183 -122 -241c-63 -59 -57 -53 -61 -56c-38 -34 -63 -95 -71 -95h-22v190c40 7 69 11 87 16c88 27 168 95 168 200c0 30 -12 89 -30 138 c-17 47 -31 73 -46 102z" />
      </g>
      <g id="E4E4-z37u1wo">
         <path transform="scale(1,-1)" d="M0 10v105c0 9 1 10 10 10h280c9 0 10 -1 10 -10v-105c0 -9 -1 -10 -10 -10h-280c-9 0 -10 1 -10 10z" />
      </g>
      <g id="E4E3-z37u1wo">
         <path transform="scale(1,-1)" d="M0 -115v105c0 9 1 10 10 10h280c9 0 10 -1 10 -10v-105c0 -9 -1 -10 -10 -10h-280c-9 0 -10 1 -10 10z" />
      </g>
   </defs>
   <style type="text/css">#z37u1wo g.page-margin {font-family:Times,serif;}#z37u1wo g.ending, #z37u1wo g.fing, #z37u1wo g.reh, #z37u1wo g.tempo {font-weight:bold;}#z37u1wo g.dir, #z37u1wo g.dynam, #z37u1wo g.mNum {font-style:italic;}#z37u1wo g.label {font-weight:normal;}#z37u1wo ellipse, #z37u1wo path, #z37u1wo polygon, #z37u1wo polyline, #z37u1wo rect {stroke:currentColor}g.harm tspan { font-size: 280px !important; } g.tempo tspan { font-size: 260px !important; } g.label tspan { font-size: 250px !important; }</style>
   <svg class="definition-scale" color="black" viewBox="0 0 15980 8710">
      <g class="page-margin" transform="translate(500, 500)">
         <g id="j1vjjqbt" class="mdiv pageMilestone" />
         <g id="k6w4ah0" class="score pageMilestone" />
         <g id="m1y5bjjq" class="system">
            <path d="M1816 863 L1816 7171" stroke-width="27" />
            <g id="mehxw9o" class="grpSym">
               <path d="M1731,3365 C1371,2825 1821,2303 1551,2123 C1884,2303 1434,2825 1731,3365" stroke-width="18" stroke-linecap="round" stroke-linejoin="round" />
               <path d="M1731,881 C1434,1421 1884,1943 1551,2123 C1821,1943 1371,1421 1731,881" stroke-width="18" stroke-linecap="round" stroke-linejoin="round" />
            </g>
            <g id="n5cuo7f" class="label">
               <text x="1398" y="2213" text-anchor="end" font-size="0px">
                  <tspan id="o1ka35jo" class="text">
                     <tspan font-size="405px">Rhodes</tspan>
                  </tspan>
               </text>
            </g>
            <g id="k1z9pvv" class="grpSym">
               <path d="M1731,7153 C1371,6613 1821,6091 1551,5911 C1884,6091 1434,6613 1731,7153" stroke-width="18" stroke-linecap="round" stroke-linejoin="round" />
               <path d="M1731,4669 C1434,5209 1884,5731 1551,5911 C1821,5731 1371,5209 1731,4669" stroke-width="18" stroke-linecap="round" stroke-linejoin="round" />
            </g>
            <g id="l1192919" class="label">
               <text x="1398" y="6001" text-anchor="end" font-size="0px">
                  <tspan id="mqyqnlw" class="text">
                     <tspan font-size="405px">Piano</tspan>
                  </tspan>
               </text>
            </g>
            <g id="mszouj4" class="section systemMilestone" />
            <g id="m1g9jpl0" class="measure">
               <g id="v19duucr" class="staff">
                  <path d="M1803 863 L6142 863" stroke-width="13" />
                  <path d="M1803 1043 L6142 1043" stroke-width="13" />
                  <path d="M1803 1223 L6142 1223" stroke-width="13" />
                  <path d="M1803 1403 L6142 1403" stroke-width="13" />
                  <path d="M1803 1583 L6142 1583" stroke-width="13" />
                  <g id="gedw286" class="clef">
                     <use xlink:href="#E050-z37u1wo" transform="translate(1920, 1403) scale(0.72, 0.72)" />
                  </g>
                  <g id="h1oab5t" class="keySig" />
                  <g id="i19f63us" class="meterSig">
                     <use xlink:href="#E084-z37u1wo" transform="translate(2587, 1043) scale(0.72, 0.72)" />
                     <use xlink:href="#E084-z37u1wo" transform="translate(2587, 1403) scale(0.72, 0.72)" />
                  </g>
                  <g class="ledgerLines below">
                     <path d="M3101 1763 L3423 1763" stroke-width="22" />
                     <path d="M5571 1763 L5893 1763" stroke-width="22" />
                     <path d="M3101 1943 L3423 1943" stroke-width="22" />
                     <path d="M5571 1943 L5893 1943" stroke-width="22" />
                  </g>
                  <g id="b1qmjqd6" class="layer">
                     <g id="d19nkhkl" class="chord">
                        <g id="c1pj5vol" class="dots">
                           <ellipse cx="3465" cy="1853" rx="36" ry="36" fill-opacity="1" />
                           <ellipse cx="3465" cy="1673" rx="36" ry="36" fill-opacity="1" />
                           <ellipse cx="3465" cy="1493" rx="36" ry="36" fill-opacity="1" />
                        </g>
                        <g id="b1tfl1h" class="stem">
                           <path d="M3366 1915 L3366 863" stroke-width="18" />
                        </g>
                        <g id="cflk4ag" class="note">
                           <g class="notehead">
                              <use xlink:href="#E0A3-z37u1wo" transform="translate(3149, 1943) scale(0.72, 0.72)" />
                           </g>
                        </g>
                        <g id="egeatq0" class="note">
                           <g class="notehead">
                              <use xlink:href="#E0A3-z37u1wo" transform="translate(3149, 1673) scale(0.72, 0.72)" />
                           </g>
                        </g>
                        <g id="fnde3yp" class="note">
                           <g class="notehead">
                              <use xlink:href="#E0A3-z37u1wo" transform="translate(3149, 1493) scale(0.72, 0.72)" />
                           </g>
                           <g id="gq8uai2" class="accid" />
                        </g>
                     </g>
                     <g id="h5styk0" class="rest">
                        <use xlink:href="#E4E6-z37u1wo" transform="translate(5169, 1223) scale(0.72, 0.72)" />
                     </g>
                     <g id="jlvnadx" class="chord">
                        <g id="dsywlfc" class="stem">
                           <path d="M5836 1915 L5836 863" stroke-width="18" />
                           <g id="ei7na9g" class="flag">
                              <use xlink:href="#E240-z37u1wo" transform="translate(5827, 863) scale(0.72, 0.72)" />
                           </g>
                        </g>
                        <g id="is4hvrj" class="note">
                           <g class="notehead">
                              <use xlink:href="#E0A4-z37u1wo" transform="translate(5619, 1943) scale(0.72, 0.72)" />
                           </g>
                        </g>
                        <g id="k1uh2ygv" class="note">
                           <g class="notehead">
                              <use xlink:href="#E0A4-z37u1wo" transform="translate(5619, 1763) scale(0.72, 0.72)" />
                           </g>
                           <g id="lvw6tca" class="accid" />
                        </g>
                        <g id="mccrb9l" class="note">
                           <g class="notehead">
                              <use xlink:href="#E0A4-z37u1wo" transform="translate(5619, 1493) scale(0.72, 0.72)" />
                           </g>
                           <g id="ns3xtcp" class="accid" />
                        </g>
                     </g>
                  </g>
               </g>
               <g id="wb8awo9" class="staff">
                  <path d="M1803 2663 L6142 2663" stroke-width="13" />
                  <path d="M1803 2843 L6142 2843" stroke-width="13" />
                  <path d="M1803 3023 L6142 3023" stroke-width="13" />
                  <path d="M1803 3203 L6142 3203" stroke-width="13" />
                  <path d="M1803 3383 L6142 3383" stroke-width="13" />
                  <g id="jrhzpf4" class="clef">
                     <use xlink:href="#E062-z37u1wo" transform="translate(1920, 2843) scale(0.72, 0.72)" />
                  </g>
                  <g id="kz7y2fi" class="keySig" />
                  <g id="lu2zjjs" class="meterSig">
                     <use xlink:href="#E084-z37u1wo" transform="translate(2587, 2843) scale(0.72, 0.72)" />
                     <use xlink:href="#E084-z37u1wo" transform="translate(2587, 3203) scale(0.72, 0.72)" />
                  </g>
                  <g id="o1ymkgwr" class="layer">
                     <g id="qjd6ak2" class="chord">
                        <g id="f1rm20rg" class="stem">
                           <path d="M3158 2868 L3158 3743" stroke-width="18" />
                        </g>
                        <g id="pu3e94n" class="note">
                           <g class="notehead">
                              <use xlink:href="#E0A3-z37u1wo" transform="translate(3149, 3203) scale(0.72, 0.72)" />
                           </g>
                        </g>
                        <g id="r17lvsaq" class="note">
                           <g class="notehead">
                              <use xlink:href="#E0A3-z37u1wo" transform="translate(3149, 2843) scale(0.72, 0.72)" />
                           </g>
                           <g id="s1mea0wp" class="accid" />
                        </g>
                     </g>
                     <g id="t1abrn2i" class="rest">
                        <use xlink:href="#E4E5-z37u1wo" transform="translate(4479, 3023) scale(0.72, 0.72)" />
                        <g id="gk73owy" class="dots">
                           <ellipse cx="4788" cy="2933" rx="36" ry="36" fill-opacity="1" />
                        </g>
                     </g>
                     <g id="v1ugmrro" class="chord">
                        <g id="hpbn3n2" class="stem">
                           <path d="M5628 2691 L5628 3623" stroke-width="18" />
                           <g id="iilm5zo" class="flag">
                              <use xlink:href="#E241-z37u1wo" transform="translate(5619, 3623) scale(0.72, 0.72)" />
                           </g>
                        </g>
                        <g id="u1qck573" class="note">
                           <g class="notehead">
                              <use xlink:href="#E0A4-z37u1wo" transform="translate(5619, 3023) scale(0.72, 0.72)" />
                           </g>
                        </g>
                        <g id="wtu2xl8" class="note">
                           <g class="notehead">
                              <use xlink:href="#E0A4-z37u1wo" transform="translate(5619, 2663) scale(0.72, 0.72)" />
                           </g>
                        </g>
                     </g>
                  </g>
               </g>
               <g id="i1d3m7m5" class="staff">
                  <path d="M1803 4651 L6142 4651" stroke-width="13" />
                  <path d="M1803 4831 L6142 4831" stroke-width="13" />
                  <path d="M1803 5011 L6142 5011" stroke-width="13" />
                  <path d="M1803 5191 L6142 5191" stroke-width="13" />
                  <path d="M1803 5371 L6142 5371" stroke-width="13" />
                  <g id="mbmhawx" class="clef">
                     <use xlink:href="#E050-z37u1wo" transform="translate(1920, 5191) scale(0.72, 0.72)" />
                  </g>
                  <g id="nu6fh06" class="keySig" />
                  <g id="o1f1xbph" class="meterSig">
                     <use xlink:href="#E084-z37u1wo" transform="translate(2587, 4831) scale(0.72, 0.72)" />
                     <use xlink:href="#E084-z37u1wo" transform="translate(2587, 5191) scale(0.72, 0.72)" />
                  </g>
                  <g id="o1fpsruy" class="layer">
                     <g id="p193gn0u" class="rest">
                        <use xlink:href="#E4E5-z37u1wo" transform="translate(3149, 5011) scale(0.72, 0.72)" />
                        <g id="jmzvmzj" class="dots">
                           <ellipse cx="3458" cy="4921" rx="36" ry="36" fill-opacity="1" />
                        </g>
                     </g>
                     <g id="r1qdi23k" class="chord">
                        <g id="kq9nv7s" class="stem">
                           <path d="M4038 4679 L4038 5461" stroke-width="18" />
                           <g id="l1p6b4l7" class="flag">
                              <use xlink:href="#E241-z37u1wo" transform="translate(4029, 5461) scale(0.72, 0.72)" />
                           </g>
                        </g>
                        <g id="qwv5mx9" class="note">
                           <g class="notehead">
                              <use xlink:href="#E0A4-z37u1wo" transform="translate(4029, 4831) scale(0.72, 0.72)" />
                           </g>
                        </g>
                        <g id="srrao1b" class="note">
                           <g class="notehead">
                              <use xlink:href="#E0A4-z37u1wo" transform="translate(4029, 4651) scale(0.72, 0.72)" />
                           </g>
                           <g id="t143x21u" class="accid" />
                        </g>
                     </g>
                     <g id="u199r4mq" class="rest">
                        <use xlink:href="#E4E4-z37u1wo" transform="translate(4479, 5011) scale(0.72, 0.72)" />
                        <g class="ledgerLines" />
                     </g>
                  </g>
               </g>
               <g id="jq2uyz9" class="staff">
                  <path d="M1803 6451 L6142 6451" stroke-width="13" />
                  <path d="M1803 6631 L6142 6631" stroke-width="13" />
                  <path d="M1803 6811 L6142 6811" stroke-width="13" />
                  <path d="M1803 6991 L6142 6991" stroke-width="13" />
                  <path d="M1803 7171 L6142 7171" stroke-width="13" />
                  <g id="phbgnvr" class="clef">
                     <use xlink:href="#E062-z37u1wo" transform="translate(1920, 6631) scale(0.72, 0.72)" />
                  </g>
                  <g id="q1f5463v" class="keySig" />
                  <g id="r1f9ioxf" class="meterSig">
                     <use xlink:href="#E084-z37u1wo" transform="translate(2587, 6631) scale(0.72, 0.72)" />
                     <use xlink:href="#E084-z37u1wo" transform="translate(2587, 6991) scale(0.72, 0.72)" />
                  </g>
                  <g id="v1afdcdk" class="layer">
                     <g id="wmo09c" class="mRest">
                        <use xlink:href="#E4E3-z37u1wo" transform="translate(4434, 6631) scale(0.72, 0.72)" />
                     </g>
                  </g>
               </g>
               <g id="x1ln1ljs" class="tempo" xml:lang="it">
                  <text x="2587" y="726" font-size="0px">
                     <tspan id="ycgv23h" class="text">
                        <tspan font-size="405px">♩ = 110</tspan>
                     </tspan>
                  </text>
               </g>
               <g id="z1ndv7y7" class="harm">
                  <text x="3149" y="269" font-size="0px">
                     <tspan id="ajh5pw6" class="text">
                        <tspan font-size="405px" x="3149" y="269">Bm7</tspan>
                     </tspan>
                  </text>
               </g>
               <g id="k1kn7u0s" class="tempo" xml:lang="it">
                  <text x="2587" y="4523" font-size="0px">
                     <tspan id="l17705u2" class="text">
                        <tspan font-size="405px">♩ = 110</tspan>
                     </tspan>
                  </text>
               </g>
               <g id="m1a0y4b" class="harm">
                  <text x="3149" y="4066" font-size="0px">
                     <tspan id="n1fgs5vu" class="text">
                        <tspan font-size="405px" x="3149" y="4066">Bm7</tspan>
                     </tspan>
                  </text>
               </g>
               <g id="u1hch1pi" class="barLine">
                  <path d="M6129 863 L6129 1583" stroke-width="27" />
                  <path d="M6129 2663 L6129 3383" stroke-width="27" />
                  <path d="M6129 1583 L6129 2663" stroke-width="27" />
                  <path d="M6129 4651 L6129 5371" stroke-width="27" />
                  <path d="M6129 6451 L6129 7171" stroke-width="27" />
                  <path d="M6129 5371 L6129 6451" stroke-width="27" />
               </g>
            </g>
            <g id="x1ncsts0" class="measure">
               <g id="g1302gh7" class="staff">
                  <path d="M6142 863 L8975 863" stroke-width="13" />
                  <path d="M6142 1043 L8975 1043" stroke-width="13" />
                  <path d="M6142 1223 L8975 1223" stroke-width="13" />
                  <path d="M6142 1403 L8975 1403" stroke-width="13" />
                  <path d="M6142 1583 L8975 1583" stroke-width="13" />
                  <g class="ledgerLines below">
                     <path d="M6274 1763 L6596 1763" stroke-width="22" />
                     <path d="M6274 1943 L6596 1943" stroke-width="22" />
                  </g>
                  <g id="i10k91rm" class="layer">
                     <g id="kqkcen6" class="chord">
                        <g id="nl491l4" class="dots">
                           <ellipse cx="6638" cy="1853" rx="36" ry="36" fill-opacity="1" />
                           <ellipse cx="6638" cy="1673" rx="36" ry="36" fill-opacity="1" />
                           <ellipse cx="6638" cy="1493" rx="36" ry="36" fill-opacity="1" />
                        </g>
                        <g id="m32h432" class="stem">
                           <path d="M6539 1915 L6539 863" stroke-width="18" />
                        </g>
                        <g id="jqyfp5" class="note">
                           <g class="notehead">
                              <use xlink:href="#E0A3-z37u1wo" transform="translate(6322, 1943) scale(0.72, 0.72)" />
                           </g>
                        </g>
                        <g id="l1l0rhf0" class="note">
                           <g class="notehead">
                              <use xlink:href="#E0A3-z37u1wo" transform="translate(6322, 1763) scale(0.72, 0.72)" />
                           </g>
                           <g id="mg7ywn3" class="accid" />
                        </g>
                        <g id="ny54z5g" class="note">
                           <g class="notehead">
                              <use xlink:href="#E0A3-z37u1wo" transform="translate(6322, 1493) scale(0.72, 0.72)" />
                           </g>
                           <g id="o4ppyq3" class="accid" />
                        </g>
                     </g>
                     <g id="p1nqh7pt" class="rest">
                        <use xlink:href="#E4E5-z37u1wo" transform="translate(8272, 1223) scale(0.72, 0.72)" />
                     </g>
                  </g>
               </g>
               <g id="h1r751l3" class="staff">
                  <path d="M6142 2663 L8975 2663" stroke-width="13" />
                  <path d="M6142 2843 L8975 2843" stroke-width="13" />
                  <path d="M6142 3023 L8975 3023" stroke-width="13" />
                  <path d="M6142 3203 L8975 3203" stroke-width="13" />
                  <path d="M6142 3383 L8975 3383" stroke-width="13" />
                  <g id="qekdb5s" class="layer">
                     <g id="s1j455ko" class="chord">
                        <g id="oyg31f9" class="stem">
                           <path d="M6331 2688 L6331 3623" stroke-width="18" />
                        </g>
                        <g id="r19xl1r3" class="note">
                           <g class="notehead">
                              <use xlink:href="#E0A3-z37u1wo" transform="translate(6322, 3023) scale(0.72, 0.72)" />
                           </g>
                        </g>
                        <g id="tvi89me" class="note">
                           <g class="notehead">
                              <use xlink:href="#E0A3-z37u1wo" transform="translate(6322, 2663) scale(0.72, 0.72)" />
                           </g>
                        </g>
                     </g>
                     <g id="uzrf2y7" class="rest">
                        <use xlink:href="#E4E4-z37u1wo" transform="translate(7372, 3023) scale(0.72, 0.72)" />
                        <g class="ledgerLines" />
                     </g>
                  </g>
               </g>
               <g id="g1nj4bc9" class="staff">
                  <path d="M6142 4651 L8975 4651" stroke-width="13" />
                  <path d="M6142 4831 L8975 4831" stroke-width="13" />
                  <path d="M6142 5011 L8975 5011" stroke-width="13" />
                  <path d="M6142 5191 L8975 5191" stroke-width="13" />
                  <path d="M6142 5371 L8975 5371" stroke-width="13" />
                  <g id="i10u5290" class="layer">
                     <g id="jv98xh4" class="rest">
                        <use xlink:href="#E4E4-z37u1wo" transform="translate(6322, 5011) scale(0.72, 0.72)" />
                        <g class="ledgerLines" />
                     </g>
                     <g id="k1uxo75h" class="rest">
                        <use xlink:href="#E4E6-z37u1wo" transform="translate(7372, 5011) scale(0.72, 0.72)" />
                     </g>
                     <g id="n1a34m95" class="chord">
                        <g id="p1193egh" class="stem">
                           <path d="M7831 4679 L7831 5551" stroke-width="18" />
                           <g id="q1uq9imr" class="flag">
                              <use xlink:href="#E241-z37u1wo" transform="translate(7822, 5551) scale(0.72, 0.72)" />
                           </g>
                        </g>
                        <g id="l1e778p1" class="note">
                           <g class="notehead">
                              <use xlink:href="#E0A4-z37u1wo" transform="translate(7822, 4921) scale(0.72, 0.72)" />
                           </g>
                           <g id="mm6ggx5" class="accid" />
                        </g>
                        <g id="o1m0anmn" class="note">
                           <g class="notehead">
                              <use xlink:href="#E0A4-z37u1wo" transform="translate(7822, 4651) scale(0.72, 0.72)" />
                           </g>
                           <g id="p1mdh4ti" class="accid" />
                        </g>
                     </g>
                     <g id="qemlyzi" class="rest">
                        <use xlink:href="#E4E5-z37u1wo" transform="translate(8272, 5011) scale(0.72, 0.72)" />
                     </g>
                  </g>
               </g>
               <g id="h1mtxzkj" class="staff">
                  <path d="M6142 6451 L8975 6451" stroke-width="13" />
                  <path d="M6142 6631 L8975 6631" stroke-width="13" />
                  <path d="M6142 6811 L8975 6811" stroke-width="13" />
                  <path d="M6142 6991 L8975 6991" stroke-width="13" />
                  <path d="M6142 7171 L8975 7171" stroke-width="13" />
                  <g id="r1f0bfbx" class="layer">
                     <g id="soj9yyi" class="mRest">
                        <use xlink:href="#E4E3-z37u1wo" transform="translate(7437, 6631) scale(0.72, 0.72)" />
                     </g>
                  </g>
               </g>
               <g id="f10aqe8u" class="barLine">
                  <path d="M8962 863 L8962 1583" stroke-width="27" />
                  <path d="M8962 2663 L8962 3383" stroke-width="27" />
                  <path d="M8962 1583 L8962 2663" stroke-width="27" />
                  <path d="M8962 4651 L8962 5371" stroke-width="27" />
                  <path d="M8962 6451 L8962 7171" stroke-width="27" />
                  <path d="M8962 5371 L8962 6451" stroke-width="27" />
               </g>
            </g>
            <g id="v1fruc36" class="measure">
               <g id="e1t8nv49" class="staff">
                  <path d="M8975 863 L12148 863" stroke-width="13" />
                  <path d="M8975 1043 L12148 1043" stroke-width="13" />
                  <path d="M8975 1223 L12148 1223" stroke-width="13" />
                  <path d="M8975 1403 L12148 1403" stroke-width="13" />
                  <path d="M8975 1583 L12148 1583" stroke-width="13" />
                  <g class="ledgerLines below">
                     <path d="M9107 1763 L9429 1763" stroke-width="22" />
                     <path d="M11577 1763 L11899 1763" stroke-width="22" />
                     <path d="M9107 1943 L9429 1943" stroke-width="22" />
                     <path d="M11577 1943 L11899 1943" stroke-width="22" />
                  </g>
                  <g id="gwisafs" class="layer">
                     <g id="io91bnn" class="chord">
                        <g id="s1c0brsk" class="dots">
                           <ellipse cx="9471" cy="1853" rx="36" ry="36" fill-opacity="1" />
                           <ellipse cx="9471" cy="1673" rx="36" ry="36" fill-opacity="1" />
                           <ellipse cx="9471" cy="1493" rx="36" ry="36" fill-opacity="1" />
                        </g>
                        <g id="r1s91e87" class="stem">
                           <path d="M9372 1915 L9372 953" stroke-width="18" />
                        </g>
                        <g id="hi2po9z" class="note">
                           <g class="notehead">
                              <use xlink:href="#E0A3-z37u1wo" transform="translate(9155, 1943) scale(0.72, 0.72)" />
                           </g>
                        </g>
                        <g id="j1ocz5t2" class="note">
                           <g class="notehead">
                              <use xlink:href="#E0A3-z37u1wo" transform="translate(9155, 1763) scale(0.72, 0.72)" />
                           </g>
                           <g id="k198mbn5" class="accid" />
                        </g>
                        <g id="lx7a7ix" class="note">
                           <g class="notehead">
                              <use xlink:href="#E0A3-z37u1wo" transform="translate(9155, 1583) scale(0.72, 0.72)" />
                           </g>
                        </g>
                     </g>
                     <g id="mkd2m24" class="rest">
                        <use xlink:href="#E4E6-z37u1wo" transform="translate(11175, 1223) scale(0.72, 0.72)" />
                     </g>
                     <g id="pjluppy" class="chord">
                        <g id="tt6k0i6" class="stem">
                           <path d="M11842 2005 L11842 863" stroke-width="18" />
                           <g id="uv42myv" class="flag">
                              <use xlink:href="#E240-z37u1wo" transform="translate(11833, 863) scale(0.72, 0.72)" />
                           </g>
                        </g>
                        <g id="nx72h3u" class="note">
                           <g class="notehead">
                              <use xlink:href="#E0A4-z37u1wo" transform="translate(11625, 2033) scale(0.72, 0.72)" />
                           </g>
                           <g id="o1dht5cp" class="accid" />
                        </g>
                        <g id="q1kr0dnv" class="note">
                           <g class="notehead">
                              <use xlink:href="#E0A4-z37u1wo" transform="translate(11625, 1673) scale(0.72, 0.72)" />
                           </g>
                        </g>
                        <g id="rpi70pa" class="note">
                           <g class="notehead">
                              <use xlink:href="#E0A4-z37u1wo" transform="translate(11625, 1493) scale(0.72, 0.72)" />
                           </g>
                           <g id="s1t4nlge" class="accid" />
                        </g>
                     </g>
                  </g>
               </g>
               <g id="f1vi66cv" class="staff">
                  <path d="M8975 2663 L12148 2663" stroke-width="13" />
                  <path d="M8975 2843 L12148 2843" stroke-width="13" />
                  <path d="M8975 3023 L12148 3023" stroke-width="13" />
                  <path d="M8975 3203 L12148 3203" stroke-width="13" />
                  <path d="M8975 3383 L12148 3383" stroke-width="13" />
                  <g class="ledgerLines below">
                     <path d="M11577 3563 L11899 3563" stroke-width="22" />
                  </g>
                  <g id="th5k9xq" class="layer">
                     <g id="w7s14vv" class="chord">
                        <g id="voidg0b" class="stem">
                           <path d="M9372 3445 L9372 2483" stroke-width="18" />
                        </g>
                        <g id="u6vtx0l" class="note">
                           <g class="notehead">
                              <use xlink:href="#E0A3-z37u1wo" transform="translate(9155, 3473) scale(0.72, 0.72)" />
                           </g>
                           <g id="v97rsbe" class="accid" />
                        </g>
                        <g id="xi45w6n" class="note">
                           <g class="notehead">
                              <use xlink:href="#E0A3-z37u1wo" transform="translate(9155, 3113) scale(0.72, 0.72)" />
                           </g>
                           <g id="y8kqg3u" class="accid" />
                        </g>
                     </g>
                     <g id="z804m6f" class="rest">
                        <use xlink:href="#E4E5-z37u1wo" transform="translate(10485, 3023) scale(0.72, 0.72)" />
                        <g id="wmo3ieh" class="dots">
                           <ellipse cx="10794" cy="2933" rx="36" ry="36" fill-opacity="1" />
                        </g>
                     </g>
                     <g id="bx9l58a" class="chord">
                        <g id="xriuhpa" class="stem">
                           <path d="M11842 3535 L11842 2573" stroke-width="18" />
                           <g id="y15txtr4" class="flag">
                              <use xlink:href="#E240-z37u1wo" transform="translate(11833, 2573) scale(0.72, 0.72)" />
                           </g>
                        </g>
                        <g id="atun6me" class="note">
                           <g class="notehead">
                              <use xlink:href="#E0A4-z37u1wo" transform="translate(11625, 3563) scale(0.72, 0.72)" />
                           </g>
                        </g>
                        <g id="c1kp1qno" class="note">
                           <g class="notehead">
                              <use xlink:href="#E0A4-z37u1wo" transform="translate(11625, 3203) scale(0.72, 0.72)" />
                           </g>
                        </g>
                     </g>
                  </g>
               </g>
               <g id="c1n0c4tw" class="staff">
                  <path d="M8975 4651 L12148 4651" stroke-width="13" />
                  <path d="M8975 4831 L12148 4831" stroke-width="13" />
                  <path d="M8975 5011 L12148 5011" stroke-width="13" />
                  <path d="M8975 5191 L12148 5191" stroke-width="13" />
                  <path d="M8975 5371 L12148 5371" stroke-width="13" />
                  <g id="esqrnpm" class="layer">
                     <g id="f1pzvuzm" class="rest">
                        <use xlink:href="#E4E5-z37u1wo" transform="translate(9155, 5011) scale(0.72, 0.72)" />
                        <g id="z1t7jbpk" class="dots">
                           <ellipse cx="9464" cy="4921" rx="36" ry="36" fill-opacity="1" />
                        </g>
                     </g>
                     <g id="i1xvhpww" class="chord">
                        <g id="aw4qwv1" class="stem">
                           <path d="M10044 4769 L10044 5551" stroke-width="18" />
                           <g id="b185mtjb" class="flag">
                              <use xlink:href="#E241-z37u1wo" transform="translate(10035, 5551) scale(0.72, 0.72)" />
                           </g>
                        </g>
                        <g id="g7kewql" class="note">
                           <g class="notehead">
                              <use xlink:href="#E0A4-z37u1wo" transform="translate(10035, 4921) scale(0.72, 0.72)" />
                           </g>
                           <g id="hdxtjxc" class="accid" />
                        </g>
                        <g id="jqpsbk9" class="note">
                           <g class="notehead">
                              <use xlink:href="#E0A4-z37u1wo" transform="translate(10035, 4741) scale(0.72, 0.72)" />
                           </g>
                        </g>
                     </g>
                     <g id="kbhk308" class="rest">
                        <use xlink:href="#E4E4-z37u1wo" transform="translate(10485, 5011) scale(0.72, 0.72)" />
                        <g class="ledgerLines" />
                     </g>
                  </g>
               </g>
               <g id="dt79a5g" class="staff">
                  <path d="M8975 6451 L12148 6451" stroke-width="13" />
                  <path d="M8975 6631 L12148 6631" stroke-width="13" />
                  <path d="M8975 6811 L12148 6811" stroke-width="13" />
                  <path d="M8975 6991 L12148 6991" stroke-width="13" />
                  <path d="M8975 7171 L12148 7171" stroke-width="13" />
                  <g id="l19xblpf" class="layer">
                     <g id="mx2vs0h" class="mRest">
                        <use xlink:href="#E4E3-z37u1wo" transform="translate(10440, 6631) scale(0.72, 0.72)" />
                     </g>
                  </g>
               </g>
               <g id="dq2cihb" class="barLine">
                  <path d="M12135 863 L12135 1583" stroke-width="27" />
                  <path d="M12135 2663 L12135 3383" stroke-width="27" />
                  <path d="M12135 1583 L12135 2663" stroke-width="27" />
                  <path d="M12135 4651 L12135 5371" stroke-width="27" />
                  <path d="M12135 6451 L12135 7171" stroke-width="27" />
                  <path d="M12135 5371 L12135 6451" stroke-width="27" />
               </g>
            </g>
            <g id="d1ntkhso" class="measure">
               <g id="m8bvjs4" class="staff">
                  <path d="M12148 863 L14981 863" stroke-width="13" />
                  <path d="M12148 1043 L14981 1043" stroke-width="13" />
                  <path d="M12148 1223 L14981 1223" stroke-width="13" />
                  <path d="M12148 1403 L14981 1403" stroke-width="13" />
                  <path d="M12148 1583 L14981 1583" stroke-width="13" />
                  <g class="ledgerLines below">
                     <path d="M12280 1763 L12602 1763" stroke-width="22" />
                     <path d="M12280 1943 L12602 1943" stroke-width="22" />
                  </g>
                  <g id="o1cgfl4n" class="layer">
                     <g id="r39w6i1" class="chord">
                        <g id="d19zgw09" class="dots">
                           <ellipse cx="12644" cy="2033" rx="36" ry="36" fill-opacity="1" />
                           <ellipse cx="12644" cy="1673" rx="36" ry="36" fill-opacity="1" />
                           <ellipse cx="12644" cy="1493" rx="36" ry="36" fill-opacity="1" />
                        </g>
                        <g id="c1lrgs2i" class="stem">
                           <path d="M12545 2005 L12545 863" stroke-width="18" />
                        </g>
                        <g id="p105cju1" class="note">
                           <g class="notehead">
                              <use xlink:href="#E0A3-z37u1wo" transform="translate(12328, 2033) scale(0.72, 0.72)" />
                           </g>
                           <g id="q1f3n1t6" class="accid" />
                        </g>
                        <g id="snccuqq" class="note">
                           <g class="notehead">
                              <use xlink:href="#E0A3-z37u1wo" transform="translate(12328, 1673) scale(0.72, 0.72)" />
                           </g>
                        </g>
                        <g id="t1c1vdjh" class="note">
                           <g class="notehead">
                              <use xlink:href="#E0A3-z37u1wo" transform="translate(12328, 1493) scale(0.72, 0.72)" />
                           </g>
                           <g id="u1ki78p6" class="accid" />
                        </g>
                     </g>
                     <g id="v1y4pl49" class="rest">
                        <use xlink:href="#E4E5-z37u1wo" transform="translate(14278, 1223) scale(0.72, 0.72)" />
                     </g>
                  </g>
               </g>
               <g id="n8xiyzn" class="staff">
                  <path d="M12148 2663 L14981 2663" stroke-width="13" />
                  <path d="M12148 2843 L14981 2843" stroke-width="13" />
                  <path d="M12148 3023 L14981 3023" stroke-width="13" />
                  <path d="M12148 3203 L14981 3203" stroke-width="13" />
                  <path d="M12148 3383 L14981 3383" stroke-width="13" />
                  <g class="ledgerLines below">
                     <path d="M12280 3563 L12602 3563" stroke-width="22" />
                  </g>
                  <g id="ws0l8di" class="layer">
                     <g id="y10ocnwf" class="chord">
                        <g id="evug66r" class="stem">
                           <path d="M12545 3535 L12545 2573" stroke-width="18" />
                        </g>
                        <g id="xwqbi6p" class="note">
                           <g class="notehead">
                              <use xlink:href="#E0A3-z37u1wo" transform="translate(12328, 3563) scale(0.72, 0.72)" />
                           </g>
                        </g>
                        <g id="zh1lx3j" class="note">
                           <g class="notehead">
                              <use xlink:href="#E0A3-z37u1wo" transform="translate(12328, 3203) scale(0.72, 0.72)" />
                           </g>
                        </g>
                     </g>
                     <g id="a1mz91g9" class="rest">
                        <use xlink:href="#E4E4-z37u1wo" transform="translate(13378, 3023) scale(0.72, 0.72)" />
                        <g class="ledgerLines" />
                     </g>
                  </g>
               </g>
               <g id="w6lrcyg" class="staff">
                  <path d="M12148 4651 L14981 4651" stroke-width="13" />
                  <path d="M12148 4831 L14981 4831" stroke-width="13" />
                  <path d="M12148 5011 L14981 5011" stroke-width="13" />
                  <path d="M12148 5191 L14981 5191" stroke-width="13" />
                  <path d="M12148 5371 L14981 5371" stroke-width="13" />
                  <g id="y1vmucm1" class="layer">
                     <g id="zmhabf" class="rest">
                        <use xlink:href="#E4E4-z37u1wo" transform="translate(12328, 5011) scale(0.72, 0.72)" />
                        <g class="ledgerLines" />
                     </g>
                     <g id="a10i7th1" class="rest">
                        <use xlink:href="#E4E6-z37u1wo" transform="translate(13378, 5011) scale(0.72, 0.72)" />
                     </g>
                     <g id="cvilohb" class="chord">
                        <g id="felec05" class="stem">
                           <path d="M13837 4679 L13837 5461" stroke-width="18" />
                           <g id="gv4fckh" class="flag">
                              <use xlink:href="#E241-z37u1wo" transform="translate(13828, 5461) scale(0.72, 0.72)" />
                           </g>
                        </g>
                        <g id="b1frfs90" class="note">
                           <g class="notehead">
                              <use xlink:href="#E0A4-z37u1wo" transform="translate(13828, 4831) scale(0.72, 0.72)" />
                           </g>
                        </g>
                        <g id="d1hbpe59" class="note">
                           <g class="notehead">
                              <use xlink:href="#E0A4-z37u1wo" transform="translate(13828, 4651) scale(0.72, 0.72)" />
                           </g>
                           <g id="e13dbpyk" class="accid" />
                        </g>
                     </g>
                     <g id="fw9n2dy" class="rest">
                        <use xlink:href="#E4E5-z37u1wo" transform="translate(14278, 5011) scale(0.72, 0.72)" />
                     </g>
                  </g>
               </g>
               <g id="x1n4w5j" class="staff">
                  <path d="M12148 6451 L14981 6451" stroke-width="13" />
                  <path d="M12148 6631 L14981 6631" stroke-width="13" />
                  <path d="M12148 6811 L14981 6811" stroke-width="13" />
                  <path d="M12148 6991 L14981 6991" stroke-width="13" />
                  <path d="M12148 7171 L14981 7171" stroke-width="13" />
                  <g id="gff8tos" class="layer">
                     <g id="h1yl1dpg" class="mRest">
                        <use xlink:href="#E4E3-z37u1wo" transform="translate(13443, 6631) scale(0.72, 0.72)" />
                     </g>
                  </g>
               </g>
               <g id="lwfxalm" class="barLine">
                  <path d="M14968 863 L14968 1583" stroke-width="27" />
                  <path d="M14968 2663 L14968 3383" stroke-width="27" />
                  <path d="M14968 1583 L14968 2663" stroke-width="27" />
                  <path d="M14968 4651 L14968 5371" stroke-width="27" />
                  <path d="M14968 6451 L14968 7171" stroke-width="27" />
                  <path d="M14968 5371 L14968 6451" stroke-width="27" />
               </g>
            </g>
            <g id="p1nojvq8" class="systemMilestoneEnd mszouj4" />
         </g>
         <g id="q19e4jxa" class="pageMilestoneEnd k6w4ah0" />
         <g id="r1xnh0l3" class="pageMilestoneEnd j1vjjqbt" />
      </g>
   </svg>
</svg>
