<svg width="720px" height="392px" version="1.1" xmlns="http://www.w3.org/2000/svg" xmlns:xlink="http://www.w3.org/1999/xlink" overflow="visible" id="y6kvgv4">
   <desc>Engraved by Verovio 5.7.0-7135340</desc>
   <defs>
      <g id="E050-y6kvgv4">
         <path transform="scale(1,-1)" d="M441 -245c-23 -4 -48 -6 -76 -6c-59 0 -102 7 -130 20c-88 42 -150 93 -187 154c-26 44 -43 103 -48 176c0 6 -1 13 -1 19c0 54 15 111 45 170c29 57 65 106 110 148s96 85 153 127c-3 16 -8 46 -13 92c-4 43 -5 73 -5 89c0 117 16 172 69 257c34 54 64 82 89 82 c21 0 43 -30 69 -92s39 -115 41 -159v-15c0 -109 -21 -162 -67 -241c-13 -20 -63 -90 -98 -118c-13 -9 -25 -19 -37 -29l31 -181c8 1 18 2 28 2c58 0 102 -12 133 -35c59 -43 92 -104 98 -184c1 -7 1 -15 1 -22c0 -123 -87 -209 -181 -248c8 -57 17 -110 25 -162 c5 -31 6 -58 6 -80c0 -30 -5 -53 -14 -70c-35 -64 -88 -99 -158 -103c-5 0 -11 -1 -16 -1c-37 0 -72 10 -108 27c-50 24 -77 59 -80 105v11c0 29 7 55 20 76c18 28 45 42 79 44h6c49 0 93 -42 97 -87v-9c0 -51 -34 -86 -105 -106c17 -24 51 -36 102 -36c62 0 116 43 140 85 c9 16 13 41 13 74c0 20 -1 42 -5 67c-8 53 -18 106 -26 159zM461 939c-95 0 -135 -175 -135 -286c0 -24 2 -48 5 -71c50 39 92 82 127 128c40 53 60 100 60 140v8c-4 53 -22 81 -55 81h-2zM406 119l54 -326c73 25 110 78 110 161c0 7 0 15 -1 23c-7 95 -57 142 -151 142h-12 zM382 117c-72 -2 -128 -47 -128 -120v-7c2 -46 43 -99 75 -115c-3 -2 -7 -5 -10 -10c-70 33 -116 88 -123 172v11c0 68 44 126 88 159c23 17 49 29 78 36l-29 170c-21 -13 -52 -37 -92 -73c-50 -44 -86 -84 -109 -119c-45 -69 -67 -130 -67 -182v-13c5 -68 35 -127 93 -176 s125 -73 203 -73c25 0 50 3 75 9c-19 111 -36 221 -54 331z" />
      </g>
      <g id="E084-y6kvgv4">
         <path transform="scale(1,-1)" d="M20 -78c84 97 114 180 134 329h170c-13 -32 -82 -132 -99 -151l-84 -97c-33 -36 -59 -63 -80 -81h162v102l127 123v-225h57v-39h-57v-34c0 -43 19 -65 57 -65v-34h-244v36c48 0 60 26 60 70v27h-203v39z" />
      </g>
      <g id="E0A3-y6kvgv4">
         <path transform="scale(1,-1)" d="M278 64c0 22 -17 39 -43 39c-12 0 -26 -3 -41 -10c-85 -43 -165 -94 -165 -156c5 -25 15 -32 49 -32c67 11 200 95 200 159zM0 -36c0 68 73 174 200 174c66 0 114 -39 114 -97c0 -84 -106 -173 -218 -173c-64 0 -96 32 -96 96z" />
      </g>
      <g id="E4E6-y6kvgv4">
         <path transform="scale(1,-1)" d="M0 123c7 34 33 56 69 60c29 -3 43 -9 53 -29c4 -8 7 -15 10 -22c0 -21 -1 -25 -11 -35c-5 -8 -18 -14 -40 -20l12 -3l15 -1c44 0 97 26 122 56c10 11 18 26 24 42c7 1 15 2 22 3l-140 -424h-36l111 330c-10 -6 -27 -12 -53 -16l-52 -8h-10l-20 1c-1 0 -8 3 -21 6 c-37 9 -55 28 -55 60z" />
      </g>
      <g id="E240-y6kvgv4">
         <path transform="scale(1,-1)" d="M179 -646c15 29 29 55 46 102c18 49 30 108 30 138c0 105 -80 173 -168 200c-18 5 -47 9 -87 16v190h22c8 0 33 -61 71 -95c4 -3 -2 3 61 -56c62 -58 122 -137 122 -241c0 -38 -13 -106 -35 -163c-20 -51 -43 -99 -66 -132c-6 -5 -10 -7 -13 -7s-5 2 -5 5l4 10 c1 3 14 25 18 33z" />
      </g>
      <g id="E0A4-y6kvgv4">
         <path transform="scale(1,-1)" d="M0 -39c0 68 73 172 200 172c66 0 114 -37 114 -95c0 -84 -106 -171 -218 -171c-64 0 -96 30 -96 94z" />
      </g>
      <g id="E062-y6kvgv4">
         <path transform="scale(1,-1)" d="M582 -120c0 32 26 58 58 58s58 -26 58 -58s-26 -58 -58 -58s-58 26 -58 58zM582 120c0 32 26 58 58 58s58 -26 58 -58s-26 -58 -58 -58s-58 26 -58 58zM158 96c51 0 73 -14 88 -49l16 -39c0 -17 -2 -30 -7 -40c-3 -11 -10 -21 -19 -31c-17 -18 -49 -43 -84 -43 c-55 0 -77 13 -112 44c-24 21 -35 55 -35 100c0 46 14 81 32 112c30 52 71 79 137 93l36 6l26 2c154 0 235 -68 274 -182c11 -32 18 -68 18 -107c0 -103 -26 -182 -68 -250c-89 -145 -234 -230 -412 -288l-30 -5c-9 0 -14 3 -14 8c3 10 5 11 10 16c35 15 70 30 96 44l78 43 c96 57 162 136 197 258c9 33 17 60 22 100c3 22 5 35 6 39c-7 69 -16 115 -23 140s-4 22 -16 40c-8 12 -19 23 -31 34c-24 21 -62 44 -118 44c-48 0 -84 -8 -113 -28c-28 -19 -42 -44 -42 -73v-16c2 -5 3 -9 4 -11c24 22 52 39 84 39z" />
      </g>
      <g id="E4E5-y6kvgv4">
         <path transform="scale(1,-1)" d="M107 292c-13 24 -30 49 -52 71c-1 1 0 2 0 3l-2 2c3 3 4 4 6 4c12 0 26 -7 40 -20s44 -40 89 -81c26 -24 28 -29 46 -47c4 -4 8 -9 10 -14c6 -8 8 -16 8 -27c0 -19 -12 -40 -36 -61c-28 -23 -49 -38 -61 -73c-4 -11 -7 -27 -10 -50c13 -43 34 -83 59 -121 c31 -47 59 -79 101 -129c-8 0 -26 7 -54 20l-62 29l-21 6l-23 1c-25 0 -45 -10 -60 -30l-4 -14l-1 -12c0 -33 20 -56 39 -78c8 -9 17 -18 26 -26c17 -15 27 -24 28 -30l-3 -3c-11 5 -19 10 -25 15c-9 3 -37 21 -45 26c-24 14 -45 32 -63 51c-19 21 -37 44 -37 71 c0 63 27 95 80 95c41 0 86 -18 136 -52c-19 26 -37 48 -55 66c-23 23 -48 44 -73 65c-28 23 -47 40 -58 53s-17 26 -18 39c75 64 113 125 113 183c0 27 -7 48 -18 68z" />
      </g>
      <g id="E241-y6kvgv4">
         <path transform="scale(1,-1)" d="M179 646c-4 8 -17 30 -18 33l-4 10c0 3 2 5 5 5s7 -2 13 -7c23 -33 46 -81 66 -132c22 -57 35 -125 35 -163c0 -104 -60 -183 -122 -241c-63 -59 -57 -53 -61 -56c-38 -34 -63 -95 -71 -95h-22v190c40 7 69 11 87 16c88 27 168 95 168 200c0 30 -12 89 -30 138 c-17 47 -31 73 -46 102z" />
      </g>
      <g id="E4E4-y6kvgv4">
         <path transform="scale(1,-1)" d="M0 10v105c0 9 1 10 10 10h280c9 0 10 -1 10 -10v-105c0 -9 -1 -10 -10 -10h-280c-9 0 -10 1 -10 10z" />
      </g>
      <g id="E4E3-y6kvgv4">
         <path transform="scale(1,-1)" d="M0 -115v105c0 9 1 10 10 10h280c9 0 10 -1 10 -10v-105c0 -9 -1 -10 -10 -10h-280c-9 0 -10 1 -10 10z" />
      </g>
   </defs>
   <style type="text/css">#y6kvgv4 g.page-margin {font-family:Times,serif;}#y6kvgv4 g.ending, #y6kvgv4 g.fing, #y6kvgv4 g.reh, #y6kvgv4 g.tempo {font-weight:bold;}#y6kvgv4 g.dir, #y6kvgv4 g.dynam, #y6kvgv4 g.mNum {font-style:italic;}#y6kvgv4 g.label {font-weight:normal;}#y6kvgv4 ellipse, #y6kvgv4 path, #y6kvgv4 polygon, #y6kvgv4 polyline, #y6kvgv4 rect {stroke:currentColor}g.harm tspan { font-size: 280px !important; } g.tempo tspan { font-size: 260px !important; } g.label tspan { font-size: 250px !important; }</style>
   <svg class="definition-scale" color="black" viewBox="0 0 15980 8710">
      <g class="page-margin" transform="translate(500, 500)">
         <g id="i16963hs" class="mdiv pageMilestone" />
         <g id="j6addmc" class="score pageMilestone" />
         <g id="l1z0wd6f" class="system">
            <path d="M1816 863 L1816 7171" stroke-width="27" />
            <g id="l12oagpi" class="grpSym">
               <path d="M1731,3365 C1371,2825 1821,2303 1551,2123 C1884,2303 1434,2825 1731,3365" stroke-width="18" stroke-linecap="round" stroke-linejoin="round" />
               <path d="M1731,881 C1434,1421 1884,1943 1551,2123 C1821,1943 1371,1421 1731,881" stroke-width="18" stroke-linecap="round" stroke-linejoin="round" />
            </g>
            <g id="m18jxb89" class="label">
               <text x="1398" y="2213" text-anchor="end" font-size="0px">
                  <tspan id="n48e59k" class="text">
                     <tspan font-size="405px">Rhodes</tspan>
                  </tspan>
               </text>
            </g>
            <g id="j1fcn857" class="grpSym">
               <path d="M1731,7153 C1371,6613 1821,6091 1551,5911 C1884,6091 1434,6613 1731,7153" stroke-width="18" stroke-linecap="round" stroke-linejoin="round" />
               <path d="M1731,4669 C1434,5209 1884,5731 1551,5911 C1821,5731 1371,5209 1731,4669" stroke-width="18" stroke-linecap="round" stroke-linejoin="round" />
            </g>
            <g id="kwjb85e" class="label">
               <text x="1398" y="6001" text-anchor="end" font-size="0px">
                  <tspan id="l13mus3q" class="text">
                     <tspan font-size="405px">Piano</tspan>
                  </tspan>
               </text>
            </g>
            <g id="l18mr99c" class="section systemMilestone" />
            <g id="l1lidb9x" class="measure">
               <g id="u1t3dcsy" class="staff">
                  <path d="M1803 863 L6142 863" stroke-width="13" />
                  <path d="M1803 1043 L6142 1043" stroke-width="13" />
                  <path d="M1803 1223 L6142 1223" stroke-width="13" />
                  <path d="M1803 1403 L6142 1403" stroke-width="13" />
                  <path d="M1803 1583 L6142 1583" stroke-width="13" />
                  <g id="f1rvdd1c" class="clef">
                     <use xlink:href="#E050-y6kvgv4" transform="translate(1920, 1403) scale(0.72, 0.72)" />
                  </g>
                  <g id="g1p13ajk" class="keySig" />
                  <g id="hfmrhi" class="meterSig">
                     <use xlink:href="#E084-y6kvgv4" transform="translate(2587, 1043) scale(0.72, 0.72)" />
                     <use xlink:href="#E084-y6kvgv4" transform="translate(2587, 1403) scale(0.72, 0.72)" />
                  </g>
                  <g class="ledgerLines below">
                     <path d="M3101 1763 L3423 1763" stroke-width="22" />
                     <path d="M5571 1763 L5893 1763" stroke-width="22" />
                     <path d="M3101 1943 L3423 1943" stroke-width="22" />
                     <path d="M5571 1943 L5893 1943" stroke-width="22" />
                  </g>
                  <g id="ak5003o" class="layer">
                     <g id="c1pdnv93" class="chord">
                        <g id="bkxnv68" class="dots">
                           <ellipse cx="3465" cy="1853" rx="36" ry="36" fill-opacity="1" />
                           <ellipse cx="3465" cy="1673" rx="36" ry="36" fill-opacity="1" />
                           <ellipse cx="3465" cy="1493" rx="36" ry="36" fill-opacity="1" />
                        </g>
                        <g id="adgrsrh" class="stem">
                           <path d="M3366 1915 L3366 863" stroke-width="18" />
                        </g>
                        <g id="bsr18rd" class="note">
                           <g class="notehead">
                              <use xlink:href="#E0A3-y6kvgv4" transform="translate(3149, 1943) scale(0.72, 0.72)" />
                           </g>
                        </g>
                        <g id="d8w30df" class="note">
                           <g class="notehead">
                              <use xlink:href="#E0A3-y6kvgv4" transform="translate(3149, 1673) scale(0.72, 0.72)" />
                           </g>
                        </g>
                        <g id="emfvlce" class="note">
                           <g class="notehead">
                              <use xlink:href="#E0A3-y6kvgv4" transform="translate(3149, 1493) scale(0.72, 0.72)" />
                           </g>
                           <g id="f19l0ayp" class="accid" />
                        </g>
                     </g>
                     <g id="gbiyx4k" class="rest">
                        <use xlink:href="#E4E6-y6kvgv4" transform="translate(5169, 1223) scale(0.72, 0.72)" />
                     </g>
                     <g id="iwueryy" class="chord">
                        <g id="cimz2l4" class="stem">
                           <path d="M5836 1915 L5836 863" stroke-width="18" />
                           <g id="d2c0ucu" class="flag">
                              <use xlink:href="#E240-y6kvgv4" transform="translate(5827, 863) scale(0.72, 0.72)" />
                           </g>
                        </g>
                        <g id="h1xn52gy" class="note">
                           <g class="notehead">
                              <use xlink:href="#E0A4-y6kvgv4" transform="translate(5619, 1943) scale(0.72, 0.72)" />
                           </g>
                        </g>
                        <g id="j8l7l4i" class="note">
                           <g class="notehead">
                              <use xlink:href="#E0A4-y6kvgv4" transform="translate(5619, 1763) scale(0.72, 0.72)" />
                           </g>
                           <g id="kamr5h4" class="accid" />
                        </g>
                        <g id="lu9azlm" class="note">
                           <g class="notehead">
                              <use xlink:href="#E0A4-y6kvgv4" transform="translate(5619, 1493) scale(0.72, 0.72)" />
                           </g>
                           <g id="m1vcezk7" class="accid" />
                        </g>
                     </g>
                  </g>
               </g>
               <g id="vbo7oj5" class="staff">
                  <path d="M1803 2663 L6142 2663" stroke-width="13" />
                  <path d="M1803 2843 L6142 2843" stroke-width="13" />
                  <path d="M1803 3023 L6142 3023" stroke-width="13" />
                  <path d="M1803 3203 L6142 3203" stroke-width="13" />
                  <path d="M1803 3383 L6142 3383" stroke-width="13" />
                  <g id="i12aziih" class="clef">
                     <use xlink:href="#E062-y6kvgv4" transform="translate(1920, 2843) scale(0.72, 0.72)" />
                  </g>
                  <g id="jh5g2po" class="keySig" />
                  <g id="k15nzy9c" class="meterSig">
                     <use xlink:href="#E084-y6kvgv4" transform="translate(2587, 2843) scale(0.72, 0.72)" />
                     <use xlink:href="#E084-y6kvgv4" transform="translate(2587, 3203) scale(0.72, 0.72)" />
                  </g>
                  <g id="n1vlvu1m" class="layer">
                     <g id="p1ed8z9n" class="chord">
                        <g id="e15a998o" class="stem">
                           <path d="M3158 2868 L3158 3743" stroke-width="18" />
                        </g>
                        <g id="o1od6a5g" class="note">
                           <g class="notehead">
                              <use xlink:href="#E0A3-y6kvgv4" transform="translate(3149, 3203) scale(0.72, 0.72)" />
                           </g>
                        </g>
                        <g id="q1fkju7b" class="note">
                           <g class="notehead">
                              <use xlink:href="#E0A3-y6kvgv4" transform="translate(3149, 2843) scale(0.72, 0.72)" />
                           </g>
                           <g id="rzajm4" class="accid" />
                        </g>
                     </g>
                     <g id="s4lwoxu" class="rest">
                        <use xlink:href="#E4E5-y6kvgv4" transform="translate(4479, 3023) scale(0.72, 0.72)" />
                        <g id="f1np3bnb" class="dots">
                           <ellipse cx="4788" cy="2933" rx="36" ry="36" fill-opacity="1" />
                        </g>
                     </g>
                     <g id="ugejrcu" class="chord">
                        <g id="g18ucuy0" class="stem">
                           <path d="M5628 2691 L5628 3623" stroke-width="18" />
                           <g id="h17hvnda" class="flag">
                              <use xlink:href="#E241-y6kvgv4" transform="translate(5619, 3623) scale(0.72, 0.72)" />
                           </g>
                        </g>
                        <g id="twgkq4b" class="note">
                           <g class="notehead">
                              <use xlink:href="#E0A4-y6kvgv4" transform="translate(5619, 3023) scale(0.72, 0.72)" />
                           </g>
                        </g>
                        <g id="v318atx" class="note">
                           <g class="notehead">
                              <use xlink:href="#E0A4-y6kvgv4" transform="translate(5619, 2663) scale(0.72, 0.72)" />
                           </g>
                        </g>
                     </g>
                  </g>
               </g>
               <g id="h18oeycz" class="staff">
                  <path d="M1803 4651 L6142 4651" stroke-width="13" />
                  <path d="M1803 4831 L6142 4831" stroke-width="13" />
                  <path d="M1803 5011 L6142 5011" stroke-width="13" />
                  <path d="M1803 5191 L6142 5191" stroke-width="13" />
                  <path d="M1803 5371 L6142 5371" stroke-width="13" />
                  <g id="l1bglrph" class="clef">
                     <use xlink:href="#E050-y6kvgv4" transform="translate(1920, 5191) scale(0.72, 0.72)" />
                  </g>
                  <g id="m1xk5trh" class="keySig" />
                  <g id="n7ubjny" class="meterSig">
                     <use xlink:href="#E084-y6kvgv4" transform="translate(2587, 4831) scale(0.72, 0.72)" />
                     <use xlink:href="#E084-y6kvgv4" transform="translate(2587, 5191) scale(0.72, 0.72)" />
                  </g>
                  <g id="n1ggk21o" class="layer">
                     <g id="ovg8pxs" class="rest">
                        <use xlink:href="#E4E5-y6kvgv4" transform="translate(3149, 5011) scale(0.72, 0.72)" />
                        <g id="itdya8w" class="dots">
                           <ellipse cx="3458" cy="4921" rx="36" ry="36" fill-opacity="1" />
                        </g>
                     </g>
                     <g id="q1vax6da" class="chord">
                        <g id="jclmyvs" class="stem">
                           <path d="M4038 4679 L4038 5461" stroke-width="18" />
                           <g id="ke06d3g" class="flag">
                              <use xlink:href="#E241-y6kvgv4" transform="translate(4029, 5461) scale(0.72, 0.72)" />
                           </g>
                        </g>
                        <g id="p1v55kzw" class="note">
                           <g class="notehead">
                              <use xlink:href="#E0A4-y6kvgv4" transform="translate(4029, 4831) scale(0.72, 0.72)" />
                           </g>
                        </g>
                        <g id="relm1rc" class="note">
                           <g class="notehead">
                              <use xlink:href="#E0A4-y6kvgv4" transform="translate(4029, 4651) scale(0.72, 0.72)" />
                           </g>
                           <g id="s1mz4b18" class="accid" />
                        </g>
                     </g>
                     <g id="t69921y" class="rest">
                        <use xlink:href="#E4E4-y6kvgv4" transform="translate(4479, 5011) scale(0.72, 0.72)" />
                        <g class="ledgerLines" />
                     </g>
                  </g>
               </g>
               <g id="icd2yyf" class="staff">
                  <path d="M1803 6451 L6142 6451" stroke-width="13" />
                  <path d="M1803 6631 L6142 6631" stroke-width="13" />
                  <path d="M1803 6811 L6142 6811" stroke-width="13" />
                  <path d="M1803 6991 L6142 6991" stroke-width="13" />
                  <path d="M1803 7171 L6142 7171" stroke-width="13" />
                  <g id="ovuv97e" class="clef">
                     <use xlink:href="#E062-y6kvgv4" transform="translate(1920, 6631) scale(0.72, 0.72)" />
                  </g>
                  <g id="p1x79cux" class="keySig" />
                  <g id="qd9l6k9" class="meterSig">
                     <use xlink:href="#E084-y6kvgv4" transform="translate(2587, 6631) scale(0.72, 0.72)" />
                     <use xlink:href="#E084-y6kvgv4" transform="translate(2587, 6991) scale(0.72, 0.72)" />
                  </g>
                  <g id="u6ev0lo" class="layer">
                     <g id="v1rq6elx" class="mRest">
                        <use xlink:href="#E4E3-y6kvgv4" transform="translate(4434, 6631) scale(0.72, 0.72)" />
                     </g>
                  </g>
               </g>
               <g id="wy3jhaq" class="tempo" xml:lang="it">
                  <text x="2587" y="726" font-size="0px">
                     <tspan id="x125kjqa" class="text">
                        <tspan font-size="405px">♩ = 110</tspan>
                     </tspan>
                  </text>
               </g>
               <g id="yxo5nf8" class="harm">
                  <text x="3149" y="269" font-size="0px">
                     <tspan id="z1gx6125" class="text">
                        <tspan font-size="405px" x="3149" y="269">Bm7</tspan>
                     </tspan>
                  </text>
               </g>
               <g id="jcbcbyd" class="tempo" xml:lang="it">
                  <text x="2587" y="4523" font-size="0px">
                     <tspan id="kspjqoz" class="text">
                        <tspan font-size="405px">♩ = 110</tspan>
                     </tspan>
                  </text>
               </g>
               <g id="l1qwnagr" class="harm">
                  <text x="3149" y="4066" font-size="0px">
                     <tspan id="m176ci0z" class="text">
                        <tspan font-size="405px" x="3149" y="4066">Bm7</tspan>
                     </tspan>
                  </text>
               </g>
               <g id="t17vpx6h" class="barLine">
                  <path d="M6129 863 L6129 1583" stroke-width="27" />
                  <path d="M6129 2663 L6129 3383" stroke-width="27" />
                  <path d="M6129 1583 L6129 2663" stroke-width="27" />
                  <path d="M6129 4651 L6129 5371" stroke-width="27" />
                  <path d="M6129 6451 L6129 7171" stroke-width="27" />
                  <path d="M6129 5371 L6129 6451" stroke-width="27" />
               </g>
            </g>
            <g id="w1ktuk31" class="measure">
               <g id="fwwdr9s" class="staff">
                  <path d="M6142 863 L8975 863" stroke-width="13" />
                  <path d="M6142 1043 L8975 1043" stroke-width="13" />
                  <path d="M6142 1223 L8975 1223" stroke-width="13" />
                  <path d="M6142 1403 L8975 1403" stroke-width="13" />
                  <path d="M6142 1583 L8975 1583" stroke-width="13" />
                  <g class="ledgerLines below">
                     <path d="M6274 1763 L6596 1763" stroke-width="22" />
                     <path d="M6274 1943 L6596 1943" stroke-width="22" />
                  </g>
                  <g id="hlepr37" class="layer">
                     <g id="j1l25qt5" class="chord">
                        <g id="m16oqj70" class="dots">
                           <ellipse cx="6638" cy="1853" rx="36" ry="36" fill-opacity="1" />
                           <ellipse cx="6638" cy="1673" rx="36" ry="36" fill-opacity="1" />
                           <ellipse cx="6638" cy="1493" rx="36" ry="36" fill-opacity="1" />
                        </g>
                        <g id="lso2zh9" class="stem">
                           <path d="M6539 1915 L6539 863" stroke-width="18" />
                        </g>
                        <g id="i144zun1" class="note">
                           <g class="notehead">
                              <use xlink:href="#E0A3-y6kvgv4" transform="translate(6322, 1943) scale(0.72, 0.72)" />
                           </g>
                        </g>
                        <g id="k1hju34b" class="note">
                           <g class="notehead">
                              <use xlink:href="#E0A3-y6kvgv4" transform="translate(6322, 1763) scale(0.72, 0.72)" />
                           </g>
                           <g id="lnsaat" class="accid" />
                        </g>
                        <g id="m1p924rb" class="note">
                           <g class="notehead">
                              <use xlink:href="#E0A3-y6kvgv4" transform="translate(6322, 1493) scale(0.72, 0.72)" />
                           </g>
                           <g id="n1v3v6yt" class="accid" />
                        </g>
                     </g>
                     <g id="o1ivrfc5" class="rest">
                        <use xlink:href="#E4E5-y6kvgv4" transform="translate(8272, 1223) scale(0.72, 0.72)" />
                     </g>
                  </g>
               </g>
               <g id="glmdg4o" class="staff">
                  <path d="M6142 2663 L8975 2663" stroke-width="13" />
                  <path d="M6142 2843 L8975 2843" stroke-width="13" />
                  <path d="M6142 3023 L8975 3023" stroke-width="13" />
                  <path d="M6142 3203 L8975 3203" stroke-width="13" />
                  <path d="M6142 3383 L8975 3383" stroke-width="13" />
                  <g id="p12tybwu" class="layer">
                     <g id="r1cun9pn" class="chord">
                        <g id="n17rrqu5" class="stem">
                           <path d="M6331 2688 L6331 3623" stroke-width="18" />
                        </g>
                        <g id="qbyyy7c" class="note">
                           <g class="notehead">
                              <use xlink:href="#E0A3-y6kvgv4" transform="translate(6322, 3023) scale(0.72, 0.72)" />
                           </g>
                        </g>
                        <g id="suqmkhx" class="note">
                           <g class="notehead">
                              <use xlink:href="#E0A3-y6kvgv4" transform="translate(6322, 2663) scale(0.72, 0.72)" />
                           </g>
                        </g>
                     </g>
                     <g id="t1hhcx0v" class="rest">
                        <use xlink:href="#E4E4-y6kvgv4" transform="translate(7372, 3023) scale(0.72, 0.72)" />
                        <g class="ledgerLines" />
                     </g>
                  </g>
               </g>
               <g id="f4pnb7k" class="staff">
                  <path d="M6142 4651 L8975 4651" stroke-width="13" />
                  <path d="M6142 4831 L8975 4831" stroke-width="13" />
                  <path d="M6142 5011 L8975 5011" stroke-width="13" />
                  <path d="M6142 5191 L8975 5191" stroke-width="13" />
                  <path d="M6142 5371 L8975 5371" stroke-width="13" />
                  <g id="h1qwyer0" class="layer">
                     <g id="i13ngcf6" class="rest">
                        <use xlink:href="#E4E4-y6kvgv4" transform="translate(6322, 5011) scale(0.72, 0.72)" />
                        <g class="ledgerLines" />
                     </g>
                     <g id="j1xqlh5a" class="rest">
                        <use xlink:href="#E4E6-y6kvgv4" transform="translate(7372, 5011) scale(0.72, 0.72)" />
                     </g>
                     <g id="mvxbm2e" class="chord">
                        <g id="o1rqpsi" class="stem">
                           <path d="M7831 4679 L7831 5551" stroke-width="18" />
                           <g id="pqqe4nx" class="flag">
                              <use xlink:href="#E241-y6kvgv4" transform="translate(7822, 5551) scale(0.72, 0.72)" />
                           </g>
                        </g>
                        <g id="kf57hyr" class="note">
                           <g class="notehead">
                              <use xlink:href="#E0A4-y6kvgv4" transform="translate(7822, 4921) scale(0.72, 0.72)" />
                           </g>
                           <g id="l12z4wja" class="accid" />
                        </g>
                        <g id="n15ojvv7" class="note">
                           <g class="notehead">
                              <use xlink:href="#E0A4-y6kvgv4" transform="translate(7822, 4651) scale(0.72, 0.72)" />
                           </g>
                           <g id="o1oufkgn" class="accid" />
                        </g>
                     </g>
                     <g id="p1v2u1wq" class="rest">
                        <use xlink:href="#E4E5-y6kvgv4" transform="translate(8272, 5011) scale(0.72, 0.72)" />
                     </g>
                  </g>
               </g>
               <g id="gaw1mzf" class="staff">
                  <path d="M6142 6451 L8975 6451" stroke-width="13" />
                  <path d="M6142 6631 L8975 6631" stroke-width="13" />
                  <path d="M6142 6811 L8975 6811" stroke-width="13" />
                  <path d="M6142 6991 L8975 6991" stroke-width="13" />
                  <path d="M6142 7171 L8975 7171" stroke-width="13" />
                  <g id="q10otkb0" class="layer">
                     <g id="r1flu2dd" class="mRest">
                        <use xlink:href="#E4E3-y6kvgv4" transform="translate(7437, 6631) scale(0.72, 0.72)" />
                     </g>
                  </g>
               </g>
               <g id="e1qyfhbg" class="barLine">
                  <path d="M8962 863 L8962 1583" stroke-width="27" />
                  <path d="M8962 2663 L8962 3383" stroke-width="27" />
                  <path d="M8962 1583 L8962 2663" stroke-width="27" />
                  <path d="M8962 4651 L8962 5371" stroke-width="27" />
                  <path d="M8962 6451 L8962 7171" stroke-width="27" />
                  <path d="M8962 5371 L8962 6451" stroke-width="27" />
               </g>
            </g>
            <g id="u4pm8d7" class="measure">
               <g id="d12xgq7l" class="staff">
                  <path d="M8975 863 L12148 863" stroke-width="13" />
                  <path d="M8975 1043 L12148 1043" stroke-width="13" />
                  <path d="M8975 1223 L12148 1223" stroke-width="13" />
                  <path d="M8975 1403 L12148 1403" stroke-width="13" />
                  <path d="M8975 1583 L12148 1583" stroke-width="13" />
                  <g class="ledgerLines below">
                     <path d="M9107 1763 L9429 1763" stroke-width="22" />
                     <path d="M11577 1763 L11899 1763" stroke-width="22" />
                     <path d="M9107 1943 L9429 1943" stroke-width="22" />
                     <path d="M11577 1943 L11899 1943" stroke-width="22" />
                  </g>
                  <g id="f1gxr0p2" class="layer">
                     <g id="hzzzcnr" class="chord">
                        <g id="rkfxc2l" class="dots">
                           <ellipse cx="9471" cy="1853" rx="36" ry="36" fill-opacity="1" />
                           <ellipse cx="9471" cy="1673" rx="36" ry="36" fill-opacity="1" />
                           <ellipse cx="9471" cy="1493" rx="36" ry="36" fill-opacity="1" />
                        </g>
                        <g id="qn4gqgk" class="stem">
                           <path d="M9372 1915 L9372 953" stroke-width="18" />
                        </g>
                        <g id="gexyz1c" class="note">
                           <g class="notehead">
                              <use xlink:href="#E0A3-y6kvgv4" transform="translate(9155, 1943) scale(0.72, 0.72)" />
                           </g>
                        </g>
                        <g id="i1mgwwc4" class="note">
                           <g class="notehead">
                              <use xlink:href="#E0A3-y6kvgv4" transform="translate(9155, 1763) scale(0.72, 0.72)" />
                           </g>
                           <g id="j69jcvx" class="accid" />
                        </g>
                        <g id="kbwk6ht" class="note">
                           <g class="notehead">
                              <use xlink:href="#E0A3-y6kvgv4" transform="translate(9155, 1583) scale(0.72, 0.72)" />
                           </g>
                        </g>
                     </g>
                     <g id="l1bdj95s" class="rest">
                        <use xlink:href="#E4E6-y6kvgv4" transform="translate(11175, 1223) scale(0.72, 0.72)" />
                     </g>
                     <g id="oejdk31" class="chord">
                        <g id="s1r70yfo" class="stem">
                           <path d="M11842 2005 L11842 863" stroke-width="18" />
                           <g id="t1lrsqzn" class="flag">
                              <use xlink:href="#E240-y6kvgv4" transform="translate(11833, 863) scale(0.72, 0.72)" />
                           </g>
                        </g>
                        <g id="m11vebzr" class="note">
                           <g class="notehead">
                              <use xlink:href="#E0A4-y6kvgv4" transform="translate(11625, 2033) scale(0.72, 0.72)" />
                           </g>
                           <g id="nao2v61" class="accid" />
                        </g>
                        <g id="p1tjgs3q" class="note">
                           <g class="notehead">
                              <use xlink:href="#E0A4-y6kvgv4" transform="translate(11625, 1673) scale(0.72, 0.72)" />
                           </g>
                        </g>
                        <g id="q10fd3cv" class="note">
                           <g class="notehead">
                              <use xlink:href="#E0A4-y6kvgv4" transform="translate(11625, 1493) scale(0.72, 0.72)" />
                           </g>
                           <g id="rghpvqo" class="accid" />
                        </g>
                     </g>
                  </g>
               </g>
               <g id="elzx683" class="staff">
                  <path d="M8975 2663 L12148 2663" stroke-width="13" />
                  <path d="M8975 2843 L12148 2843" stroke-width="13" />
                  <path d="M8975 3023 L12148 3023" stroke-width="13" />
                  <path d="M8975 3203 L12148 3203" stroke-width="13" />
                  <path d="M8975 3383 L12148 3383" stroke-width="13" />
                  <g class="ledgerLines below">
                     <path d="M11577 3563 L11899 3563" stroke-width="22" />
                  </g>
                  <g id="si9pcwv" class="layer">
                     <g id="v1e9tkme" class="chord">
                        <g id="u15g0oa4" class="stem">
                           <path d="M9372 3445 L9372 2483" stroke-width="18" />
                        </g>
                        <g id="t9t9hw8" class="note">
                           <g class="notehead">
                              <use xlink:href="#E0A3-y6kvgv4" transform="translate(9155, 3473) scale(0.72, 0.72)" />
                           </g>
                           <g id="u5gf61" class="accid" />
                        </g>
                        <g id="wxvly2g" class="note">
                           <g class="notehead">
                              <use xlink:href="#E0A3-y6kvgv4" transform="translate(9155, 3113) scale(0.72, 0.72)" />
                           </g>
                           <g id="x1lynqbt" class="accid" />
                        </g>
                     </g>
                     <g id="yjyrxgd" class="rest">
                        <use xlink:href="#E4E5-y6kvgv4" transform="translate(10485, 3023) scale(0.72, 0.72)" />
                        <g id="v11yxlsj" class="dots">
                           <ellipse cx="10794" cy="2933" rx="36" ry="36" fill-opacity="1" />
                        </g>
                     </g>
                     <g id="ao53gst" class="chord">
                        <g id="w171k8do" class="stem">
                           <path d="M11842 3535 L11842 2573" stroke-width="18" />
                           <g id="xym1bu8" class="flag">
                              <use xlink:href="#E240-y6kvgv4" transform="translate(11833, 2573) scale(0.72, 0.72)" />
                           </g>
                        </g>
                        <g id="zto47it" class="note">
                           <g class="notehead">
                              <use xlink:href="#E0A4-y6kvgv4" transform="translate(11625, 3563) scale(0.72, 0.72)" />
                           </g>
                        </g>
                        <g id="b1thy8jv" class="note">
                           <g class="notehead">
                              <use xlink:href="#E0A4-y6kvgv4" transform="translate(11625, 3203) scale(0.72, 0.72)" />
                           </g>
                        </g>
                     </g>
                  </g>
               </g>
               <g id="b5slz92" class="staff">
                  <path d="M8975 4651 L12148 4651" stroke-width="13" />
                  <path d="M8975 4831 L12148 4831" stroke-width="13" />
                  <path d="M8975 5011 L12148 5011" stroke-width="13" />
                  <path d="M8975 5191 L12148 5191" stroke-width="13" />
                  <path d="M8975 5371 L12148 5371" stroke-width="13" />
                  <g id="deiprt4" class="layer">
                     <g id="e1bdvugc" class="rest">
                        <use xlink:href="#E4E5-y6kvgv4" transform="translate(9155, 5011) scale(0.72, 0.72)" />
                        <g id="ylb3a9z" class="dots">
                           <ellipse cx="9464" cy="4921" rx="36" ry="36" fill-opacity="1" />
                        </g>
                     </g>
                     <g id="h1g4prcr" class="chord">
                        <g id="z1ojr5cc" class="stem">
                           <path d="M10044 4769 L10044 5551" stroke-width="18" />
                           <g id="aomrfj9" class="flag">
                              <use xlink:href="#E241-y6kvgv4" transform="translate(10035, 5551) scale(0.72, 0.72)" />
                           </g>
                        </g>
                        <g id="fhwklha" class="note">
                           <g class="notehead">
                              <use xlink:href="#E0A4-y6kvgv4" transform="translate(10035, 4921) scale(0.72, 0.72)" />
                           </g>
                           <g id="gcog7xn" class="accid" />
                        </g>
                        <g id="im3xr7i" class="note">
                           <g class="notehead">
                              <use xlink:href="#E0A4-y6kvgv4" transform="translate(10035, 4741) scale(0.72, 0.72)" />
                           </g>
                        </g>
                     </g>
                     <g id="j14tjhsg" class="rest">
                        <use xlink:href="#E4E4-y6kvgv4" transform="translate(10485, 5011) scale(0.72, 0.72)" />
                        <g class="ledgerLines" />
                     </g>
                  </g>
               </g>
               <g id="c1diw9ty" class="staff">
                  <path d="M8975 6451 L12148 6451" stroke-width="13" />
                  <path d="M8975 6631 L12148 6631" stroke-width="13" />
                  <path d="M8975 6811 L12148 6811" stroke-width="13" />
                  <path d="M8975 6991 L12148 6991" stroke-width="13" />
                  <path d="M8975 7171 L12148 7171" stroke-width="13" />
                  <g id="k17u8g7c" class="layer">
                     <g id="l1djo51a" class="mRest">
                        <use xlink:href="#E4E3-y6kvgv4" transform="translate(10440, 6631) scale(0.72, 0.72)" />
                     </g>
                  </g>
               </g>
               <g id="cixyyjj" class="barLine">
                  <path d="M12135 863 L12135 1583" stroke-width="27" />
                  <path d="M12135 2663 L12135 3383" stroke-width="27" />
                  <path d="M12135 1583 L12135 2663" stroke-width="27" />
                  <path d="M12135 4651 L12135 5371" stroke-width="27" />
                  <path d="M12135 6451 L12135 7171" stroke-width="27" />
                  <path d="M12135 5371 L12135 6451" stroke-width="27" />
               </g>
            </g>
            <g id="cli3351" class="measure">
               <g id="l1xmhcad" class="staff">
                  <path d="M12148 863 L14981 863" stroke-width="13" />
                  <path d="M12148 1043 L14981 1043" stroke-width="13" />
                  <path d="M12148 1223 L14981 1223" stroke-width="13" />
                  <path d="M12148 1403 L14981 1403" stroke-width="13" />
                  <path d="M12148 1583 L14981 1583" stroke-width="13" />
                  <g class="ledgerLines below">
                     <path d="M12280 1763 L12602 1763" stroke-width="22" />
                     <path d="M12280 1943 L12602 1943" stroke-width="22" />
                  </g>
                  <g id="n8rmrdw" class="layer">
                     <g id="qbxvgej" class="chord">
                        <g id="coa9zzp" class="dots">
                           <ellipse cx="12644" cy="2033" rx="36" ry="36" fill-opacity="1" />
                           <ellipse cx="12644" cy="1673" rx="36" ry="36" fill-opacity="1" />
                           <ellipse cx="12644" cy="1493" rx="36" ry="36" fill-opacity="1" />
                        </g>
                        <g id="b1ngg1ut" class="stem">
                           <path d="M12545 2005 L12545 863" stroke-width="18" />
                        </g>
                        <g id="oht4zf9" class="note">
                           <g class="notehead">
                              <use xlink:href="#E0A3-y6kvgv4" transform="translate(12328, 2033) scale(0.72, 0.72)" />
                           </g>
                           <g id="p13h26gx" class="accid" />
                        </g>
                        <g id="rge1v3c" class="note">
                           <g class="notehead">
                              <use xlink:href="#E0A3-y6kvgv4" transform="translate(12328, 1673) scale(0.72, 0.72)" />
                           </g>
                        </g>
                        <g id="sahcd1m" class="note">
                           <g class="notehead">
                              <use xlink:href="#E0A3-y6kvgv4" transform="translate(12328, 1493) scale(0.72, 0.72)" />
                           </g>
                           <g id="t1ynaxwg" class="accid" />
                        </g>
                     </g>
                     <g id="u1ucqa1k" class="rest">
                        <use xlink:href="#E4E5-y6kvgv4" transform="translate(14278, 1223) scale(0.72, 0.72)" />
                     </g>
                  </g>
               </g>
               <g id="m1wo7hsg" class="staff">
                  <path d="M12148 2663 L14981 2663" stroke-width="13" />
                  <path d="M12148 2843 L14981 2843" stroke-width="13" />
                  <path d="M12148 3023 L14981 3023" stroke-width="13" />
                  <path d="M12148 3203 L14981 3203" stroke-width="13" />
                  <path d="M12148 3383 L14981 3383" stroke-width="13" />
                  <g class="ledgerLines below">
                     <path d="M12280 3563 L12602 3563" stroke-width="22" />
                  </g>
                  <g id="v1pk9u04" class="layer">
                     <g id="xsdhym7" class="chord">
                        <g id="d104qe89" class="stem">
                           <path d="M12545 3535 L12545 2573" stroke-width="18" />
                        </g>
                        <g id="w1qx1cvl" class="note">
                           <g class="notehead">
                              <use xlink:href="#E0A3-y6kvgv4" transform="translate(12328, 3563) scale(0.72, 0.72)" />
                           </g>
                        </g>
                        <g id="ykcq6c9" class="note">
                           <g class="notehead">
                              <use xlink:href="#E0A3-y6kvgv4" transform="translate(12328, 3203) scale(0.72, 0.72)" />
                           </g>
                        </g>
                     </g>
                     <g id="zngejqg" class="rest">
                        <use xlink:href="#E4E4-y6kvgv4" transform="translate(13378, 3023) scale(0.72, 0.72)" />
                        <g class="ledgerLines" />
                     </g>
                  </g>
               </g>
               <g id="v1kq5bvx" class="staff">
                  <path d="M12148 4651 L14981 4651" stroke-width="13" />
                  <path d="M12148 4831 L14981 4831" stroke-width="13" />
                  <path d="M12148 5011 L14981 5011" stroke-width="13" />
                  <path d="M12148 5191 L14981 5191" stroke-width="13" />
                  <path d="M12148 5371 L14981 5371" stroke-width="13" />
                  <g id="x18gob04" class="layer">
                     <g id="y1j9b1zk" class="rest">
                        <use xlink:href="#E4E4-y6kvgv4" transform="translate(12328, 5011) scale(0.72, 0.72)" />
                        <g class="ledgerLines" />
                     </g>
                     <g id="z1qu0rhd" class="rest">
                        <use xlink:href="#E4E6-y6kvgv4" transform="translate(13378, 5011) scale(0.72, 0.72)" />
                     </g>
                     <g id="b1ospzhz" class="chord">
                        <g id="e4ivkin" class="stem">
                           <path d="M13837 4679 L13837 5461" stroke-width="18" />
                           <g id="f1ju506o" class="flag">
                              <use xlink:href="#E241-y6kvgv4" transform="translate(13828, 5461) scale(0.72, 0.72)" />
                           </g>
                        </g>
                        <g id="ay4dkkr" class="note">
                           <g class="notehead">
                              <use xlink:href="#E0A4-y6kvgv4" transform="translate(13828, 4831) scale(0.72, 0.72)" />
                           </g>
                        </g>
                        <g id="c1i4k7tx" class="note">
                           <g class="notehead">
                              <use xlink:href="#E0A4-y6kvgv4" transform="translate(13828, 4651) scale(0.72, 0.72)" />
                           </g>
                           <g id="d156gh1z" class="accid" />
                        </g>
                     </g>
                     <g id="e6u21q3" class="rest">
                        <use xlink:href="#E4E5-y6kvgv4" transform="translate(14278, 5011) scale(0.72, 0.72)" />
                     </g>
                  </g>
               </g>
               <g id="wuwpy7x" class="staff">
                  <path d="M12148 6451 L14981 6451" stroke-width="13" />
                  <path d="M12148 6631 L14981 6631" stroke-width="13" />
                  <path d="M12148 6811 L14981 6811" stroke-width="13" />
                  <path d="M12148 6991 L14981 6991" stroke-width="13" />
                  <path d="M12148 7171 L14981 7171" stroke-width="13" />
                  <g id="fpa2cex" class="layer">
                     <g id="g17zh9ni" class="mRest">
                        <use xlink:href="#E4E3-y6kvgv4" transform="translate(13443, 6631) scale(0.72, 0.72)" />
                     </g>
                  </g>
               </g>
               <g id="k7mopdn" class="barLine">
                  <path d="M14968 863 L14968 1583" stroke-width="27" />
                  <path d="M14968 2663 L14968 3383" stroke-width="27" />
                  <path d="M14968 1583 L14968 2663" stroke-width="27" />
                  <path d="M14968 4651 L14968 5371" stroke-width="27" />
                  <path d="M14968 6451 L14968 7171" stroke-width="27" />
                  <path d="M14968 5371 L14968 6451" stroke-width="27" />
               </g>
            </g>
            <g id="oomasl3" class="systemMilestoneEnd l18mr99c" />
         </g>
         <g id="pztzpgm" class="pageMilestoneEnd j6addmc" />
         <g id="q2am7p5" class="pageMilestoneEnd i16963hs" />
      </g>
   </svg>
</svg>
