<svg width="409px" height="1004px" version="1.1" xmlns="http://www.w3.org/2000/svg" xmlns:xlink="http://www.w3.org/1999/xlink" overflow="visible" id="d5fwv8e">
   <desc>Engraved by Verovio 5.7.0-7135340</desc>
   <defs>
      <g id="E050-d5fwv8e">
         <path transform="scale(1,-1)" d="M441 -245c-23 -4 -48 -6 -76 -6c-59 0 -102 7 -130 20c-88 42 -150 93 -187 154c-26 44 -43 103 -48 176c0 6 -1 13 -1 19c0 54 15 111 45 170c29 57 65 106 110 148s96 85 153 127c-3 16 -8 46 -13 92c-4 43 -5 73 -5 89c0 117 16 172 69 257c34 54 64 82 89 82 c21 0 43 -30 69 -92s39 -115 41 -159v-15c0 -109 -21 -162 -67 -241c-13 -20 -63 -90 -98 -118c-13 -9 -25 -19 -37 -29l31 -181c8 1 18 2 28 2c58 0 102 -12 133 -35c59 -43 92 -104 98 -184c1 -7 1 -15 1 -22c0 -123 -87 -209 -181 -248c8 -57 17 -110 25 -162 c5 -31 6 -58 6 -80c0 -30 -5 -53 -14 -70c-35 -64 -88 -99 -158 -103c-5 0 -11 -1 -16 -1c-37 0 -72 10 -108 27c-50 24 -77 59 -80 105v11c0 29 7 55 20 76c18 28 45 42 79 44h6c49 0 93 -42 97 -87v-9c0 -51 -34 -86 -105 -106c17 -24 51 -36 102 -36c62 0 116 43 140 85 c9 16 13 41 13 74c0 20 -1 42 -5 67c-8 53 -18 106 -26 159zM461 939c-95 0 -135 -175 -135 -286c0 -24 2 -48 5 -71c50 39 92 82 127 128c40 53 60 100 60 140v8c-4 53 -22 81 -55 81h-2zM406 119l54 -326c73 25 110 78 110 161c0 7 0 15 -1 23c-7 95 -57 142 -151 142h-12 zM382 117c-72 -2 -128 -47 -128 -120v-7c2 -46 43 -99 75 -115c-3 -2 -7 -5 -10 -10c-70 33 -116 88 -123 172v11c0 68 44 126 88 159c23 17 49 29 78 36l-29 170c-21 -13 -52 -37 -92 -73c-50 -44 -86 -84 -109 -119c-45 -69 -67 -130 -67 -182v-13c5 -68 35 -127 93 -176 s125 -73 203 -73c25 0 50 3 75 9c-19 111 -36 221 -54 331z" />
      </g>
      <g id="E084-d5fwv8e">
         <path transform="scale(1,-1)" d="M20 -78c84 97 114 180 134 329h170c-13 -32 -82 -132 -99 -151l-84 -97c-33 -36 -59 -63 -80 -81h162v102l127 123v-225h57v-39h-57v-34c0 -43 19 -65 57 -65v-34h-244v36c48 0 60 26 60 70v27h-203v39z" />
      </g>
      <g id="E0A2-d5fwv8e">
         <path transform="scale(1,-1)" d="M198 133c102 0 207 -45 207 -133c0 -92 -118 -133 -227 -133c-101 0 -178 46 -178 133c0 88 93 133 198 133zM293 -21c0 14 -3 29 -8 44c-7 20 -18 38 -33 54c-20 21 -43 31 -68 31l-20 -2c-15 -5 -27 -14 -36 -28c-4 -9 -6 -17 -8 -24s-3 -16 -3 -27c0 -15 3 -34 9 -57 s18 -41 34 -55c15 -15 36 -23 62 -23c4 0 10 1 18 2c19 5 32 15 40 30s13 34 13 55z" />
      </g>
      <g id="E062-d5fwv8e">
         <path transform="scale(1,-1)" d="M582 -120c0 32 26 58 58 58s58 -26 58 -58s-26 -58 -58 -58s-58 26 -58 58zM582 120c0 32 26 58 58 58s58 -26 58 -58s-26 -58 -58 -58s-58 26 -58 58zM158 96c51 0 73 -14 88 -49l16 -39c0 -17 -2 -30 -7 -40c-3 -11 -10 -21 -19 -31c-17 -18 -49 -43 -84 -43 c-55 0 -77 13 -112 44c-24 21 -35 55 -35 100c0 46 14 81 32 112c30 52 71 79 137 93l36 6l26 2c154 0 235 -68 274 -182c11 -32 18 -68 18 -107c0 -103 -26 -182 -68 -250c-89 -145 -234 -230 -412 -288l-30 -5c-9 0 -14 3 -14 8c3 10 5 11 10 16c35 15 70 30 96 44l78 43 c96 57 162 136 197 258c9 33 17 60 22 100c3 22 5 35 6 39c-7 69 -16 115 -23 140s-4 22 -16 40c-8 12 -19 23 -31 34c-24 21 -62 44 -118 44c-48 0 -84 -8 -113 -28c-28 -19 -42 -44 -42 -73v-16c2 -5 3 -9 4 -11c24 22 52 39 84 39z" />
      </g>
      <g id="E06D-d5fwv8e">
         <path transform="scale(1,-1)" d="M18 697v53h369v-53h-154v-418h-60v418h-155zM111 -94l-50 -141h-64l168 470h78l165 -470h-67l-49 141h-181zM276 -43l-73 214l-77 -214h150zM27 -750v471h191c89 0 139 -51 139 -120c0 -47 -22 -82 -65 -102c60 -23 86 -58 86 -114c0 -78 -54 -135 -139 -135h-212z M203 -332h-116v-150h116c67 0 94 27 94 75s-27 75 -94 75zM234 -535h-147v-162h147c56 0 84 36 84 81c0 46 -28 81 -84 81z" />
      </g>
   </defs>
   <style type="text/css">#d5fwv8e g.page-margin {font-family:Times,serif;}#d5fwv8e g.ending, #d5fwv8e g.fing, #d5fwv8e g.reh, #d5fwv8e g.tempo {font-weight:bold;}#d5fwv8e g.dir, #d5fwv8e g.dynam, #d5fwv8e g.mNum {font-style:italic;}#d5fwv8e g.label {font-weight:normal;}#d5fwv8e ellipse, #d5fwv8e path, #d5fwv8e polygon, #d5fwv8e polyline, #d5fwv8e rect {stroke:currentColor}g.harm tspan { font-size: 280px !important; } g.tempo tspan { font-size: 260px !important; } g.label tspan { font-size: 250px !important; }</style>
   <svg class="definition-scale" color="black" viewBox="0 0 9080 22290">
      <g class="page-margin" transform="translate(500, 500)">
         <g id="nfb8hmk" class="mdiv pageMilestone" />
         <g id="o1djte62" class="score pageMilestone" />
         <g id="m14oafqq" class="system">
            <path d="M4715 863 L4715 20754" stroke-width="27" />
            <g id="yr4u433" class="grpSym">
               <path d="M4630,3365 C4270,2825 4720,2303 4450,2123 C4783,2303 4333,2825 4630,3365" stroke-width="18" stroke-linecap="round" stroke-linejoin="round" />
               <path d="M4630,881 C4333,1421 4783,1943 4450,2123 C4720,1943 4270,1421 4630,881" stroke-width="18" stroke-linecap="round" stroke-linejoin="round" />
            </g>
            <g id="znim07n" class="label">
               <text x="4297" y="2213" text-anchor="end" font-size="0px">
                  <tspan id="a1um17yv" class="text">
                     <tspan font-size="405px">Piano</tspan>
                  </tspan>
               </text>
            </g>
            <g id="s1m81bvo" class="grpSym">
               <path d="M4630,16107 C4270,15567 4720,14215 4450,14035 C4783,14215 4333,15567 4630,16107" stroke-width="18" stroke-linecap="round" stroke-linejoin="round" />
               <path d="M4630,11964 C4333,12504 4783,13855 4450,14035 C4720,13855 4270,12504 4630,11964" stroke-width="18" stroke-linecap="round" stroke-linejoin="round" />
            </g>
            <g id="tonwi0g" class="label">
               <text x="4297" y="14126" text-anchor="end" font-size="0px">
                  <tspan id="u1rsu6f9" class="text">
                     <tspan font-size="405px">Guitar</tspan>
                  </tspan>
               </text>
            </g>
            <g id="x17alvxt" class="grpSym">
               <path d="M4630,20736 C4270,20196 4720,19159 4450,18979 C4783,19159 4333,20196 4630,20736" stroke-width="18" stroke-linecap="round" stroke-linejoin="round" />
               <path d="M4630,17223 C4333,17763 4783,18799 4450,18979 C4720,18799 4270,17763 4630,17223" stroke-width="18" stroke-linecap="round" stroke-linejoin="round" />
            </g>
            <g id="y17g7rif" class="label">
               <text x="4297" y="19070" text-anchor="end" font-size="0px">
                  <tspan id="z3t540l" class="text">
                     <tspan font-size="405px">Bass Guitar</tspan>
                  </tspan>
               </text>
            </g>
            <g id="w17h4p11" class="label">
               <text x="4522" y="5196" text-anchor="end" font-size="0px">
                  <tspan id="xw7fk67" class="text">
                     <tspan font-size="405px">Trumpet in B-flat</tspan>
                  </tspan>
               </text>
            </g>
            <g id="i2eqa94" class="label">
               <text x="4522" y="6996" text-anchor="end" font-size="0px">
                  <tspan id="jbfzj81" class="text">
                     <tspan font-size="405px">Trombone</tspan>
                  </tspan>
               </text>
            </g>
            <g id="u13jkysm" class="label">
               <text x="4522" y="8796" text-anchor="end" font-size="0px">
                  <tspan id="v989tlv" class="text">
                     <tspan font-size="405px">Alto Saxophone in E-flat</tspan>
                  </tspan>
               </text>
            </g>
            <g id="gzhj7pu" class="label">
               <text x="4522" y="10596" text-anchor="end" font-size="0px">
                  <tspan id="h1iy18nw" class="text">
                     <tspan font-size="405px">Tenor Saxophone in B-flat</tspan>
                  </tspan>
               </text>
            </g>
            <g id="q1ktxa2b" class="section systemMilestone" />
            <g id="qovbx9e" class="measure">
               <g id="z12idgty" class="staff">
                  <path d="M4702 863 L8089 863" stroke-width="13" />
                  <path d="M4702 1043 L8089 1043" stroke-width="13" />
                  <path d="M4702 1223 L8089 1223" stroke-width="13" />
                  <path d="M4702 1403 L8089 1403" stroke-width="13" />
                  <path d="M4702 1583 L8089 1583" stroke-width="13" />
                  <g id="e9fdcji" class="clef">
                     <use xlink:href="#E050-d5fwv8e" transform="translate(4908, 1403) scale(0.72, 0.72)" />
                  </g>
                  <g id="f1c2xbif" class="keySig" />
                  <g id="ga0az6y" class="meterSig">
                     <use xlink:href="#E084-d5fwv8e" transform="translate(5642, 1043) scale(0.72, 0.72)" />
                     <use xlink:href="#E084-d5fwv8e" transform="translate(5642, 1403) scale(0.72, 0.72)" />
                  </g>
                  <g class="ledgerLines below">
                     <path d="M6439 1763 L6825 1763" stroke-width="22" />
                  </g>
                  <g id="f11dbw26" class="layer">
                     <g id="h19xl7rh" class="chord">
                        <g id="g1k9skps" class="note">
                           <g class="notehead">
                              <use xlink:href="#E0A2-d5fwv8e" transform="translate(6487, 1763) scale(0.72, 0.72)" />
                           </g>
                        </g>
                        <g id="ieun8mf" class="note">
                           <g class="notehead">
                              <use xlink:href="#E0A2-d5fwv8e" transform="translate(6487, 1583) scale(0.72, 0.72)" />
                           </g>
                        </g>
                        <g id="jzp9zf4" class="note">
                           <g class="notehead">
                              <use xlink:href="#E0A2-d5fwv8e" transform="translate(6487, 1403) scale(0.72, 0.72)" />
                           </g>
                        </g>
                        <g id="kztvqjw" class="note">
                           <g class="notehead">
                              <use xlink:href="#E0A2-d5fwv8e" transform="translate(6487, 1223) scale(0.72, 0.72)" />
                           </g>
                        </g>
                     </g>
                  </g>
               </g>
               <g id="aaxsqh2" class="staff">
                  <path d="M4702 2663 L8089 2663" stroke-width="13" />
                  <path d="M4702 2843 L8089 2843" stroke-width="13" />
                  <path d="M4702 3023 L8089 3023" stroke-width="13" />
                  <path d="M4702 3203 L8089 3203" stroke-width="13" />
                  <path d="M4702 3383 L8089 3383" stroke-width="13" />
                  <g id="h1bt73c9" class="clef">
                     <use xlink:href="#E062-d5fwv8e" transform="translate(4908, 2843) scale(0.72, 0.72)" />
                  </g>
                  <g id="izv08hl" class="keySig" />
                  <g id="j10lvvnl" class="meterSig">
                     <use xlink:href="#E084-d5fwv8e" transform="translate(5642, 2843) scale(0.72, 0.72)" />
                     <use xlink:href="#E084-d5fwv8e" transform="translate(5642, 3203) scale(0.72, 0.72)" />
                  </g>
                  <g class="ledgerLines below">
                     <path d="M6439 3563 L6825 3563" stroke-width="22" />
                     <path d="M6439 3743 L6825 3743" stroke-width="22" />
                  </g>
                  <g id="lmamjix" class="layer">
                     <g id="n1vhr75p" class="chord">
                        <g id="m1hlff3a" class="note">
                           <g class="notehead">
                              <use xlink:href="#E0A2-d5fwv8e" transform="translate(6487, 3743) scale(0.72, 0.72)" />
                           </g>
                        </g>
                        <g id="o1g77x5j" class="note">
                           <g class="notehead">
                              <use xlink:href="#E0A2-d5fwv8e" transform="translate(6487, 3383) scale(0.72, 0.72)" />
                           </g>
                        </g>
                        <g id="pmbp04u" class="note">
                           <g class="notehead">
                              <use xlink:href="#E0A2-d5fwv8e" transform="translate(6487, 3113) scale(0.72, 0.72)" />
                           </g>
                        </g>
                     </g>
                  </g>
               </g>
               <g id="m1sp94n6" class="staff">
                  <path d="M4702 4746 L8089 4746" stroke-width="13" />
                  <path d="M4702 4926 L8089 4926" stroke-width="13" />
                  <path d="M4702 5106 L8089 5106" stroke-width="13" />
                  <path d="M4702 5286 L8089 5286" stroke-width="13" />
                  <path d="M4702 5466 L8089 5466" stroke-width="13" />
                  <g id="k1i3fufj" class="clef">
                     <use xlink:href="#E050-d5fwv8e" transform="translate(4908, 5286) scale(0.72, 0.72)" />
                  </g>
                  <g id="l12ry42c" class="keySig" />
                  <g id="m1pov228" class="meterSig">
                     <use xlink:href="#E084-d5fwv8e" transform="translate(5642, 4926) scale(0.72, 0.72)" />
                     <use xlink:href="#E084-d5fwv8e" transform="translate(5642, 5286) scale(0.72, 0.72)" />
                  </g>
                  <g id="r181rkza" class="layer">
                     <g id="sc0kyg" class="note">
                        <g class="notehead">
                           <use xlink:href="#E0A2-d5fwv8e" transform="translate(6486, 5196) scale(0.72, 0.72)" />
                        </g>
                     </g>
                  </g>
               </g>
               <g id="p1qlyu6g" class="staff">
                  <path d="M4702 6546 L8089 6546" stroke-width="13" />
                  <path d="M4702 6726 L8089 6726" stroke-width="13" />
                  <path d="M4702 6906 L8089 6906" stroke-width="13" />
                  <path d="M4702 7086 L8089 7086" stroke-width="13" />
                  <path d="M4702 7266 L8089 7266" stroke-width="13" />
                  <g id="n1xck9sr" class="clef">
                     <use xlink:href="#E062-d5fwv8e" transform="translate(4908, 6726) scale(0.72, 0.72)" />
                  </g>
                  <g id="oods907" class="keySig" />
                  <g id="p13vodg0" class="meterSig">
                     <use xlink:href="#E084-d5fwv8e" transform="translate(5642, 6726) scale(0.72, 0.72)" />
                     <use xlink:href="#E084-d5fwv8e" transform="translate(5642, 7086) scale(0.72, 0.72)" />
                  </g>
                  <g id="u1l8g74u" class="layer">
                     <g id="vamg8j4" class="note">
                        <g class="notehead">
                           <use xlink:href="#E0A2-d5fwv8e" transform="translate(6486, 6996) scale(0.72, 0.72)" />
                        </g>
                     </g>
                  </g>
               </g>
               <g id="sqybqvm" class="staff">
                  <path d="M4702 8346 L8089 8346" stroke-width="13" />
                  <path d="M4702 8526 L8089 8526" stroke-width="13" />
                  <path d="M4702 8706 L8089 8706" stroke-width="13" />
                  <path d="M4702 8886 L8089 8886" stroke-width="13" />
                  <path d="M4702 9066 L8089 9066" stroke-width="13" />
                  <g id="q10i1qi8" class="clef">
                     <use xlink:href="#E050-d5fwv8e" transform="translate(4908, 8886) scale(0.72, 0.72)" />
                  </g>
                  <g id="r1j0o4jl" class="keySig" />
                  <g id="sg54ndl" class="meterSig">
                     <use xlink:href="#E084-d5fwv8e" transform="translate(5642, 8526) scale(0.72, 0.72)" />
                     <use xlink:href="#E084-d5fwv8e" transform="translate(5642, 8886) scale(0.72, 0.72)" />
                  </g>
                  <g id="xf2iate" class="layer">
                     <g id="y12qtpdi" class="note">
                        <g class="notehead">
                           <use xlink:href="#E0A2-d5fwv8e" transform="translate(6486, 8616) scale(0.72, 0.72)" />
                        </g>
                        <g id="z10lftri" class="accid" />
                     </g>
                  </g>
               </g>
               <g id="wfr67bt" class="staff">
                  <path d="M4702 10146 L8089 10146" stroke-width="13" />
                  <path d="M4702 10326 L8089 10326" stroke-width="13" />
                  <path d="M4702 10506 L8089 10506" stroke-width="13" />
                  <path d="M4702 10686 L8089 10686" stroke-width="13" />
                  <path d="M4702 10866 L8089 10866" stroke-width="13" />
                  <g id="tsh8vda" class="clef">
                     <use xlink:href="#E050-d5fwv8e" transform="translate(4908, 10686) scale(0.72, 0.72)" />
                  </g>
                  <g id="updk6v4" class="keySig" />
                  <g id="v1fybks2" class="meterSig">
                     <use xlink:href="#E084-d5fwv8e" transform="translate(5642, 10326) scale(0.72, 0.72)" />
                     <use xlink:href="#E084-d5fwv8e" transform="translate(5642, 10686) scale(0.72, 0.72)" />
                  </g>
                  <g id="b12j7aww" class="layer">
                     <g id="c21yvtd" class="note">
                        <g class="notehead">
                           <use xlink:href="#E0A2-d5fwv8e" transform="translate(6486, 10596) scale(0.72, 0.72)" />
                        </g>
                     </g>
                  </g>
               </g>
               <g id="razb9if" class="staff">
                  <path d="M4702 11946 L8089 11946" stroke-width="13" />
                  <path d="M4702 12126 L8089 12126" stroke-width="13" />
                  <path d="M4702 12306 L8089 12306" stroke-width="13" />
                  <path d="M4702 12486 L8089 12486" stroke-width="13" />
                  <path d="M4702 12666 L8089 12666" stroke-width="13" />
                  <g id="wf726wv" class="clef">
                     <use xlink:href="#E050-d5fwv8e" transform="translate(4908, 12486) scale(0.72, 0.72)" />
                  </g>
                  <g id="x12fvhcg" class="keySig" />
                  <g id="yglfarv" class="meterSig">
                     <use xlink:href="#E084-d5fwv8e" transform="translate(5642, 12126) scale(0.72, 0.72)" />
                     <use xlink:href="#E084-d5fwv8e" transform="translate(5642, 12486) scale(0.72, 0.72)" />
                  </g>
                  <g class="ledgerLines below">
                     <path d="M6439 12846 L6825 12846" stroke-width="22" />
                  </g>
                  <g id="x1h0mkkf" class="layer">
                     <g id="z1it55sc" class="chord">
                        <g id="y1ylimuk" class="note">
                           <g class="notehead">
                              <use xlink:href="#E0A2-d5fwv8e" transform="translate(6487, 12846) scale(0.72, 0.72)" />
                           </g>
                        </g>
                        <g id="a1mk4cq9" class="note">
                           <g class="notehead">
                              <use xlink:href="#E0A2-d5fwv8e" transform="translate(6487, 12666) scale(0.72, 0.72)" />
                           </g>
                        </g>
                        <g id="b1i4y5xr" class="note">
                           <g class="notehead">
                              <use xlink:href="#E0A2-d5fwv8e" transform="translate(6487, 12486) scale(0.72, 0.72)" />
                           </g>
                        </g>
                        <g id="c1vzqlhl" class="note">
                           <g class="notehead">
                              <use xlink:href="#E0A2-d5fwv8e" transform="translate(6487, 12306) scale(0.72, 0.72)" />
                           </g>
                        </g>
                     </g>
                  </g>
               </g>
               <g id="s1x2x3oq" class="staff">
                  <path d="M4702 14550 L8089 14550" stroke-width="23" />
                  <path d="M4702 14865 L6360 14865" stroke-width="23" />
                  <path d="M6612 14865 L8089 14865" stroke-width="23" />
                  <path d="M4702 15180 L6360 15180" stroke-width="23" />
                  <path d="M6612 15180 L8089 15180" stroke-width="23" />
                  <path d="M4702 15495 L6360 15495" stroke-width="23" />
                  <path d="M6612 15495 L8089 15495" stroke-width="23" />
                  <path d="M4702 15810 L6360 15810" stroke-width="23" />
                  <path d="M6612 15810 L8089 15810" stroke-width="23" />
                  <path d="M4702 16125 L8089 16125" stroke-width="23" />
                  <g id="z4zgs3" class="clef">
                     <use xlink:href="#E06D-d5fwv8e" transform="translate(4908, 15335) scale(0.72, 0.72)" />
                  </g>
                  <g id="b168my4f" class="meterSig">
                     <use xlink:href="#E084-d5fwv8e" transform="translate(5642, 15155) scale(0.72, 0.72)" />
                     <use xlink:href="#E084-d5fwv8e" transform="translate(5642, 15515) scale(0.72, 0.72)" />
                  </g>
                  <g id="d1vcdauw" class="layer">
                     <g id="fdyj9ag" class="tabGrp">
                        <g id="g1d07ch1" class="tabDurSym" />
                        <g id="exmajv4" class="note">
                           <text x="6486" y="15916" text-anchor="middle" font-size="0px">
                              <tspan font-size="324px">3</tspan>
                           </text>
                        </g>
                        <g id="h1w7dy6e" class="note">
                           <text x="6486" y="15602" text-anchor="middle" font-size="0px">
                              <tspan font-size="324px">2</tspan>
                           </text>
                        </g>
                        <g id="ixqj64z" class="note">
                           <text x="6486" y="15288" text-anchor="middle" font-size="0px">
                              <tspan font-size="324px">0</tspan>
                           </text>
                        </g>
                        <g id="j141brz8" class="note">
                           <text x="6486" y="14974" text-anchor="middle" font-size="0px">
                              <tspan font-size="324px">0</tspan>
                           </text>
                        </g>
                     </g>
                  </g>
               </g>
               <g id="wsjjzxs" class="staff">
                  <path d="M4702 17205 L8089 17205" stroke-width="13" />
                  <path d="M4702 17385 L8089 17385" stroke-width="13" />
                  <path d="M4702 17565 L8089 17565" stroke-width="13" />
                  <path d="M4702 17745 L8089 17745" stroke-width="13" />
                  <path d="M4702 17925 L8089 17925" stroke-width="13" />
                  <g id="cof6p34" class="clef">
                     <use xlink:href="#E062-d5fwv8e" transform="translate(4908, 17385) scale(0.72, 0.72)" />
                  </g>
                  <g id="dqj7g69" class="keySig" />
                  <g id="e1wftuq0" class="meterSig">
                     <use xlink:href="#E084-d5fwv8e" transform="translate(5642, 17385) scale(0.72, 0.72)" />
                     <use xlink:href="#E084-d5fwv8e" transform="translate(5642, 17745) scale(0.72, 0.72)" />
                  </g>
                  <g id="cn5orfj" class="layer">
                     <g id="d1j3j4j3" class="note">
                        <g class="notehead">
                           <use xlink:href="#E0A2-d5fwv8e" transform="translate(6486, 17655) scale(0.72, 0.72)" />
                        </g>
                     </g>
                  </g>
               </g>
               <g id="x14di4g7" class="staff">
                  <path d="M4702 19809 L8089 19809" stroke-width="23" />
                  <path d="M4702 20124 L8089 20124" stroke-width="23" />
                  <path d="M4702 20439 L6360 20439" stroke-width="23" />
                  <path d="M6612 20439 L8089 20439" stroke-width="23" />
                  <path d="M4702 20754 L8089 20754" stroke-width="23" />
                  <g id="fexjk04" class="clef">
                     <use xlink:href="#E06D-d5fwv8e" transform="translate(4908, 20280) scale(0.72, 0.72)" />
                  </g>
                  <g id="h12kb5gd" class="meterSig">
                     <use xlink:href="#E084-d5fwv8e" transform="translate(5642, 20100) scale(0.72, 0.72)" />
                     <use xlink:href="#E084-d5fwv8e" transform="translate(5642, 20460) scale(0.72, 0.72)" />
                  </g>
                  <g id="ewwvr09" class="layer">
                     <g id="g188j5yg" class="tabGrp">
                        <g id="hs66i5b" class="tabDurSym" />
                        <g id="f4lx3ws" class="note">
                           <text x="6486" y="20547" text-anchor="middle" font-size="0px">
                              <tspan font-size="324px">3</tspan>
                           </text>
                        </g>
                     </g>
                  </g>
               </g>
               <g id="bx15bqn" class="tempo" xml:lang="it">
                  <text x="5642" y="735" font-size="0px">
                     <tspan id="c1g8gvel" class="text">
                        <tspan font-size="405px">♩ = 84</tspan>
                     </tspan>
                  </text>
               </g>
               <g id="d759kvb" class="harm">
                  <text x="6486" y="277" font-size="0px">
                     <tspan id="e1ly0e12" class="text">
                        <tspan font-size="405px" x="6486" y="277">Cmaj7</tspan>
                     </tspan>
                  </text>
               </g>
               <g id="n114yniy" class="tempo" xml:lang="it">
                  <text x="5642" y="4618" font-size="0px">
                     <tspan id="os8vldk" class="text">
                        <tspan font-size="405px">♩ = 84</tspan>
                     </tspan>
                  </text>
               </g>
               <g id="pmqsds5" class="harm">
                  <text x="6486" y="4160" font-size="0px">
                     <tspan id="qip2snc" class="text">
                        <tspan font-size="405px" x="6486" y="4160">Cmaj7</tspan>
                     </tspan>
                  </text>
               </g>
               <g id="qkh2xci" class="tempo" xml:lang="it">
                  <text x="5642" y="6418" font-size="0px">
                     <tspan id="r9zpz16" class="text">
                        <tspan font-size="405px">♩ = 84</tspan>
                     </tspan>
                  </text>
               </g>
               <g id="sgpge4n" class="harm">
                  <text x="6486" y="5960" font-size="0px">
                     <tspan id="ta3q6g7" class="text">
                        <tspan font-size="405px" x="6486" y="5960">Cmaj7</tspan>
                     </tspan>
                  </text>
               </g>
               <g id="tub8a0j" class="tempo" xml:lang="it">
                  <text x="5642" y="8218" font-size="0px">
                     <tspan id="u16l097u" class="text">
                        <tspan font-size="405px">♩ = 84</tspan>
                     </tspan>
                  </text>
               </g>
               <g id="v12rs626" class="harm">
                  <text x="6486" y="7760" font-size="0px">
                     <tspan id="w1gnrkta" class="text">
                        <tspan font-size="405px" x="6486" y="7760">Cmaj7</tspan>
                     </tspan>
                  </text>
               </g>
               <g id="x1xhd4ik" class="tempo" xml:lang="it">
                  <text x="5642" y="10018" font-size="0px">
                     <tspan id="ynwmnlc" class="text">
                        <tspan font-size="405px">♩ = 84</tspan>
                     </tspan>
                  </text>
               </g>
               <g id="z1hz9det" class="harm">
                  <text x="6486" y="9560" font-size="0px">
                     <tspan id="a4mum9x" class="text">
                        <tspan font-size="405px" x="6486" y="9560">Cmaj7</tspan>
                     </tspan>
                  </text>
               </g>
               <g id="tig46xh" class="tempo" xml:lang="it">
                  <text x="5642" y="11818" font-size="0px">
                     <tspan id="u15g1cld" class="text">
                        <tspan font-size="405px">♩ = 84</tspan>
                     </tspan>
                  </text>
               </g>
               <g id="v1r2muxx" class="harm">
                  <text x="6486" y="11360" font-size="0px">
                     <tspan id="w1e9nj8g" class="text">
                        <tspan font-size="405px" x="6486" y="11360">Cmaj7</tspan>
                     </tspan>
                  </text>
               </g>
               <g id="y1lmp3sf" class="tempo" xml:lang="it">
                  <text x="5642" y="17077" font-size="0px">
                     <tspan id="zraw3fh" class="text">
                        <tspan font-size="405px">♩ = 84</tspan>
                     </tspan>
                  </text>
               </g>
               <g id="a1he3lep" class="harm">
                  <text x="6486" y="16619" font-size="0px">
                     <tspan id="b1iah6p1" class="text">
                        <tspan font-size="405px" x="6486" y="16619">Cmaj7</tspan>
                     </tspan>
                  </text>
               </g>
               <g id="y1fxlrz0" class="barLine">
                  <path d="M8076 863 L8076 1583" stroke-width="27" />
                  <path d="M8076 2663 L8076 3383" stroke-width="27" />
                  <path d="M8076 1583 L8076 2663" stroke-width="27" />
                  <path d="M8076 4746 L8076 5466" stroke-width="27" />
                  <path d="M8076 6546 L8076 7266" stroke-width="27" />
                  <path d="M8076 8346 L8076 9066" stroke-width="27" />
                  <path d="M8076 10146 L8076 10866" stroke-width="27" />
                  <path d="M8076 11946 L8076 12666" stroke-width="27" />
                  <path d="M8076 14550 L8076 16120" stroke-width="27" />
                  <path d="M8076 12666 L8076 14550" stroke-width="27" />
                  <path d="M8076 17205 L8076 17925" stroke-width="27" />
                  <path d="M8076 19809 L8076 20751" stroke-width="27" />
                  <path d="M8076 17925 L8076 19809" stroke-width="27" />
               </g>
            </g>
            <g id="pcw0tuc" class="systemMilestoneEnd q1ktxa2b" />
         </g>
         <g id="qrij22w" class="pageMilestoneEnd o1djte62" />
         <g id="rdt7tzs" class="pageMilestoneEnd nfb8hmk" />
      </g>
   </svg>
</svg>
