<svg width="888px" height="296px" version="1.1" xmlns="http://www.w3.org/2000/svg" xmlns:xlink="http://www.w3.org/1999/xlink" overflow="visible" id="h1gy75kj">
   <desc>Engraved by Verovio 5.7.0-7135340</desc>
   <defs>
      <g id="E050-h1gy75kj">
         <path transform="scale(1,-1)" d="M441 -245c-23 -4 -48 -6 -76 -6c-59 0 -102 7 -130 20c-88 42 -150 93 -187 154c-26 44 -43 103 -48 176c0 6 -1 13 -1 19c0 54 15 111 45 170c29 57 65 106 110 148s96 85 153 127c-3 16 -8 46 -13 92c-4 43 -5 73 -5 89c0 117 16 172 69 257c34 54 64 82 89 82 c21 0 43 -30 69 -92s39 -115 41 -159v-15c0 -109 -21 -162 -67 -241c-13 -20 -63 -90 -98 -118c-13 -9 -25 -19 -37 -29l31 -181c8 1 18 2 28 2c58 0 102 -12 133 -35c59 -43 92 -104 98 -184c1 -7 1 -15 1 -22c0 -123 -87 -209 -181 -248c8 -57 17 -110 25 -162 c5 -31 6 -58 6 -80c0 -30 -5 -53 -14 -70c-35 -64 -88 -99 -158 -103c-5 0 -11 -1 -16 -1c-37 0 -72 10 -108 27c-50 24 -77 59 -80 105v11c0 29 7 55 20 76c18 28 45 42 79 44h6c49 0 93 -42 97 -87v-9c0 -51 -34 -86 -105 -106c17 -24 51 -36 102 -36c62 0 116 43 140 85 c9 16 13 41 13 74c0 20 -1 42 -5 67c-8 53 -18 106 -26 159zM461 939c-95 0 -135 -175 -135 -286c0 -24 2 -48 5 -71c50 39 92 82 127 128c40 53 60 100 60 140v8c-4 53 -22 81 -55 81h-2zM406 119l54 -326c73 25 110 78 110 161c0 7 0 15 -1 23c-7 95 -57 142 -151 142h-12 zM382 117c-72 -2 -128 -47 -128 -120v-7c2 -46 43 -99 75 -115c-3 -2 -7 -5 -10 -10c-70 33 -116 88 -123 172v11c0 68 44 126 88 159c23 17 49 29 78 36l-29 170c-21 -13 -52 -37 -92 -73c-50 -44 -86 -84 -109 -119c-45 -69 -67 -130 -67 -182v-13c5 -68 35 -127 93 -176 s125 -73 203 -73c25 0 50 3 75 9c-19 111 -36 221 -54 331z" />
      </g>
      <g id="E084-h1gy75kj">
         <path transform="scale(1,-1)" d="M20 -78c84 97 114 180 134 329h170c-13 -32 -82 -132 -99 -151l-84 -97c-33 -36 -59 -63 -80 -81h162v102l127 123v-225h57v-39h-57v-34c0 -43 19 -65 57 -65v-34h-244v36c48 0 60 26 60 70v27h-203v39z" />
      </g>
      <g id="E4E6-h1gy75kj">
         <path transform="scale(1,-1)" d="M0 123c7 34 33 56 69 60c29 -3 43 -9 53 -29c4 -8 7 -15 10 -22c0 -21 -1 -25 -11 -35c-5 -8 -18 -14 -40 -20l12 -3l15 -1c44 0 97 26 122 56c10 11 18 26 24 42c7 1 15 2 22 3l-140 -424h-36l111 330c-10 -6 -27 -12 -53 -16l-52 -8h-10l-20 1c-1 0 -8 3 -21 6 c-37 9 -55 28 -55 60z" />
      </g>
      <g id="E0A4-h1gy75kj">
         <path transform="scale(1,-1)" d="M0 -39c0 68 73 172 200 172c66 0 114 -37 114 -95c0 -84 -106 -171 -218 -171c-64 0 -96 30 -96 94z" />
      </g>
      <g id="E243-h1gy75kj">
         <path transform="scale(1,-1)" d="M216 730c-5 8 -10 13 -11 16l-4 10c0 3 2 5 5 5s7 -2 13 -7c35 -42 57 -101 57 -172c0 -34 -6 -65 -17 -94c10 -31 17 -64 17 -96c0 -104 -60 -183 -122 -241c-63 -59 -57 -53 -61 -56c-38 -34 -63 -95 -71 -95h-22v190v190c40 7 69 11 87 16c116 36 175 111 175 197 c0 44 -15 91 -46 137zM248 463c-23 -48 -58 -89 -94 -122c-63 -59 -57 -53 -61 -56c-30 -27 -44 -71 -53 -88c20 3 36 6 47 9c88 27 168 95 168 200c0 19 -3 39 -7 57z" />
      </g>
      <g id="E4E7-h1gy75kj">
         <path transform="scale(1,-1)" d="M133 -111c0 -33 -21 -50 -52 -55c10 -3 18 -4 25 -4c40 0 69 24 90 47l66 197c-36 -18 -64 -25 -112 -25c-23 0 -38 3 -45 8c-37 7 -55 27 -55 59c8 35 30 54 68 58c45 -6 49 -13 64 -48c0 -3 1 -5 1 -7c0 -27 -25 -46 -52 -49c6 -4 15 -6 26 -6c32 2 62 14 88 29 c32 19 44 36 59 71l7 1l10 2h4c-72 -220 -143 -439 -215 -659h-37l108 324c-20 -13 -51 -20 -82 -20c-21 0 -35 4 -43 10c-37 6 -55 26 -55 58c8 35 31 56 68 60c43 -8 48 -13 64 -51z" />
      </g>
      <g id="E06D-h1gy75kj">
         <path transform="scale(1,-1)" d="M18 697v53h369v-53h-154v-418h-60v418h-155zM111 -94l-50 -141h-64l168 470h78l165 -470h-67l-49 141h-181zM276 -43l-73 214l-77 -214h150zM27 -750v471h191c89 0 139 -51 139 -120c0 -47 -22 -82 -65 -102c60 -23 86 -58 86 -114c0 -78 -54 -135 -139 -135h-212z M203 -332h-116v-150h116c67 0 94 27 94 75s-27 75 -94 75zM234 -535h-147v-162h147c56 0 84 36 84 81c0 46 -28 81 -84 81z" />
      </g>
      <g id="E242-h1gy75kj">
         <path transform="scale(1,-1)" d="M206 -748c32 48 49 100 49 149c0 89 -55 168 -168 203c-18 5 -47 9 -87 16v190v190h22c8 0 33 -61 71 -95c4 -3 -2 3 61 -56c62 -58 122 -137 122 -241c0 -32 -7 -65 -17 -96c11 -29 17 -60 17 -94c0 -71 -32 -148 -67 -190c-6 -5 -10 -7 -13 -7s-5 2 -5 5l4 10 c1 3 6 8 11 16zM248 -463c4 18 7 38 7 57c0 105 -80 173 -168 200c-11 3 -27 6 -47 9c9 -17 23 -61 53 -88c4 -3 -2 3 61 -56c36 -33 71 -74 94 -122z" />
      </g>
   </defs>
   <style type="text/css">#h1gy75kj g.page-margin {font-family:Times,serif;}#h1gy75kj g.ending, #h1gy75kj g.fing, #h1gy75kj g.reh, #h1gy75kj g.tempo {font-weight:bold;}#h1gy75kj g.dir, #h1gy75kj g.dynam, #h1gy75kj g.mNum {font-style:italic;}#h1gy75kj g.label {font-weight:normal;}#h1gy75kj ellipse, #h1gy75kj path, #h1gy75kj polygon, #h1gy75kj polyline, #h1gy75kj rect {stroke:currentColor}g.harm tspan { font-size: 280px !important; } g.tempo tspan { font-size: 260px !important; } g.label tspan { font-size: 250px !important; }</style>
   <svg class="definition-scale" color="black" viewBox="0 0 19720 6570">
      <g class="page-margin" transform="translate(500, 500)">
         <g id="r1skxwqr" class="mdiv pageMilestone" />
         <g id="s5050x9" class="score pageMilestone" />
         <g id="qdeyber" class="system">
            <path d="M1618 854 L1618 5033" stroke-width="27" />
            <g id="k9fo0e9" class="grpSym">
               <path d="M1533,5015 C1173,4475 1623,3124 1353,2944 C1686,3124 1236,4475 1533,5015" stroke-width="18" stroke-linecap="round" stroke-linejoin="round" />
               <path d="M1533,872 C1236,1412 1686,2764 1353,2944 C1623,2764 1173,1412 1533,872" stroke-width="18" stroke-linecap="round" stroke-linejoin="round" />
            </g>
            <g id="lsf7ws2" class="label">
               <text x="1200" y="3034" text-anchor="end" font-size="0px">
                  <tspan id="mb5649o" class="text">
                     <tspan font-size="405px">Guitar</tspan>
                  </tspan>
               </text>
            </g>
            <g id="u9yokbl" class="section systemMilestone" />
            <g id="b1hmbyri" class="measure">
               <g id="kzzo7cq" class="staff">
                  <path d="M1605 854 L6912 854" stroke-width="13" />
                  <path d="M1605 1034 L6912 1034" stroke-width="13" />
                  <path d="M1605 1214 L6912 1214" stroke-width="13" />
                  <path d="M1605 1394 L6912 1394" stroke-width="13" />
                  <path d="M1605 1574 L6912 1574" stroke-width="13" />
                  <g id="wjapg9n" class="clef">
                     <use xlink:href="#E050-h1gy75kj" transform="translate(1811, 1394) scale(0.72, 0.72)" />
                  </g>
                  <g id="x16q1i5x" class="keySig" />
                  <g id="y1md887" class="meterSig">
                     <use xlink:href="#E084-h1gy75kj" transform="translate(2509, 1034) scale(0.72, 0.72)" />
                     <use xlink:href="#E084-h1gy75kj" transform="translate(2509, 1394) scale(0.72, 0.72)" />
                  </g>
                  <g id="qw811uw" class="layer">
                     <g id="r7t07gd" class="rest">
                        <use xlink:href="#E4E6-h1gy75kj" transform="translate(3138, 1214) scale(0.72, 0.72)" />
                     </g>
                     <g id="s1xsqgn9" class="note">
                        <g class="notehead">
                           <use xlink:href="#E0A4-h1gy75kj" transform="translate(3588, 1214) scale(0.72, 0.72)" />
                        </g>
                        <g id="iqt494q" class="stem">
                           <path d="M3597 1242 L3597 1814" stroke-width="18" />
                           <g id="j1524it7" class="flag">
                              <use xlink:href="#E243-h1gy75kj" transform="translate(3588, 1814) scale(0.72, 0.72)" />
                           </g>
                        </g>
                     </g>
                     <g id="t1liryx4" class="rest">
                        <use xlink:href="#E4E7-h1gy75kj" transform="translate(3904, 1214) scale(0.72, 0.72)" />
                     </g>
                     <g id="u6rb15s" class="note">
                        <g class="notehead">
                           <use xlink:href="#E0A4-h1gy75kj" transform="translate(4227, 1124) scale(0.72, 0.72)" />
                        </g>
                        <g id="kbacpfz" class="stem">
                           <path d="M4236 1152 L4236 1754" stroke-width="18" />
                           <g id="l1mbylk6" class="flag">
                              <use xlink:href="#E243-h1gy75kj" transform="translate(4227, 1754) scale(0.72, 0.72)" />
                           </g>
                        </g>
                        <g id="vbga77o" class="accid" />
                     </g>
                     <g id="wrip6y2" class="rest">
                        <use xlink:href="#E4E6-h1gy75kj" transform="translate(4543, 1214) scale(0.72, 0.72)" />
                        <g id="manowkz" class="dots">
                           <ellipse cx="4831" cy="1124" rx="36" ry="36" fill-opacity="1" />
                        </g>
                     </g>
                     <g id="x4n0a3i" class="note">
                        <g class="notehead">
                           <use xlink:href="#E0A4-h1gy75kj" transform="translate(5123, 944) scale(0.72, 0.72)" />
                        </g>
                        <g id="nta1wve" class="stem">
                           <path d="M5132 972 L5132 1574" stroke-width="18" />
                           <g id="o1kltgww" class="flag">
                              <use xlink:href="#E243-h1gy75kj" transform="translate(5123, 1574) scale(0.72, 0.72)" />
                           </g>
                        </g>
                     </g>
                     <g id="ypii0a5" class="rest">
                        <use xlink:href="#E4E6-h1gy75kj" transform="translate(5423, 1214) scale(0.72, 0.72)" />
                        <g id="pyt2z5b" class="dots">
                           <ellipse cx="5711" cy="1124" rx="36" ry="36" fill-opacity="1" />
                        </g>
                     </g>
                     <g id="z14di82y" class="note">
                        <g class="notehead">
                           <use xlink:href="#E0A4-h1gy75kj" transform="translate(6003, 1124) scale(0.72, 0.72)" />
                        </g>
                        <g id="q1htuk6r" class="stem">
                           <path d="M6012 1152 L6012 1754" stroke-width="18" />
                           <g id="r11hhcmz" class="flag">
                              <use xlink:href="#E243-h1gy75kj" transform="translate(6003, 1754) scale(0.72, 0.72)" />
                           </g>
                        </g>
                        <g id="a16n40rl" class="accid" />
                     </g>
                     <g id="bdtgui" class="rest">
                        <use xlink:href="#E4E6-h1gy75kj" transform="translate(6319, 1214) scale(0.72, 0.72)" />
                        <g id="s5cvmd7" class="dots">
                           <ellipse cx="6607" cy="1124" rx="36" ry="36" fill-opacity="1" />
                        </g>
                     </g>
                  </g>
               </g>
               <g id="lqubsxn" class="staff">
                  <path d="M1605 3458 L4997 3458" stroke-width="23" />
                  <path d="M5249 3458 L6912 3458" stroke-width="23" />
                  <path d="M1605 3773 L3462 3773" stroke-width="23" />
                  <path d="M3714 3773 L4101 3773" stroke-width="23" />
                  <path d="M4353 3773 L5877 3773" stroke-width="23" />
                  <path d="M6129 3773 L6912 3773" stroke-width="23" />
                  <path d="M1605 4088 L6912 4088" stroke-width="23" />
                  <path d="M1605 4403 L6912 4403" stroke-width="23" />
                  <path d="M1605 4718 L6912 4718" stroke-width="23" />
                  <path d="M1605 5033 L6912 5033" stroke-width="23" />
                  <g id="z561pui" class="clef">
                     <use xlink:href="#E06D-h1gy75kj" transform="translate(1811, 4243) scale(0.72, 0.72)" />
                  </g>
                  <g id="b7oeoy1" class="meterSig">
                     <use xlink:href="#E084-h1gy75kj" transform="translate(2509, 4063) scale(0.72, 0.72)" />
                     <use xlink:href="#E084-h1gy75kj" transform="translate(2509, 4423) scale(0.72, 0.72)" />
                  </g>
                  <g id="cbp2sfp" class="layer">
                     <g id="dbdwvqu" class="tabGrp">
                        <g id="e82ajr8" class="tabDurSym" />
                     </g>
                     <g id="g1bsogv7" class="tabGrp">
                        <g id="h1p2ef70" class="tabDurSym">
                           <g id="v1s745o" class="stem">
                              <path d="M3588 3301 L3588 2673" stroke-width="31" />
                              <g id="wjxevh0" class="flag">
                                 <use xlink:href="#E242-h1gy75kj" transform="translate(3573, 2673) scale(0.72, 0.72)" />
                              </g>
                           </g>
                        </g>
                        <g id="f1xpyj54" class="note">
                           <text x="3588" y="3882" text-anchor="middle" font-size="0px">
                              <tspan font-size="324px">0</tspan>
                           </text>
                        </g>
                     </g>
                     <g id="iw3rryg" class="tabGrp">
                        <g id="jr0n4ri" class="tabDurSym" />
                     </g>
                     <g id="l16ggw4c" class="tabGrp">
                        <g id="mdhb4gb" class="tabDurSym">
                           <g id="z1c9q1rs" class="stem">
                              <path d="M4227 3301 L4227 2673" stroke-width="31" />
                              <g id="a4015uw" class="flag">
                                 <use xlink:href="#E242-h1gy75kj" transform="translate(4212, 2673) scale(0.72, 0.72)" />
                              </g>
                           </g>
                        </g>
                        <g id="k171rci7" class="note">
                           <text x="4227" y="3882" text-anchor="middle" font-size="0px">
                              <tspan font-size="324px">2</tspan>
                           </text>
                        </g>
                     </g>
                     <g id="n1o85s07" class="tabGrp">
                        <g id="o12t7d7j" class="tabDurSym">
                           <ellipse cx="4633" cy="3256" rx="23" ry="23" fill-opacity="1" />
                        </g>
                     </g>
                     <g id="qqrtw99" class="tabGrp">
                        <g id="r1c0ga88" class="tabDurSym">
                           <g id="dx7jmfu" class="stem">
                              <path d="M5123 3301 L5123 2673" stroke-width="31" />
                              <g id="e87xuv1" class="flag">
                                 <use xlink:href="#E242-h1gy75kj" transform="translate(5108, 2673) scale(0.72, 0.72)" />
                              </g>
                           </g>
                        </g>
                        <g id="pwzwnyz" class="note">
                           <text x="5123" y="3568" text-anchor="middle" font-size="0px">
                              <tspan font-size="324px">0</tspan>
                           </text>
                        </g>
                     </g>
                     <g id="s10mb6re" class="tabGrp">
                        <g id="tnt0b8x" class="tabDurSym">
                           <ellipse cx="5513" cy="3256" rx="23" ry="23" fill-opacity="1" />
                        </g>
                     </g>
                     <g id="v7pc63m" class="tabGrp">
                        <g id="wrnykcb" class="tabDurSym">
                           <g id="hb80gf6" class="stem">
                              <path d="M6003 3301 L6003 2673" stroke-width="31" />
                              <g id="ikvwmu8" class="flag">
                                 <use xlink:href="#E242-h1gy75kj" transform="translate(5988, 2673) scale(0.72, 0.72)" />
                              </g>
                           </g>
                        </g>
                        <g id="u3htn8d" class="note">
                           <text x="6003" y="3882" text-anchor="middle" font-size="0px">
                              <tspan font-size="324px">2</tspan>
                           </text>
                        </g>
                     </g>
                     <g id="xq05rm" class="tabGrp">
                        <g id="yj6816e" class="tabDurSym">
                           <ellipse cx="6409" cy="3256" rx="23" ry="23" fill-opacity="1" />
                        </g>
                     </g>
                  </g>
               </g>
               <g id="m11mhei5" class="tempo" xml:lang="it">
                  <text x="2509" y="726" font-size="0px">
                     <tspan id="nrqtlif" class="text">
                        <tspan font-size="405px">♩ = 120</tspan>
                     </tspan>
                  </text>
               </g>
               <g id="oizwbmm" class="harm">
                  <text x="3138" y="269" font-size="0px">
                     <tspan id="p1nwazqa" class="text">
                        <tspan font-size="405px" x="3138" y="269">Bm</tspan>
                     </tspan>
                  </text>
               </g>
               <g id="jt91bvb" class="barLine">
                  <path d="M6899 854 L6899 1574" stroke-width="27" />
                  <path d="M6899 3458 L6899 5028" stroke-width="27" />
                  <path d="M6899 1574 L6899 3458" stroke-width="27" />
               </g>
            </g>
            <g id="z3w32em" class="measure">
               <g id="i12oxkt9" class="staff">
                  <path d="M6912 854 L10866 854" stroke-width="13" />
                  <path d="M6912 1034 L10866 1034" stroke-width="13" />
                  <path d="M6912 1214 L10866 1214" stroke-width="13" />
                  <path d="M6912 1394 L10866 1394" stroke-width="13" />
                  <path d="M6912 1574 L10866 1574" stroke-width="13" />
                  <g id="m1ajifky" class="layer">
                     <g id="n1ewe3wk" class="rest">
                        <use xlink:href="#E4E6-h1gy75kj" transform="translate(7092, 1214) scale(0.72, 0.72)" />
                     </g>
                     <g id="oh3d6tm" class="note">
                        <g class="notehead">
                           <use xlink:href="#E0A4-h1gy75kj" transform="translate(7542, 1214) scale(0.72, 0.72)" />
                        </g>
                        <g id="lu578oj" class="stem">
                           <path d="M7551 1242 L7551 1814" stroke-width="18" />
                           <g id="m14noai" class="flag">
                              <use xlink:href="#E243-h1gy75kj" transform="translate(7542, 1814) scale(0.72, 0.72)" />
                           </g>
                        </g>
                     </g>
                     <g id="pf8y9vr" class="rest">
                        <use xlink:href="#E4E7-h1gy75kj" transform="translate(7858, 1214) scale(0.72, 0.72)" />
                     </g>
                     <g id="qek0fxc" class="note">
                        <g class="notehead">
                           <use xlink:href="#E0A4-h1gy75kj" transform="translate(8181, 1124) scale(0.72, 0.72)" />
                        </g>
                        <g id="n1iz1zly" class="stem">
                           <path d="M8190 1152 L8190 1754" stroke-width="18" />
                           <g id="o6hwrgy" class="flag">
                              <use xlink:href="#E243-h1gy75kj" transform="translate(8181, 1754) scale(0.72, 0.72)" />
                           </g>
                        </g>
                        <g id="rnahkbx" class="accid" />
                     </g>
                     <g id="s145twhh" class="rest">
                        <use xlink:href="#E4E6-h1gy75kj" transform="translate(8497, 1214) scale(0.72, 0.72)" />
                        <g id="paluhvs" class="dots">
                           <ellipse cx="8785" cy="1124" rx="36" ry="36" fill-opacity="1" />
                        </g>
                     </g>
                     <g id="t2vvlii" class="note">
                        <g class="notehead">
                           <use xlink:href="#E0A4-h1gy75kj" transform="translate(9077, 944) scale(0.72, 0.72)" />
                        </g>
                        <g id="q18vvsgw" class="stem">
                           <path d="M9086 972 L9086 1574" stroke-width="18" />
                           <g id="rv17tcg" class="flag">
                              <use xlink:href="#E243-h1gy75kj" transform="translate(9077, 1574) scale(0.72, 0.72)" />
                           </g>
                        </g>
                     </g>
                     <g id="utidh1x" class="rest">
                        <use xlink:href="#E4E6-h1gy75kj" transform="translate(9377, 1214) scale(0.72, 0.72)" />
                        <g id="s17mp23y" class="dots">
                           <ellipse cx="9665" cy="1124" rx="36" ry="36" fill-opacity="1" />
                        </g>
                     </g>
                     <g id="vip4ups" class="note">
                        <g class="notehead">
                           <use xlink:href="#E0A4-h1gy75kj" transform="translate(9957, 1214) scale(0.72, 0.72)" />
                        </g>
                        <g id="t1qy4vby" class="stem">
                           <path d="M9966 1242 L9966 1814" stroke-width="18" />
                           <g id="uwz7045" class="flag">
                              <use xlink:href="#E243-h1gy75kj" transform="translate(9957, 1814) scale(0.72, 0.72)" />
                           </g>
                        </g>
                     </g>
                     <g id="wnf784e" class="rest">
                        <use xlink:href="#E4E6-h1gy75kj" transform="translate(10273, 1214) scale(0.72, 0.72)" />
                        <g id="v6u7ziu" class="dots">
                           <ellipse cx="10561" cy="1124" rx="36" ry="36" fill-opacity="1" />
                        </g>
                     </g>
                  </g>
               </g>
               <g id="j12kjv0w" class="staff">
                  <path d="M6912 3458 L8951 3458" stroke-width="23" />
                  <path d="M9203 3458 L10866 3458" stroke-width="23" />
                  <path d="M6912 3773 L7416 3773" stroke-width="23" />
                  <path d="M7668 3773 L8055 3773" stroke-width="23" />
                  <path d="M8307 3773 L9831 3773" stroke-width="23" />
                  <path d="M10083 3773 L10866 3773" stroke-width="23" />
                  <path d="M6912 4088 L10866 4088" stroke-width="23" />
                  <path d="M6912 4403 L10866 4403" stroke-width="23" />
                  <path d="M6912 4718 L10866 4718" stroke-width="23" />
                  <path d="M6912 5033 L10866 5033" stroke-width="23" />
                  <g id="xi07su" class="layer">
                     <g id="yc6tqf6" class="tabGrp">
                        <g id="z1v94n03" class="tabDurSym" />
                     </g>
                     <g id="b19th8gn" class="tabGrp">
                        <g id="c1isbu7t" class="tabDurSym">
                           <g id="ymf791j" class="stem">
                              <path d="M7542 3301 L7542 2673" stroke-width="31" />
                              <g id="z69yrr9" class="flag">
                                 <use xlink:href="#E242-h1gy75kj" transform="translate(7527, 2673) scale(0.72, 0.72)" />
                              </g>
                           </g>
                        </g>
                        <g id="a1a0h6zo" class="note">
                           <text x="7542" y="3882" text-anchor="middle" font-size="0px">
                              <tspan font-size="324px">0</tspan>
                           </text>
                        </g>
                     </g>
                     <g id="d136qagf" class="tabGrp">
                        <g id="esjr6nb" class="tabDurSym" />
                     </g>
                     <g id="ggxb5y4" class="tabGrp">
                        <g id="h1lr9ewz" class="tabDurSym">
                           <g id="c1ro76bs" class="stem">
                              <path d="M8181 3301 L8181 2673" stroke-width="31" />
                              <g id="d1w5ink9" class="flag">
                                 <use xlink:href="#E242-h1gy75kj" transform="translate(8166, 2673) scale(0.72, 0.72)" />
                              </g>
                           </g>
                        </g>
                        <g id="f1tua1cf" class="note">
                           <text x="8181" y="3882" text-anchor="middle" font-size="0px">
                              <tspan font-size="324px">2</tspan>
                           </text>
                        </g>
                     </g>
                     <g id="igpdvyg" class="tabGrp">
                        <g id="j1ltzw0x" class="tabDurSym">
                           <ellipse cx="8587" cy="3256" rx="23" ry="23" fill-opacity="1" />
                        </g>
                     </g>
                     <g id="l1q3adpy" class="tabGrp">
                        <g id="matq1si" class="tabDurSym">
                           <g id="gsuf3ma" class="stem">
                              <path d="M9077 3301 L9077 2673" stroke-width="31" />
                              <g id="h1il5btj" class="flag">
                                 <use xlink:href="#E242-h1gy75kj" transform="translate(9062, 2673) scale(0.72, 0.72)" />
                              </g>
                           </g>
                        </g>
                        <g id="k15k5mgs" class="note">
                           <text x="9077" y="3568" text-anchor="middle" font-size="0px">
                              <tspan font-size="324px">0</tspan>
                           </text>
                        </g>
                     </g>
                     <g id="n6r50ey" class="tabGrp">
                        <g id="o17h261w" class="tabDurSym">
                           <ellipse cx="9467" cy="3256" rx="23" ry="23" fill-opacity="1" />
                        </g>
                     </g>
                     <g id="q1yzerhj" class="tabGrp">
                        <g id="rgfzkoz" class="tabDurSym">
                           <g id="kr82qjb" class="stem">
                              <path d="M9957 3301 L9957 2673" stroke-width="31" />
                              <g id="lg7f5ca" class="flag">
                                 <use xlink:href="#E242-h1gy75kj" transform="translate(9942, 2673) scale(0.72, 0.72)" />
                              </g>
                           </g>
                        </g>
                        <g id="plugnsb" class="note">
                           <text x="9957" y="3882" text-anchor="middle" font-size="0px">
                              <tspan font-size="324px">0</tspan>
                           </text>
                        </g>
                     </g>
                     <g id="s1fzi9y7" class="tabGrp">
                        <g id="tp1kl2o" class="tabDurSym">
                           <ellipse cx="10363" cy="3256" rx="23" ry="23" fill-opacity="1" />
                        </g>
                     </g>
                  </g>
               </g>
               <g id="ka0l29a" class="harm">
                  <text x="7092" y="269" font-size="0px">
                     <tspan id="l1s12jd3" class="text">
                        <tspan font-size="405px" x="7092" y="269">D</tspan>
                     </tspan>
                  </text>
               </g>
               <g id="h3l14kb" class="barLine">
                  <path d="M10853 854 L10853 1574" stroke-width="27" />
                  <path d="M10853 3458 L10853 5028" stroke-width="27" />
                  <path d="M10853 1574 L10853 3458" stroke-width="27" />
               </g>
            </g>
            <g id="u1farpjr" class="measure">
               <g id="d1nhfwb1" class="staff">
                  <path d="M10866 854 L14788 854" stroke-width="13" />
                  <path d="M10866 1034 L14788 1034" stroke-width="13" />
                  <path d="M10866 1214 L14788 1214" stroke-width="13" />
                  <path d="M10866 1394 L14788 1394" stroke-width="13" />
                  <path d="M10866 1574 L14788 1574" stroke-width="13" />
                  <g id="h1byhny9" class="layer">
                     <g id="ivju8io" class="rest">
                        <use xlink:href="#E4E6-h1gy75kj" transform="translate(11046, 1214) scale(0.72, 0.72)" />
                     </g>
                     <g id="jhphlaq" class="note">
                        <g class="notehead">
                           <use xlink:href="#E0A4-h1gy75kj" transform="translate(11496, 1124) scale(0.72, 0.72)" />
                        </g>
                        <g id="osqlf9l" class="stem">
                           <path d="M11505 1152 L11505 1754" stroke-width="18" />
                           <g id="p2ix7zq" class="flag">
                              <use xlink:href="#E243-h1gy75kj" transform="translate(11496, 1754) scale(0.72, 0.72)" />
                           </g>
                        </g>
                     </g>
                     <g id="k7q9m1o" class="rest">
                        <use xlink:href="#E4E7-h1gy75kj" transform="translate(11812, 1214) scale(0.72, 0.72)" />
                     </g>
                     <g id="l3syyd2" class="note">
                        <g class="notehead">
                           <use xlink:href="#E0A4-h1gy75kj" transform="translate(12135, 1034) scale(0.72, 0.72)" />
                        </g>
                        <g id="q145p84t" class="stem">
                           <path d="M12144 1062 L12144 1664" stroke-width="18" />
                           <g id="rwp74dd" class="flag">
                              <use xlink:href="#E243-h1gy75kj" transform="translate(12135, 1664) scale(0.72, 0.72)" />
                           </g>
                        </g>
                        <g id="m1v67m1j" class="accid" />
                     </g>
                     <g id="nthwlew" class="rest">
                        <use xlink:href="#E4E6-h1gy75kj" transform="translate(12435, 1214) scale(0.72, 0.72)" />
                        <g id="s1f6qc2n" class="dots">
                           <ellipse cx="12723" cy="1124" rx="36" ry="36" fill-opacity="1" />
                        </g>
                     </g>
                     <g id="o3qsiti" class="note">
                        <g class="notehead">
                           <use xlink:href="#E0A4-h1gy75kj" transform="translate(13015, 854) scale(0.72, 0.72)" />
                        </g>
                        <g id="tvknn28" class="stem">
                           <path d="M13024 882 L13024 1484" stroke-width="18" />
                           <g id="uum2wzt" class="flag">
                              <use xlink:href="#E243-h1gy75kj" transform="translate(13015, 1484) scale(0.72, 0.72)" />
                           </g>
                        </g>
                     </g>
                     <g id="p6r3mck" class="rest">
                        <use xlink:href="#E4E6-h1gy75kj" transform="translate(13315, 1214) scale(0.72, 0.72)" />
                        <g id="vldl1j6" class="dots">
                           <ellipse cx="13603" cy="1124" rx="36" ry="36" fill-opacity="1" />
                        </g>
                     </g>
                     <g id="q1rx9bfu" class="note">
                        <g class="notehead">
                           <use xlink:href="#E0A4-h1gy75kj" transform="translate(13895, 1034) scale(0.72, 0.72)" />
                        </g>
                        <g id="w1hq0lh3" class="stem">
                           <path d="M13904 1062 L13904 1664" stroke-width="18" />
                           <g id="xq2t47t" class="flag">
                              <use xlink:href="#E243-h1gy75kj" transform="translate(13895, 1664) scale(0.72, 0.72)" />
                           </g>
                        </g>
                        <g id="r12v6xam" class="accid" />
                     </g>
                     <g id="s1fc85st" class="rest">
                        <use xlink:href="#E4E6-h1gy75kj" transform="translate(14195, 1214) scale(0.72, 0.72)" />
                        <g id="y1es34ha" class="dots">
                           <ellipse cx="14483" cy="1124" rx="36" ry="36" fill-opacity="1" />
                        </g>
                     </g>
                  </g>
               </g>
               <g id="e1ey7j2w" class="staff">
                  <path d="M10866 3458 L12889 3458" stroke-width="23" />
                  <path d="M13141 3458 L14788 3458" stroke-width="23" />
                  <path d="M10866 3773 L11370 3773" stroke-width="23" />
                  <path d="M11622 3773 L12009 3773" stroke-width="23" />
                  <path d="M12261 3773 L13769 3773" stroke-width="23" />
                  <path d="M14021 3773 L14788 3773" stroke-width="23" />
                  <path d="M10866 4088 L14788 4088" stroke-width="23" />
                  <path d="M10866 4403 L14788 4403" stroke-width="23" />
                  <path d="M10866 4718 L14788 4718" stroke-width="23" />
                  <path d="M10866 5033 L14788 5033" stroke-width="23" />
                  <g id="t1cwoa7x" class="layer">
                     <g id="u1f7lst3" class="tabGrp">
                        <g id="v18nuvd3" class="tabDurSym" />
                     </g>
                     <g id="x17833gz" class="tabGrp">
                        <g id="y16q7t09" class="tabDurSym">
                           <g id="ba697i6" class="stem">
                              <path d="M11496 3301 L11496 2673" stroke-width="31" />
                              <g id="c34qaz" class="flag">
                                 <use xlink:href="#E242-h1gy75kj" transform="translate(11481, 2673) scale(0.72, 0.72)" />
                              </g>
                           </g>
                        </g>
                        <g id="w1x98p6s" class="note">
                           <text x="11496" y="3882" text-anchor="middle" font-size="0px">
                              <tspan font-size="324px">1</tspan>
                           </text>
                        </g>
                     </g>
                     <g id="zo8lxde" class="tabGrp">
                        <g id="a1cjg0x5" class="tabDurSym" />
                     </g>
                     <g id="ck1vjfd" class="tabGrp">
                        <g id="d1921ily" class="tabDurSym">
                           <g id="fecxjq" class="stem">
                              <path d="M12135 3301 L12135 2673" stroke-width="31" />
                              <g id="g1yqcuaw" class="flag">
                                 <use xlink:href="#E242-h1gy75kj" transform="translate(12120, 2673) scale(0.72, 0.72)" />
                              </g>
                           </g>
                        </g>
                        <g id="b1kcf4vs" class="note">
                           <text x="12135" y="3882" text-anchor="middle" font-size="0px">
                              <tspan font-size="324px">4</tspan>
                           </text>
                        </g>
                     </g>
                     <g id="edqvnxl" class="tabGrp">
                        <g id="f1mpc4xy" class="tabDurSym">
                           <ellipse cx="12525" cy="3256" rx="23" ry="23" fill-opacity="1" />
                        </g>
                     </g>
                     <g id="h3xyhst" class="tabGrp">
                        <g id="i17l2ahu" class="tabDurSym">
                           <g id="jflb5ws" class="stem">
                              <path d="M13015 3301 L13015 2673" stroke-width="31" />
                              <g id="k11qt5si" class="flag">
                                 <use xlink:href="#E242-h1gy75kj" transform="translate(13000, 2673) scale(0.72, 0.72)" />
                              </g>
                           </g>
                        </g>
                        <g id="g1t4wuxz" class="note">
                           <text x="13015" y="3568" text-anchor="middle" font-size="0px">
                              <tspan font-size="324px">1</tspan>
                           </text>
                        </g>
                     </g>
                     <g id="j19djnzl" class="tabGrp">
                        <g id="kdirqjj" class="tabDurSym">
                           <ellipse cx="13405" cy="3256" rx="23" ry="23" fill-opacity="1" />
                        </g>
                     </g>
                     <g id="m1sjqxsq" class="tabGrp">
                        <g id="nswyf17" class="tabDurSym">
                           <g id="ngi0kwg" class="stem">
                              <path d="M13895 3301 L13895 2673" stroke-width="31" />
                              <g id="o161pjyp" class="flag">
                                 <use xlink:href="#E242-h1gy75kj" transform="translate(13880, 2673) scale(0.72, 0.72)" />
                              </g>
                           </g>
                        </g>
                        <g id="l1kgos4x" class="note">
                           <text x="13895" y="3882" text-anchor="middle" font-size="0px">
                              <tspan font-size="324px">4</tspan>
                           </text>
                        </g>
                     </g>
                     <g id="ov324f1" class="tabGrp">
                        <g id="ppcdhtn" class="tabDurSym">
                           <ellipse cx="14285" cy="3256" rx="23" ry="23" fill-opacity="1" />
                        </g>
                     </g>
                  </g>
               </g>
               <g id="fkaach5" class="harm">
                  <text x="11046" y="269" font-size="0px">
                     <tspan id="g13fphm4" class="text">
                        <tspan font-size="405px" x="11046" y="269">Fm7</tspan>
                     </tspan>
                  </text>
               </g>
               <g id="c1ap1rmb" class="barLine">
                  <path d="M14775 854 L14775 1574" stroke-width="27" />
                  <path d="M14775 3458 L14775 5028" stroke-width="27" />
                  <path d="M14775 1574 L14775 3458" stroke-width="27" />
               </g>
            </g>
            <g id="q1ox71ze" class="measure">
               <g id="z14myaxs" class="staff">
                  <path d="M14788 854 L18726 854" stroke-width="13" />
                  <path d="M14788 1034 L18726 1034" stroke-width="13" />
                  <path d="M14788 1214 L18726 1214" stroke-width="13" />
                  <path d="M14788 1394 L18726 1394" stroke-width="13" />
                  <path d="M14788 1574 L18726 1574" stroke-width="13" />
                  <g id="d3klhpc" class="layer">
                     <g id="evwqqmi" class="rest">
                        <use xlink:href="#E4E6-h1gy75kj" transform="translate(14968, 1214) scale(0.72, 0.72)" />
                     </g>
                     <g id="fi9dgyt" class="note">
                        <g class="notehead">
                           <use xlink:href="#E0A4-h1gy75kj" transform="translate(15418, 1214) scale(0.72, 0.72)" />
                        </g>
                        <g id="rqj89k7" class="stem">
                           <path d="M15427 1242 L15427 1814" stroke-width="18" />
                           <g id="s15m3tqr" class="flag">
                              <use xlink:href="#E243-h1gy75kj" transform="translate(15418, 1814) scale(0.72, 0.72)" />
                           </g>
                        </g>
                     </g>
                     <g id="g573dxy" class="rest">
                        <use xlink:href="#E4E7-h1gy75kj" transform="translate(15734, 1214) scale(0.72, 0.72)" />
                     </g>
                     <g id="h1afckx0" class="note">
                        <g class="notehead">
                           <use xlink:href="#E0A4-h1gy75kj" transform="translate(16057, 1124) scale(0.72, 0.72)" />
                        </g>
                        <g id="t1tb2e1j" class="stem">
                           <path d="M16066 1152 L16066 1754" stroke-width="18" />
                           <g id="ummfwbb" class="flag">
                              <use xlink:href="#E243-h1gy75kj" transform="translate(16057, 1754) scale(0.72, 0.72)" />
                           </g>
                        </g>
                        <g id="i15fcj5g" class="accid" />
                     </g>
                     <g id="j1ujdwra" class="rest">
                        <use xlink:href="#E4E6-h1gy75kj" transform="translate(16373, 1214) scale(0.72, 0.72)" />
                        <g id="vpifonr" class="dots">
                           <ellipse cx="16661" cy="1124" rx="36" ry="36" fill-opacity="1" />
                        </g>
                     </g>
                     <g id="kn8urop" class="note">
                        <g class="notehead">
                           <use xlink:href="#E0A4-h1gy75kj" transform="translate(16953, 944) scale(0.72, 0.72)" />
                        </g>
                        <g id="wvknb61" class="stem">
                           <path d="M16962 972 L16962 1574" stroke-width="18" />
                           <g id="x2kzkc0" class="flag">
                              <use xlink:href="#E243-h1gy75kj" transform="translate(16953, 1574) scale(0.72, 0.72)" />
                           </g>
                        </g>
                     </g>
                     <g id="l1ti32q3" class="rest">
                        <use xlink:href="#E4E6-h1gy75kj" transform="translate(17253, 1214) scale(0.72, 0.72)" />
                        <g id="y1pwsrt" class="dots">
                           <ellipse cx="17541" cy="1124" rx="36" ry="36" fill-opacity="1" />
                        </g>
                     </g>
                     <g id="m1j6iu7e" class="note">
                        <g class="notehead">
                           <use xlink:href="#E0A4-h1gy75kj" transform="translate(17833, 764) scale(0.72, 0.72)" />
                        </g>
                        <g id="zslv00l" class="stem">
                           <path d="M17842 792 L17842 1394" stroke-width="18" />
                           <g id="a15i6a1y" class="flag">
                              <use xlink:href="#E243-h1gy75kj" transform="translate(17833, 1394) scale(0.72, 0.72)" />
                           </g>
                        </g>
                        <g id="nimbjuk" class="accid" />
                     </g>
                     <g id="o12ddusr" class="rest">
                        <use xlink:href="#E4E6-h1gy75kj" transform="translate(18133, 1214) scale(0.72, 0.72)" />
                        <g id="bn02sf0" class="dots">
                           <ellipse cx="18421" cy="1124" rx="36" ry="36" fill-opacity="1" />
                        </g>
                     </g>
                  </g>
               </g>
               <g id="aft60bd" class="staff">
                  <path d="M14788 3458 L16827 3458" stroke-width="23" />
                  <path d="M17079 3458 L17707 3458" stroke-width="23" />
                  <path d="M17959 3458 L18726 3458" stroke-width="23" />
                  <path d="M14788 3773 L15292 3773" stroke-width="23" />
                  <path d="M15544 3773 L15931 3773" stroke-width="23" />
                  <path d="M16183 3773 L18726 3773" stroke-width="23" />
                  <path d="M14788 4088 L18726 4088" stroke-width="23" />
                  <path d="M14788 4403 L18726 4403" stroke-width="23" />
                  <path d="M14788 4718 L18726 4718" stroke-width="23" />
                  <path d="M14788 5033 L18726 5033" stroke-width="23" />
                  <g id="p5b0aqw" class="layer">
                     <g id="q1kbnnny" class="tabGrp">
                        <g id="r1o9yspb" class="tabDurSym" />
                     </g>
                     <g id="t1v6mcab" class="tabGrp">
                        <g id="unq0deu" class="tabDurSym">
                           <g id="e1a6g2zr" class="stem">
                              <path d="M15418 3301 L15418 2673" stroke-width="31" />
                              <g id="fs5gnkd" class="flag">
                                 <use xlink:href="#E242-h1gy75kj" transform="translate(15403, 2673) scale(0.72, 0.72)" />
                              </g>
                           </g>
                        </g>
                        <g id="spgk87r" class="note">
                           <text x="15418" y="3882" text-anchor="middle" font-size="0px">
                              <tspan font-size="324px">0</tspan>
                           </text>
                        </g>
                     </g>
                     <g id="v1hi7i0e" class="tabGrp">
                        <g id="w5fobc9" class="tabDurSym" />
                     </g>
                     <g id="y45r1bj" class="tabGrp">
                        <g id="z12v3wke" class="tabDurSym">
                           <g id="i1sgmv3g" class="stem">
                              <path d="M16057 3301 L16057 2673" stroke-width="31" />
                              <g id="jvll7ok" class="flag">
                                 <use xlink:href="#E242-h1gy75kj" transform="translate(16042, 2673) scale(0.72, 0.72)" />
                              </g>
                           </g>
                        </g>
                        <g id="xcfidyt" class="note">
                           <text x="16057" y="3882" text-anchor="middle" font-size="0px">
                              <tspan font-size="324px">2</tspan>
                           </text>
                        </g>
                     </g>
                     <g id="alb1epm" class="tabGrp">
                        <g id="bt6oay8" class="tabDurSym">
                           <ellipse cx="16463" cy="3256" rx="23" ry="23" fill-opacity="1" />
                        </g>
                     </g>
                     <g id="ddxe66v" class="tabGrp">
                        <g id="ebs5j1n" class="tabDurSym">
                           <g id="mzt3bi6" class="stem">
                              <path d="M16953 3301 L16953 2673" stroke-width="31" />
                              <g id="n1n3odbj" class="flag">
                                 <use xlink:href="#E242-h1gy75kj" transform="translate(16938, 2673) scale(0.72, 0.72)" />
                              </g>
                           </g>
                        </g>
                        <g id="cm71fy6" class="note">
                           <text x="16953" y="3568" text-anchor="middle" font-size="0px">
                              <tspan font-size="324px">0</tspan>
                           </text>
                        </g>
                     </g>
                     <g id="fmp918w" class="tabGrp">
                        <g id="g9xhvas" class="tabDurSym">
                           <ellipse cx="17343" cy="3256" rx="23" ry="23" fill-opacity="1" />
                        </g>
                     </g>
                     <g id="i15hrxik" class="tabGrp">
                        <g id="j1idp2sl" class="tabDurSym">
                           <g id="qkob7ql" class="stem">
                              <path d="M17833 3301 L17833 2673" stroke-width="31" />
                              <g id="r1156712" class="flag">
                                 <use xlink:href="#E242-h1gy75kj" transform="translate(17818, 2673) scale(0.72, 0.72)" />
                              </g>
                           </g>
                        </g>
                        <g id="hwmdcqh" class="note">
                           <text x="17833" y="3568" text-anchor="middle" font-size="0px">
                              <tspan font-size="324px">4</tspan>
                           </text>
                        </g>
                     </g>
                     <g id="k2klhqi" class="tabGrp">
                        <g id="l1m2onzf" class="tabDurSym">
                           <ellipse cx="18223" cy="3256" rx="23" ry="23" fill-opacity="1" />
                        </g>
                     </g>
                  </g>
               </g>
               <g id="b1u9u4jy" class="harm">
                  <text x="14968" y="269" font-size="0px">
                     <tspan id="cf6a897" class="text">
                        <tspan font-size="405px" x="14968" y="269">E</tspan>
                     </tspan>
                  </text>
               </g>
               <g id="yzeqzb4" class="barLine">
                  <path d="M18713 854 L18713 1574" stroke-width="27" />
                  <path d="M18713 3458 L18713 5028" stroke-width="27" />
                  <path d="M18713 1574 L18713 3458" stroke-width="27" />
               </g>
            </g>
            <g id="t1d0f0zb" class="systemMilestoneEnd u9yokbl" />
         </g>
         <g id="ut0fma8" class="pageMilestoneEnd s5050x9" />
         <g id="vi91uxw" class="pageMilestoneEnd r1skxwqr" />
      </g>
   </svg>
</svg>
