<svg width="1006px" height="140px" version="1.1" xmlns="http://www.w3.org/2000/svg" xmlns:xlink="http://www.w3.org/1999/xlink" overflow="visible" id="u134kn90">
   <desc>Engraved by Verovio 5.7.0-7135340</desc>
   <defs>
      <g id="E050-u134kn90">
         <path transform="scale(1,-1)" d="M441 -245c-23 -4 -48 -6 -76 -6c-59 0 -102 7 -130 20c-88 42 -150 93 -187 154c-26 44 -43 103 -48 176c0 6 -1 13 -1 19c0 54 15 111 45 170c29 57 65 106 110 148s96 85 153 127c-3 16 -8 46 -13 92c-4 43 -5 73 -5 89c0 117 16 172 69 257c34 54 64 82 89 82 c21 0 43 -30 69 -92s39 -115 41 -159v-15c0 -109 -21 -162 -67 -241c-13 -20 -63 -90 -98 -118c-13 -9 -25 -19 -37 -29l31 -181c8 1 18 2 28 2c58 0 102 -12 133 -35c59 -43 92 -104 98 -184c1 -7 1 -15 1 -22c0 -123 -87 -209 -181 -248c8 -57 17 -110 25 -162 c5 -31 6 -58 6 -80c0 -30 -5 -53 -14 -70c-35 -64 -88 -99 -158 -103c-5 0 -11 -1 -16 -1c-37 0 -72 10 -108 27c-50 24 -77 59 -80 105v11c0 29 7 55 20 76c18 28 45 42 79 44h6c49 0 93 -42 97 -87v-9c0 -51 -34 -86 -105 -106c17 -24 51 -36 102 -36c62 0 116 43 140 85 c9 16 13 41 13 74c0 20 -1 42 -5 67c-8 53 -18 106 -26 159zM461 939c-95 0 -135 -175 -135 -286c0 -24 2 -48 5 -71c50 39 92 82 127 128c40 53 60 100 60 140v8c-4 53 -22 81 -55 81h-2zM406 119l54 -326c73 25 110 78 110 161c0 7 0 15 -1 23c-7 95 -57 142 -151 142h-12 zM382 117c-72 -2 -128 -47 -128 -120v-7c2 -46 43 -99 75 -115c-3 -2 -7 -5 -10 -10c-70 33 -116 88 -123 172v11c0 68 44 126 88 159c23 17 49 29 78 36l-29 170c-21 -13 -52 -37 -92 -73c-50 -44 -86 -84 -109 -119c-45 -69 -67 -130 -67 -182v-13c5 -68 35 -127 93 -176 s125 -73 203 -73c25 0 50 3 75 9c-19 111 -36 221 -54 331z" />
      </g>
      <g id="E084-u134kn90">
         <path transform="scale(1,-1)" d="M20 -78c84 97 114 180 134 329h170c-13 -32 -82 -132 -99 -151l-84 -97c-33 -36 -59 -63 -80 -81h162v102l127 123v-225h57v-39h-57v-34c0 -43 19 -65 57 -65v-34h-244v36c48 0 60 26 60 70v27h-203v39z" />
      </g>
      <g id="E0A4-u134kn90">
         <path transform="scale(1,-1)" d="M0 -39c0 68 73 172 200 172c66 0 114 -37 114 -95c0 -84 -106 -171 -218 -171c-64 0 -96 30 -96 94z" />
      </g>
      <g id="E240-u134kn90">
         <path transform="scale(1,-1)" d="M179 -646c15 29 29 55 46 102c18 49 30 108 30 138c0 105 -80 173 -168 200c-18 5 -47 9 -87 16v190h22c8 0 33 -61 71 -95c4 -3 -2 3 61 -56c62 -58 122 -137 122 -241c0 -38 -13 -106 -35 -163c-20 -51 -43 -99 -66 -132c-6 -5 -10 -7 -13 -7s-5 2 -5 5l4 10 c1 3 14 25 18 33z" />
      </g>
      <g id="E241-u134kn90">
         <path transform="scale(1,-1)" d="M179 646c-4 8 -17 30 -18 33l-4 10c0 3 2 5 5 5s7 -2 13 -7c23 -33 46 -81 66 -132c22 -57 35 -125 35 -163c0 -104 -60 -183 -122 -241c-63 -59 -57 -53 -61 -56c-38 -34 -63 -95 -71 -95h-22v190c40 7 69 11 87 16c88 27 168 95 168 200c0 30 -12 89 -30 138 c-17 47 -31 73 -46 102z" />
      </g>
   </defs>
   <style type="text/css">#u134kn90 g.page-margin {font-family:Times,serif;}#u134kn90 g.ending, #u134kn90 g.fing, #u134kn90 g.reh, #u134kn90 g.tempo {font-weight:bold;}#u134kn90 g.dir, #u134kn90 g.dynam, #u134kn90 g.mNum {font-style:italic;}#u134kn90 g.label {font-weight:normal;}#u134kn90 ellipse, #u134kn90 path, #u134kn90 polygon, #u134kn90 polyline, #u134kn90 rect {stroke:currentColor}g.harm tspan { font-size: 280px !important; } g.tempo tspan { font-size: 260px !important; } g.label tspan { font-size: 250px !important; }</style>
   <svg class="definition-scale" color="black" viewBox="0 0 22350 3110">
      <g class="page-margin" transform="translate(500, 500)">
         <g id="e1cyq5lm" class="mdiv pageMilestone" />
         <g id="f176rmm4" class="score pageMilestone" />
         <g id="l1xv027l" class="system">
            <g id="l1visrxt" class="label">
               <text x="1105" y="1309" text-anchor="end" font-size="0px">
                  <tspan id="m1euq9s" class="text">
                     <tspan font-size="405px">Piano</tspan>
                  </tspan>
               </text>
            </g>
            <g id="hu8uxrd" class="section systemMilestone" />
            <g id="wfu4nug" class="measure">
               <g id="fzsfjip" class="staff">
                  <path d="M1285 859 L6181 859" stroke-width="13" />
                  <path d="M1285 1039 L6181 1039" stroke-width="13" />
                  <path d="M1285 1219 L6181 1219" stroke-width="13" />
                  <path d="M1285 1399 L6181 1399" stroke-width="13" />
                  <path d="M1285 1579 L6181 1579" stroke-width="13" />
                  <g id="lwv9thl" class="clef">
                     <use xlink:href="#E050-u134kn90" transform="translate(1375, 1399) scale(0.72, 0.72)" />
                  </g>
                  <g id="m10tjx5z" class="keySig" />
                  <g id="n8cgmex" class="meterSig">
                     <use xlink:href="#E084-u134kn90" transform="translate(2006, 1039) scale(0.72, 0.72)" />
                     <use xlink:href="#E084-u134kn90" transform="translate(2006, 1399) scale(0.72, 0.72)" />
                  </g>
                  <g class="ledgerLines below cue">
                     <path d="M2532 1759 L2772 1759" stroke-width="16" />
                  </g>
                  <g id="l12bsjc" class="layer">
                     <g id="m11ihzlu" class="note">
                        <g class="notehead">
                           <use xlink:href="#E0A4-u134kn90" transform="translate(2568, 1849) scale(0.54, 0.54)" />
                        </g>
                        <g id="g1myunbn" class="stem">
                           <path d="M2728 1828 L2728 1219" stroke-width="18" />
                           <g id="h1xi3ten" class="flag">
                              <use xlink:href="#E240-u134kn90" transform="translate(2719, 1219) scale(0.54, 0.54)" />
                           </g>
                        </g>
                     </g>
                     <g id="n4ls2pj" class="note">
                        <g class="notehead">
                           <use xlink:href="#E0A4-u134kn90" transform="translate(3018, 1489) scale(0.54, 0.54)" />
                        </g>
                        <g id="i13i31fc" class="stem">
                           <path d="M3178 1468 L3178 1017" stroke-width="18" />
                           <g id="jav121n" class="flag">
                              <use xlink:href="#E240-u134kn90" transform="translate(3169, 1017) scale(0.54, 0.54)" />
                           </g>
                        </g>
                        <g id="o86gf6a" class="accid" />
                     </g>
                     <g id="pdalpx6" class="note">
                        <g class="notehead">
                           <use xlink:href="#E0A4-u134kn90" transform="translate(3468, 1309) scale(0.54, 0.54)" />
                        </g>
                        <g id="k69lm6s" class="stem">
                           <path d="M3628 1288 L3628 837" stroke-width="18" />
                           <g id="lhu3bx3" class="flag">
                              <use xlink:href="#E240-u134kn90" transform="translate(3619, 837) scale(0.54, 0.54)" />
                           </g>
                        </g>
                     </g>
                     <g id="qex1pbo" class="note">
                        <g class="notehead">
                           <use xlink:href="#E0A4-u134kn90" transform="translate(3918, 1039) scale(0.54, 0.54)" />
                        </g>
                        <g id="m1y63mk6" class="stem">
                           <path d="M3927 1060 L3927 1511" stroke-width="18" />
                           <g id="n1kbx411" class="flag">
                              <use xlink:href="#E241-u134kn90" transform="translate(3918, 1511) scale(0.54, 0.54)" />
                           </g>
                        </g>
                     </g>
                     <g id="r1oqjqb" class="note">
                        <g class="notehead">
                           <use xlink:href="#E0A4-u134kn90" transform="translate(4368, 859) scale(0.54, 0.54)" />
                        </g>
                        <g id="ookx8l1" class="stem">
                           <path d="M4377 880 L4377 1331" stroke-width="18" />
                           <g id="p1anzwpo" class="flag">
                              <use xlink:href="#E241-u134kn90" transform="translate(4368, 1331) scale(0.54, 0.54)" />
                           </g>
                        </g>
                        <g id="say4gs7" class="accid" />
                     </g>
                     <g id="t17lcwnl" class="note">
                        <g class="notehead">
                           <use xlink:href="#E0A4-u134kn90" transform="translate(4818, 1039) scale(0.54, 0.54)" />
                        </g>
                        <g id="qyozyd5" class="stem">
                           <path d="M4827 1060 L4827 1511" stroke-width="18" />
                           <g id="rtf1i3f" class="flag">
                              <use xlink:href="#E241-u134kn90" transform="translate(4818, 1511) scale(0.54, 0.54)" />
                           </g>
                        </g>
                     </g>
                     <g id="uzcx3cl" class="note">
                        <g class="notehead">
                           <use xlink:href="#E0A4-u134kn90" transform="translate(5268, 1309) scale(0.54, 0.54)" />
                        </g>
                        <g id="s1r7l0re" class="stem">
                           <path d="M5428 1288 L5428 837" stroke-width="18" />
                           <g id="t8y0sin" class="flag">
                              <use xlink:href="#E240-u134kn90" transform="translate(5419, 837) scale(0.54, 0.54)" />
                           </g>
                        </g>
                     </g>
                     <g id="v1owff73" class="note">
                        <g class="notehead">
                           <use xlink:href="#E0A4-u134kn90" transform="translate(5718, 1489) scale(0.54, 0.54)" />
                        </g>
                        <g id="u17s2bl8" class="stem">
                           <path d="M5878 1468 L5878 1017" stroke-width="18" />
                           <g id="vlhb2sc" class="flag">
                              <use xlink:href="#E240-u134kn90" transform="translate(5869, 1017) scale(0.54, 0.54)" />
                           </g>
                        </g>
                        <g id="wdz5gbe" class="accid" />
                     </g>
                  </g>
               </g>
               <g id="gmnaxj8" class="tempo" xml:lang="it">
                  <text x="2006" y="731" font-size="0px">
                     <tspan id="ho4gcjg" class="rend">
                        <tspan id="i1f7vogt" class="text">
                           <tspan font-size="405px">♩ = 84</tspan>
                        </tspan>
                     </tspan>
                  </text>
               </g>
               <g id="j1casub7" class="harm">
                  <text x="2568" y="273" font-size="0px">
                     <tspan id="kbr2cb" class="text">
                        <tspan font-size="405px" x="2568" y="273">Bm7</tspan>
                     </tspan>
                  </text>
               </g>
               <g id="e13j2wwc" class="barLine">
                  <path d="M6168 859 L6168 1579" stroke-width="27" />
               </g>
            </g>
            <g id="xao5lbm" class="measure">
               <g id="g1inho1p" class="staff">
                  <path d="M6181 859 L9974 859" stroke-width="13" />
                  <path d="M6181 1039 L9974 1039" stroke-width="13" />
                  <path d="M6181 1219 L9974 1219" stroke-width="13" />
                  <path d="M6181 1399 L9974 1399" stroke-width="13" />
                  <path d="M6181 1579 L9974 1579" stroke-width="13" />
                  <g class="ledgerLines below cue">
                     <path d="M6325 1759 L6565 1759" stroke-width="16" />
                     <path d="M6325 1939 L6565 1939" stroke-width="16" />
                  </g>
                  <g id="jho7kem" class="layer">
                     <g id="k8b2dtk" class="note">
                        <g class="notehead">
                           <use xlink:href="#E0A4-u134kn90" transform="translate(6361, 1939) scale(0.54, 0.54)" />
                        </g>
                        <g id="w1g8m5z9" class="stem">
                           <path d="M6521 1918 L6521 1219" stroke-width="18" />
                           <g id="xkzxq5" class="flag">
                              <use xlink:href="#E240-u134kn90" transform="translate(6512, 1219) scale(0.54, 0.54)" />
                           </g>
                        </g>
                     </g>
                     <g id="l1tvepk8" class="note">
                        <g class="notehead">
                           <use xlink:href="#E0A4-u134kn90" transform="translate(6811, 1579) scale(0.54, 0.54)" />
                        </g>
                        <g id="y1af5flx" class="stem">
                           <path d="M6971 1558 L6971 1107" stroke-width="18" />
                           <g id="zfgfjck" class="flag">
                              <use xlink:href="#E240-u134kn90" transform="translate(6962, 1107) scale(0.54, 0.54)" />
                           </g>
                        </g>
                     </g>
                     <g id="m1468kb2" class="note">
                        <g class="notehead">
                           <use xlink:href="#E0A4-u134kn90" transform="translate(7261, 1399) scale(0.54, 0.54)" />
                        </g>
                        <g id="a1opz1zb" class="stem">
                           <path d="M7421 1378 L7421 927" stroke-width="18" />
                           <g id="bcg2h6u" class="flag">
                              <use xlink:href="#E240-u134kn90" transform="translate(7412, 927) scale(0.54, 0.54)" />
                           </g>
                        </g>
                     </g>
                     <g id="n1w4ftcc" class="note">
                        <g class="notehead">
                           <use xlink:href="#E0A4-u134kn90" transform="translate(7711, 1129) scale(0.54, 0.54)" />
                        </g>
                        <g id="c1grp8kq" class="stem">
                           <path d="M7720 1150 L7720 1601" stroke-width="18" />
                           <g id="d1we6zpp" class="flag">
                              <use xlink:href="#E241-u134kn90" transform="translate(7711, 1601) scale(0.54, 0.54)" />
                           </g>
                        </g>
                     </g>
                     <g id="ozjmvm5" class="note">
                        <g class="notehead">
                           <use xlink:href="#E0A4-u134kn90" transform="translate(8161, 949) scale(0.54, 0.54)" />
                        </g>
                        <g id="e1a8ftuh" class="stem">
                           <path d="M8170 970 L8170 1421" stroke-width="18" />
                           <g id="fx0ow7u" class="flag">
                              <use xlink:href="#E241-u134kn90" transform="translate(8161, 1421) scale(0.54, 0.54)" />
                           </g>
                        </g>
                     </g>
                     <g id="picz03b" class="note">
                        <g class="notehead">
                           <use xlink:href="#E0A4-u134kn90" transform="translate(8611, 1129) scale(0.54, 0.54)" />
                        </g>
                        <g id="gwgrktb" class="stem">
                           <path d="M8620 1150 L8620 1601" stroke-width="18" />
                           <g id="h9ub2zb" class="flag">
                              <use xlink:href="#E241-u134kn90" transform="translate(8611, 1601) scale(0.54, 0.54)" />
                           </g>
                        </g>
                     </g>
                     <g id="q1cpqpfs" class="note">
                        <g class="notehead">
                           <use xlink:href="#E0A4-u134kn90" transform="translate(9061, 1399) scale(0.54, 0.54)" />
                        </g>
                        <g id="i1sdhjx6" class="stem">
                           <path d="M9221 1378 L9221 927" stroke-width="18" />
                           <g id="j1yldbmk" class="flag">
                              <use xlink:href="#E240-u134kn90" transform="translate(9212, 927) scale(0.54, 0.54)" />
                           </g>
                        </g>
                     </g>
                     <g id="r1vbbnpl" class="note">
                        <g class="notehead">
                           <use xlink:href="#E0A4-u134kn90" transform="translate(9511, 1579) scale(0.54, 0.54)" />
                        </g>
                        <g id="k1x6wq3" class="stem">
                           <path d="M9671 1558 L9671 1107" stroke-width="18" />
                           <g id="l1tb1qh3" class="flag">
                              <use xlink:href="#E240-u134kn90" transform="translate(9662, 1107) scale(0.54, 0.54)" />
                           </g>
                        </g>
                     </g>
                  </g>
               </g>
               <g id="hdfft43" class="harm">
                  <text x="6361" y="273" font-size="0px">
                     <tspan id="i1b201zu" class="text">
                        <tspan font-size="405px" x="6361" y="273">Am7</tspan>
                     </tspan>
                  </text>
               </g>
               <g id="f14jlhi5" class="barLine">
                  <path d="M9961 859 L9961 1579" stroke-width="27" />
               </g>
            </g>
            <g id="s5ffmvp" class="measure">
               <g id="b1ybpgjm" class="staff">
                  <path d="M9974 859 L13767 859" stroke-width="13" />
                  <path d="M9974 1039 L13767 1039" stroke-width="13" />
                  <path d="M9974 1219 L13767 1219" stroke-width="13" />
                  <path d="M9974 1399 L13767 1399" stroke-width="13" />
                  <path d="M9974 1579 L13767 1579" stroke-width="13" />
                  <g class="ledgerLines above cue">
                     <path d="M11918 679 L12158 679" stroke-width="16" />
                  </g>
                  <g class="ledgerLines below cue">
                     <path d="M10118 1759 L10358 1759" stroke-width="16" />
                  </g>
                  <g id="e1de23u6" class="layer">
                     <g id="f13gy2ij" class="note">
                        <g class="notehead">
                           <use xlink:href="#E0A4-u134kn90" transform="translate(10154, 1849) scale(0.54, 0.54)" />
                        </g>
                        <g id="mz8xw2w" class="stem">
                           <path d="M10314 1828 L10314 1219" stroke-width="18" />
                           <g id="nq3uyq2" class="flag">
                              <use xlink:href="#E240-u134kn90" transform="translate(10305, 1219) scale(0.54, 0.54)" />
                           </g>
                        </g>
                     </g>
                     <g id="g94nhfe" class="note">
                        <g class="notehead">
                           <use xlink:href="#E0A4-u134kn90" transform="translate(10604, 1489) scale(0.54, 0.54)" />
                        </g>
                        <g id="o1az33eu" class="stem">
                           <path d="M10764 1468 L10764 1017" stroke-width="18" />
                           <g id="p4gyk8v" class="flag">
                              <use xlink:href="#E240-u134kn90" transform="translate(10755, 1017) scale(0.54, 0.54)" />
                           </g>
                        </g>
                        <g id="h12wy8tw" class="accid" />
                     </g>
                     <g id="i1ioal4u" class="note">
                        <g class="notehead">
                           <use xlink:href="#E0A4-u134kn90" transform="translate(11054, 1309) scale(0.54, 0.54)" />
                        </g>
                        <g id="q8qchv1" class="stem">
                           <path d="M11214 1288 L11214 837" stroke-width="18" />
                           <g id="r1ta8nl5" class="flag">
                              <use xlink:href="#E240-u134kn90" transform="translate(11205, 837) scale(0.54, 0.54)" />
                           </g>
                        </g>
                     </g>
                     <g id="jqbi20a" class="note">
                        <g class="notehead">
                           <use xlink:href="#E0A4-u134kn90" transform="translate(11504, 1039) scale(0.54, 0.54)" />
                        </g>
                        <g id="s14rk2dg" class="stem">
                           <path d="M11513 1060 L11513 1511" stroke-width="18" />
                           <g id="t8ykt9m" class="flag">
                              <use xlink:href="#E241-u134kn90" transform="translate(11504, 1511) scale(0.54, 0.54)" />
                           </g>
                        </g>
                     </g>
                     <g id="k5az69" class="note">
                        <g class="notehead">
                           <use xlink:href="#E0A4-u134kn90" transform="translate(11954, 679) scale(0.54, 0.54)" />
                        </g>
                        <g id="u7now1j" class="stem">
                           <path d="M11963 700 L11963 1219" stroke-width="18" />
                           <g id="vqx1c6z" class="flag">
                              <use xlink:href="#E241-u134kn90" transform="translate(11954, 1219) scale(0.54, 0.54)" />
                           </g>
                        </g>
                     </g>
                     <g id="lkhaaz5" class="note">
                        <g class="notehead">
                           <use xlink:href="#E0A4-u134kn90" transform="translate(12404, 859) scale(0.54, 0.54)" />
                        </g>
                        <g id="ws1gvfs" class="stem">
                           <path d="M12413 880 L12413 1331" stroke-width="18" />
                           <g id="xejdyjo" class="flag">
                              <use xlink:href="#E241-u134kn90" transform="translate(12404, 1331) scale(0.54, 0.54)" />
                           </g>
                        </g>
                        <g id="m19vytvq" class="accid" />
                     </g>
                     <g id="nfkznjs" class="note">
                        <g class="notehead">
                           <use xlink:href="#E0A4-u134kn90" transform="translate(12854, 1039) scale(0.54, 0.54)" />
                        </g>
                        <g id="y5i6wyh" class="stem">
                           <path d="M12863 1060 L12863 1511" stroke-width="18" />
                           <g id="zgstnbe" class="flag">
                              <use xlink:href="#E241-u134kn90" transform="translate(12854, 1511) scale(0.54, 0.54)" />
                           </g>
                        </g>
                     </g>
                     <g id="of4iaia" class="note">
                        <g class="notehead">
                           <use xlink:href="#E0A4-u134kn90" transform="translate(13304, 1309) scale(0.54, 0.54)" />
                        </g>
                        <g id="au3vl4i" class="stem">
                           <path d="M13464 1288 L13464 837" stroke-width="18" />
                           <g id="b1ookn5o" class="flag">
                              <use xlink:href="#E240-u134kn90" transform="translate(13455, 837) scale(0.54, 0.54)" />
                           </g>
                        </g>
                     </g>
                  </g>
               </g>
               <g id="cw1s903" class="harm">
                  <text x="10154" y="273" font-size="0px">
                     <tspan id="d1xq4i3c" class="text">
                        <tspan font-size="405px" x="10154" y="273">Bm7</tspan>
                     </tspan>
                  </text>
               </g>
               <g id="au0v7e3" class="barLine">
                  <path d="M13754 859 L13754 1579" stroke-width="27" />
               </g>
            </g>
            <g id="pkb2rv" class="measure">
               <g id="y103hylo" class="staff">
                  <path d="M13767 859 L17560 859" stroke-width="13" />
                  <path d="M13767 1039 L17560 1039" stroke-width="13" />
                  <path d="M13767 1219 L17560 1219" stroke-width="13" />
                  <path d="M13767 1399 L17560 1399" stroke-width="13" />
                  <path d="M13767 1579 L17560 1579" stroke-width="13" />
                  <g class="ledgerLines below cue">
                     <path d="M13911 1759 L14151 1759" stroke-width="16" />
                     <path d="M13911 1939 L14151 1939" stroke-width="16" />
                  </g>
                  <g id="b1xxg3q2" class="layer">
                     <g id="c1exondl" class="note">
                        <g class="notehead">
                           <use xlink:href="#E0A4-u134kn90" transform="translate(13947, 1939) scale(0.54, 0.54)" />
                        </g>
                        <g id="ctqt9gs" class="stem">
                           <path d="M14107 1918 L14107 1219" stroke-width="18" />
                           <g id="d1aqninr" class="flag">
                              <use xlink:href="#E240-u134kn90" transform="translate(14098, 1219) scale(0.54, 0.54)" />
                           </g>
                        </g>
                     </g>
                     <g id="d1tcrhge" class="note">
                        <g class="notehead">
                           <use xlink:href="#E0A4-u134kn90" transform="translate(14397, 1579) scale(0.54, 0.54)" />
                        </g>
                        <g id="e1k9cigf" class="stem">
                           <path d="M14557 1558 L14557 1107" stroke-width="18" />
                           <g id="f273yxb" class="flag">
                              <use xlink:href="#E240-u134kn90" transform="translate(14548, 1107) scale(0.54, 0.54)" />
                           </g>
                        </g>
                     </g>
                     <g id="e80tmf5" class="note">
                        <g class="notehead">
                           <use xlink:href="#E0A4-u134kn90" transform="translate(14847, 1399) scale(0.54, 0.54)" />
                        </g>
                        <g id="g1vw8h8w" class="stem">
                           <path d="M15007 1378 L15007 927" stroke-width="18" />
                           <g id="h1l622tk" class="flag">
                              <use xlink:href="#E240-u134kn90" transform="translate(14998, 927) scale(0.54, 0.54)" />
                           </g>
                        </g>
                     </g>
                     <g id="f1qts4aj" class="note">
                        <g class="notehead">
                           <use xlink:href="#E0A4-u134kn90" transform="translate(15297, 1129) scale(0.54, 0.54)" />
                        </g>
                        <g id="irho9px" class="stem">
                           <path d="M15306 1150 L15306 1601" stroke-width="18" />
                           <g id="jqxipjw" class="flag">
                              <use xlink:href="#E241-u134kn90" transform="translate(15297, 1601) scale(0.54, 0.54)" />
                           </g>
                        </g>
                     </g>
                     <g id="g13l6qcg" class="note">
                        <g class="notehead">
                           <use xlink:href="#E0A4-u134kn90" transform="translate(15747, 769) scale(0.54, 0.54)" />
                        </g>
                        <g id="k1m3fpjp" class="stem">
                           <path d="M15756 790 L15756 1241" stroke-width="18" />
                           <g id="lr2ut4u" class="flag">
                              <use xlink:href="#E241-u134kn90" transform="translate(15747, 1241) scale(0.54, 0.54)" />
                           </g>
                        </g>
                     </g>
                     <g id="h16uyzwy" class="note">
                        <g class="notehead">
                           <use xlink:href="#E0A4-u134kn90" transform="translate(16197, 949) scale(0.54, 0.54)" />
                        </g>
                        <g id="m1xydlzy" class="stem">
                           <path d="M16206 970 L16206 1421" stroke-width="18" />
                           <g id="n1fj7txk" class="flag">
                              <use xlink:href="#E241-u134kn90" transform="translate(16197, 1421) scale(0.54, 0.54)" />
                           </g>
                        </g>
                     </g>
                     <g id="i1ijjccf" class="note">
                        <g class="notehead">
                           <use xlink:href="#E0A4-u134kn90" transform="translate(16647, 1129) scale(0.54, 0.54)" />
                        </g>
                        <g id="o1hkevzn" class="stem">
                           <path d="M16656 1150 L16656 1601" stroke-width="18" />
                           <g id="p1ndrzww" class="flag">
                              <use xlink:href="#E241-u134kn90" transform="translate(16647, 1601) scale(0.54, 0.54)" />
                           </g>
                        </g>
                     </g>
                     <g id="j1x3n81b" class="note">
                        <g class="notehead">
                           <use xlink:href="#E0A4-u134kn90" transform="translate(17097, 1399) scale(0.54, 0.54)" />
                        </g>
                        <g id="q1gweqdh" class="stem">
                           <path d="M17257 1378 L17257 927" stroke-width="18" />
                           <g id="r1f72fbt" class="flag">
                              <use xlink:href="#E240-u134kn90" transform="translate(17248, 927) scale(0.54, 0.54)" />
                           </g>
                        </g>
                     </g>
                  </g>
               </g>
               <g id="z1751jjh" class="harm">
                  <text x="13947" y="273" font-size="0px">
                     <tspan id="adv4os3" class="text">
                        <tspan font-size="405px" x="13947" y="273">Am7</tspan>
                     </tspan>
                  </text>
               </g>
               <g id="xfixyur" class="barLine">
                  <path d="M17547 859 L17547 1579" stroke-width="27" />
               </g>
            </g>
            <g id="k15sdb8g" class="measure">
               <g id="t1llov7c" class="staff">
                  <path d="M17560 859 L21353 859" stroke-width="13" />
                  <path d="M17560 1039 L21353 1039" stroke-width="13" />
                  <path d="M17560 1219 L21353 1219" stroke-width="13" />
                  <path d="M17560 1399 L21353 1399" stroke-width="13" />
                  <path d="M17560 1579 L21353 1579" stroke-width="13" />
                  <g class="ledgerLines above cue">
                     <path d="M19504 679 L19744 679" stroke-width="16" />
                  </g>
                  <g id="wtd2lvs" class="layer">
                     <g id="x104rzoh" class="note">
                        <g class="notehead">
                           <use xlink:href="#E0A4-u134kn90" transform="translate(17740, 1669) scale(0.54, 0.54)" />
                        </g>
                        <g id="sutfr0s" class="stem">
                           <path d="M17900 1648 L17900 1197" stroke-width="18" />
                           <g id="t1f5suhn" class="flag">
                              <use xlink:href="#E240-u134kn90" transform="translate(17891, 1197) scale(0.54, 0.54)" />
                           </g>
                        </g>
                     </g>
                     <g id="y1fh9mzr" class="note">
                        <g class="notehead">
                           <use xlink:href="#E0A4-u134kn90" transform="translate(18190, 1309) scale(0.54, 0.54)" />
                        </g>
                        <g id="u1xnesnl" class="stem">
                           <path d="M18350 1288 L18350 837" stroke-width="18" />
                           <g id="v1uhq54l" class="flag">
                              <use xlink:href="#E240-u134kn90" transform="translate(18341, 837) scale(0.54, 0.54)" />
                           </g>
                        </g>
                     </g>
                     <g id="zuakudk" class="note">
                        <g class="notehead">
                           <use xlink:href="#E0A4-u134kn90" transform="translate(18640, 1129) scale(0.54, 0.54)" />
                        </g>
                        <g id="w1hpkhct" class="stem">
                           <path d="M18649 1150 L18649 1601" stroke-width="18" />
                           <g id="x1m89c96" class="flag">
                              <use xlink:href="#E241-u134kn90" transform="translate(18640, 1601) scale(0.54, 0.54)" />
                           </g>
                        </g>
                     </g>
                     <g id="awhicp8" class="note">
                        <g class="notehead">
                           <use xlink:href="#E0A4-u134kn90" transform="translate(19090, 859) scale(0.54, 0.54)" />
                        </g>
                        <g id="y14n7qkc" class="stem">
                           <path d="M19099 880 L19099 1331" stroke-width="18" />
                           <g id="zxzj385" class="flag">
                              <use xlink:href="#E241-u134kn90" transform="translate(19090, 1331) scale(0.54, 0.54)" />
                           </g>
                        </g>
                        <g id="b1lxpdwb" class="accid" />
                     </g>
                     <g id="c1unhm7e" class="note">
                        <g class="notehead">
                           <use xlink:href="#E0A4-u134kn90" transform="translate(19540, 679) scale(0.54, 0.54)" />
                        </g>
                        <g id="a1dqtb93" class="stem">
                           <path d="M19549 700 L19549 1219" stroke-width="18" />
                           <g id="b1ym760u" class="flag">
                              <use xlink:href="#E241-u134kn90" transform="translate(19540, 1219) scale(0.54, 0.54)" />
                           </g>
                        </g>
                     </g>
                     <g id="d1jfc5ew" class="note">
                        <g class="notehead">
                           <use xlink:href="#E0A4-u134kn90" transform="translate(19990, 859) scale(0.54, 0.54)" />
                        </g>
                        <g id="cy1yq8s" class="stem">
                           <path d="M19999 880 L19999 1331" stroke-width="18" />
                           <g id="d1i6oipt" class="flag">
                              <use xlink:href="#E241-u134kn90" transform="translate(19990, 1331) scale(0.54, 0.54)" />
                           </g>
                        </g>
                        <g id="elkvsv2" class="accid" />
                     </g>
                     <g id="f1s7z42d" class="note">
                        <g class="notehead">
                           <use xlink:href="#E0A4-u134kn90" transform="translate(20440, 1039) scale(0.54, 0.54)" />
                        </g>
                        <g id="e1qnu39t" class="stem">
                           <path d="M20449 1060 L20449 1511" stroke-width="18" />
                           <g id="fxrmk92" class="flag">
                              <use xlink:href="#E241-u134kn90" transform="translate(20440, 1511) scale(0.54, 0.54)" />
                           </g>
                        </g>
                     </g>
                     <g id="g1qtd3k3" class="note">
                        <g class="notehead">
                           <use xlink:href="#E0A4-u134kn90" transform="translate(20890, 1129) scale(0.54, 0.54)" />
                        </g>
                        <g id="g1svdj6o" class="stem">
                           <path d="M20899 1150 L20899 1601" stroke-width="18" />
                           <g id="h23fu82" class="flag">
                              <use xlink:href="#E241-u134kn90" transform="translate(20890, 1601) scale(0.54, 0.54)" />
                           </g>
                        </g>
                     </g>
                  </g>
               </g>
               <g id="u1qnj3a3" class="harm">
                  <text x="17740" y="273" font-size="0px">
                     <tspan id="v1vy3zb8" class="text">
                        <tspan font-size="405px" x="17740" y="273">D7</tspan>
                     </tspan>
                  </text>
               </g>
               <g id="saql3ar" class="barLine">
                  <path d="M21340 859 L21340 1579" stroke-width="27" />
               </g>
            </g>
            <g id="oa0scva" class="systemMilestoneEnd hu8uxrd" />
         </g>
         <g id="p1qxc1ay" class="pageMilestoneEnd f176rmm4" />
         <g id="qzzpwyo" class="pageMilestoneEnd e1cyq5lm" />
      </g>
   </svg>
</svg>
