<svg width="1006px" height="140px" version="1.1" xmlns="http://www.w3.org/2000/svg" xmlns:xlink="http://www.w3.org/1999/xlink" overflow="visible" id="yagytb8">
   <desc>Engraved by Verovio 5.7.0-7135340</desc>
   <defs>
      <g id="E050-yagytb8">
         <path transform="scale(1,-1)" d="M441 -245c-23 -4 -48 -6 -76 -6c-59 0 -102 7 -130 20c-88 42 -150 93 -187 154c-26 44 -43 103 -48 176c0 6 -1 13 -1 19c0 54 15 111 45 170c29 57 65 106 110 148s96 85 153 127c-3 16 -8 46 -13 92c-4 43 -5 73 -5 89c0 117 16 172 69 257c34 54 64 82 89 82 c21 0 43 -30 69 -92s39 -115 41 -159v-15c0 -109 -21 -162 -67 -241c-13 -20 -63 -90 -98 -118c-13 -9 -25 -19 -37 -29l31 -181c8 1 18 2 28 2c58 0 102 -12 133 -35c59 -43 92 -104 98 -184c1 -7 1 -15 1 -22c0 -123 -87 -209 -181 -248c8 -57 17 -110 25 -162 c5 -31 6 -58 6 -80c0 -30 -5 -53 -14 -70c-35 -64 -88 -99 -158 -103c-5 0 -11 -1 -16 -1c-37 0 -72 10 -108 27c-50 24 -77 59 -80 105v11c0 29 7 55 20 76c18 28 45 42 79 44h6c49 0 93 -42 97 -87v-9c0 -51 -34 -86 -105 -106c17 -24 51 -36 102 -36c62 0 116 43 140 85 c9 16 13 41 13 74c0 20 -1 42 -5 67c-8 53 -18 106 -26 159zM461 939c-95 0 -135 -175 -135 -286c0 -24 2 -48 5 -71c50 39 92 82 127 128c40 53 60 100 60 140v8c-4 53 -22 81 -55 81h-2zM406 119l54 -326c73 25 110 78 110 161c0 7 0 15 -1 23c-7 95 -57 142 -151 142h-12 zM382 117c-72 -2 -128 -47 -128 -120v-7c2 -46 43 -99 75 -115c-3 -2 -7 -5 -10 -10c-70 33 -116 88 -123 172v11c0 68 44 126 88 159c23 17 49 29 78 36l-29 170c-21 -13 -52 -37 -92 -73c-50 -44 -86 -84 -109 -119c-45 -69 -67 -130 -67 -182v-13c5 -68 35 -127 93 -176 s125 -73 203 -73c25 0 50 3 75 9c-19 111 -36 221 -54 331z" />
      </g>
      <g id="E084-yagytb8">
         <path transform="scale(1,-1)" d="M20 -78c84 97 114 180 134 329h170c-13 -32 -82 -132 -99 -151l-84 -97c-33 -36 -59 -63 -80 -81h162v102l127 123v-225h57v-39h-57v-34c0 -43 19 -65 57 -65v-34h-244v36c48 0 60 26 60 70v27h-203v39z" />
      </g>
      <g id="E0A4-yagytb8">
         <path transform="scale(1,-1)" d="M0 -39c0 68 73 172 200 172c66 0 114 -37 114 -95c0 -84 -106 -171 -218 -171c-64 0 -96 30 -96 94z" />
      </g>
      <g id="E240-yagytb8">
         <path transform="scale(1,-1)" d="M179 -646c15 29 29 55 46 102c18 49 30 108 30 138c0 105 -80 173 -168 200c-18 5 -47 9 -87 16v190h22c8 0 33 -61 71 -95c4 -3 -2 3 61 -56c62 -58 122 -137 122 -241c0 -38 -13 -106 -35 -163c-20 -51 -43 -99 -66 -132c-6 -5 -10 -7 -13 -7s-5 2 -5 5l4 10 c1 3 14 25 18 33z" />
      </g>
      <g id="E241-yagytb8">
         <path transform="scale(1,-1)" d="M179 646c-4 8 -17 30 -18 33l-4 10c0 3 2 5 5 5s7 -2 13 -7c23 -33 46 -81 66 -132c22 -57 35 -125 35 -163c0 -104 -60 -183 -122 -241c-63 -59 -57 -53 -61 -56c-38 -34 -63 -95 -71 -95h-22v190c40 7 69 11 87 16c88 27 168 95 168 200c0 30 -12 89 -30 138 c-17 47 -31 73 -46 102z" />
      </g>
   </defs>
   <style type="text/css">#yagytb8 g.page-margin {font-family:Times,serif;}#yagytb8 g.ending, #yagytb8 g.fing, #yagytb8 g.reh, #yagytb8 g.tempo {font-weight:bold;}#yagytb8 g.dir, #yagytb8 g.dynam, #yagytb8 g.mNum {font-style:italic;}#yagytb8 g.label {font-weight:normal;}#yagytb8 ellipse, #yagytb8 path, #yagytb8 polygon, #yagytb8 polyline, #yagytb8 rect {stroke:currentColor}g.harm tspan { font-size: 280px !important; } g.tempo tspan { font-size: 260px !important; } g.label tspan { font-size: 250px !important; }</style>
   <svg class="definition-scale" color="black" viewBox="0 0 22350 3110">
      <g class="page-margin" transform="translate(500, 500)">
         <g id="izhip00" class="mdiv pageMilestone" />
         <g id="j1xe8ejz" class="score pageMilestone" />
         <g id="pwvskii" class="system">
            <g id="p1r6o66x" class="label">
               <text x="1105" y="1309" text-anchor="end" font-size="0px">
                  <tspan id="qluv8pw" class="text">
                     <tspan font-size="405px">Piano</tspan>
                  </tspan>
               </text>
            </g>
            <g id="lvp8yi2" class="section systemMilestone" />
            <g id="a102zc5r" class="measure">
               <g id="j4u840q" class="staff">
                  <path d="M1285 859 L6181 859" stroke-width="13" />
                  <path d="M1285 1039 L6181 1039" stroke-width="13" />
                  <path d="M1285 1219 L6181 1219" stroke-width="13" />
                  <path d="M1285 1399 L6181 1399" stroke-width="13" />
                  <path d="M1285 1579 L6181 1579" stroke-width="13" />
                  <g id="pj3c964" class="clef">
                     <use xlink:href="#E050-yagytb8" transform="translate(1375, 1399) scale(0.72, 0.72)" />
                  </g>
                  <g id="q1mr47vw" class="keySig" />
                  <g id="r17xx70c" class="meterSig">
                     <use xlink:href="#E084-yagytb8" transform="translate(2006, 1039) scale(0.72, 0.72)" />
                     <use xlink:href="#E084-yagytb8" transform="translate(2006, 1399) scale(0.72, 0.72)" />
                  </g>
                  <g class="ledgerLines below cue">
                     <path d="M2532 1759 L2772 1759" stroke-width="16" />
                  </g>
                  <g id="pp42urf" class="layer">
                     <g id="q1752y4d" class="note">
                        <g class="notehead">
                           <use xlink:href="#E0A4-yagytb8" transform="translate(2568, 1849) scale(0.54, 0.54)" />
                        </g>
                        <g id="k1yfamw1" class="stem">
                           <path d="M2728 1828 L2728 1219" stroke-width="18" />
                           <g id="lgqud2l" class="flag">
                              <use xlink:href="#E240-yagytb8" transform="translate(2719, 1219) scale(0.54, 0.54)" />
                           </g>
                        </g>
                     </g>
                     <g id="r1jeuqwr" class="note">
                        <g class="notehead">
                           <use xlink:href="#E0A4-yagytb8" transform="translate(3018, 1489) scale(0.54, 0.54)" />
                        </g>
                        <g id="mp32auo" class="stem">
                           <path d="M3178 1468 L3178 1017" stroke-width="18" />
                           <g id="n1famrrl" class="flag">
                              <use xlink:href="#E240-yagytb8" transform="translate(3169, 1017) scale(0.54, 0.54)" />
                           </g>
                        </g>
                        <g id="so8zrh9" class="accid" />
                     </g>
                     <g id="t192fm8m" class="note">
                        <g class="notehead">
                           <use xlink:href="#E0A4-yagytb8" transform="translate(3468, 1309) scale(0.54, 0.54)" />
                        </g>
                        <g id="o1ma7sw3" class="stem">
                           <path d="M3628 1288 L3628 837" stroke-width="18" />
                           <g id="p18uz4ch" class="flag">
                              <use xlink:href="#E240-yagytb8" transform="translate(3619, 837) scale(0.54, 0.54)" />
                           </g>
                        </g>
                     </g>
                     <g id="u1k2d9sn" class="note">
                        <g class="notehead">
                           <use xlink:href="#E0A4-yagytb8" transform="translate(3918, 1039) scale(0.54, 0.54)" />
                        </g>
                        <g id="qyduh5b" class="stem">
                           <path d="M3927 1060 L3927 1511" stroke-width="18" />
                           <g id="r15yobzd" class="flag">
                              <use xlink:href="#E241-yagytb8" transform="translate(3918, 1511) scale(0.54, 0.54)" />
                           </g>
                        </g>
                     </g>
                     <g id="v1479zv5" class="note">
                        <g class="notehead">
                           <use xlink:href="#E0A4-yagytb8" transform="translate(4368, 859) scale(0.54, 0.54)" />
                        </g>
                        <g id="s149ln71" class="stem">
                           <path d="M4377 880 L4377 1331" stroke-width="18" />
                           <g id="tpfb52g" class="flag">
                              <use xlink:href="#E241-yagytb8" transform="translate(4368, 1331) scale(0.54, 0.54)" />
                           </g>
                        </g>
                        <g id="w4q8hs8" class="accid" />
                     </g>
                     <g id="x1re4om0" class="note">
                        <g class="notehead">
                           <use xlink:href="#E0A4-yagytb8" transform="translate(4818, 1039) scale(0.54, 0.54)" />
                        </g>
                        <g id="u1wmavnm" class="stem">
                           <path d="M4827 1060 L4827 1511" stroke-width="18" />
                           <g id="vqnm50c" class="flag">
                              <use xlink:href="#E241-yagytb8" transform="translate(4818, 1511) scale(0.54, 0.54)" />
                           </g>
                        </g>
                     </g>
                     <g id="yk52kk9" class="note">
                        <g class="notehead">
                           <use xlink:href="#E0A4-yagytb8" transform="translate(5268, 1309) scale(0.54, 0.54)" />
                        </g>
                        <g id="w1dancpr" class="stem">
                           <path d="M5428 1288 L5428 837" stroke-width="18" />
                           <g id="x11e39xs" class="flag">
                              <use xlink:href="#E240-yagytb8" transform="translate(5419, 837) scale(0.54, 0.54)" />
                           </g>
                        </g>
                     </g>
                     <g id="z1dbjla4" class="note">
                        <g class="notehead">
                           <use xlink:href="#E0A4-yagytb8" transform="translate(5718, 1489) scale(0.54, 0.54)" />
                        </g>
                        <g id="y1acpau3" class="stem">
                           <path d="M5878 1468 L5878 1017" stroke-width="18" />
                           <g id="zrtntm3" class="flag">
                              <use xlink:href="#E240-yagytb8" transform="translate(5869, 1017) scale(0.54, 0.54)" />
                           </g>
                        </g>
                        <g id="a1lhgnh7" class="accid" />
                     </g>
                  </g>
               </g>
               <g id="k59patm" class="tempo" xml:lang="it">
                  <text x="2006" y="731" font-size="0px">
                     <tspan id="l1h0lghz" class="rend">
                        <tspan id="m1c9ds5l" class="text">
                           <tspan font-size="405px">♩ = 84</tspan>
                        </tspan>
                     </tspan>
                  </text>
               </g>
               <g id="n1bjk9br" class="harm">
                  <text x="2568" y="273" font-size="0px">
                     <tspan id="oj748jt" class="text">
                        <tspan font-size="405px" x="2568" y="273">Bm7</tspan>
                     </tspan>
                  </text>
               </g>
               <g id="i84adz2" class="barLine">
                  <path d="M6168 859 L6168 1579" stroke-width="27" />
               </g>
            </g>
            <g id="bpg4qmd" class="measure">
               <g id="kad5wmy" class="staff">
                  <path d="M6181 859 L9974 859" stroke-width="13" />
                  <path d="M6181 1039 L9974 1039" stroke-width="13" />
                  <path d="M6181 1219 L9974 1219" stroke-width="13" />
                  <path d="M6181 1399 L9974 1399" stroke-width="13" />
                  <path d="M6181 1579 L9974 1579" stroke-width="13" />
                  <g class="ledgerLines below cue">
                     <path d="M6325 1759 L6565 1759" stroke-width="16" />
                     <path d="M6325 1939 L6565 1939" stroke-width="16" />
                  </g>
                  <g id="niwlcx8" class="layer">
                     <g id="o1s1962w" class="note">
                        <g class="notehead">
                           <use xlink:href="#E0A4-yagytb8" transform="translate(6361, 1939) scale(0.54, 0.54)" />
                        </g>
                        <g id="a1vcmndb" class="stem">
                           <path d="M6521 1918 L6521 1219" stroke-width="18" />
                           <g id="bdew33a" class="flag">
                              <use xlink:href="#E240-yagytb8" transform="translate(6512, 1219) scale(0.54, 0.54)" />
                           </g>
                        </g>
                     </g>
                     <g id="p1pra1gb" class="note">
                        <g class="notehead">
                           <use xlink:href="#E0A4-yagytb8" transform="translate(6811, 1579) scale(0.54, 0.54)" />
                        </g>
                        <g id="c16eq9n2" class="stem">
                           <path d="M6971 1558 L6971 1107" stroke-width="18" />
                           <g id="d449gir" class="flag">
                              <use xlink:href="#E240-yagytb8" transform="translate(6962, 1107) scale(0.54, 0.54)" />
                           </g>
                        </g>
                     </g>
                     <g id="qb6aocl" class="note">
                        <g class="notehead">
                           <use xlink:href="#E0A4-yagytb8" transform="translate(7261, 1399) scale(0.54, 0.54)" />
                        </g>
                        <g id="efg1zqd" class="stem">
                           <path d="M7421 1378 L7421 927" stroke-width="18" />
                           <g id="frrjgxs" class="flag">
                              <use xlink:href="#E240-yagytb8" transform="translate(7412, 927) scale(0.54, 0.54)" />
                           </g>
                        </g>
                     </g>
                     <g id="r1pdur2h" class="note">
                        <g class="notehead">
                           <use xlink:href="#E0A4-yagytb8" transform="translate(7711, 1129) scale(0.54, 0.54)" />
                        </g>
                        <g id="gozbint" class="stem">
                           <path d="M7720 1150 L7720 1601" stroke-width="18" />
                           <g id="h1c2i7g" class="flag">
                              <use xlink:href="#E241-yagytb8" transform="translate(7711, 1601) scale(0.54, 0.54)" />
                           </g>
                        </g>
                     </g>
                     <g id="s7zwx1s" class="note">
                        <g class="notehead">
                           <use xlink:href="#E0A4-yagytb8" transform="translate(8161, 949) scale(0.54, 0.54)" />
                        </g>
                        <g id="i2egxt8" class="stem">
                           <path d="M8170 970 L8170 1421" stroke-width="18" />
                           <g id="jz7u13l" class="flag">
                              <use xlink:href="#E241-yagytb8" transform="translate(8161, 1421) scale(0.54, 0.54)" />
                           </g>
                        </g>
                     </g>
                     <g id="t1c1qwg1" class="note">
                        <g class="notehead">
                           <use xlink:href="#E0A4-yagytb8" transform="translate(8611, 1129) scale(0.54, 0.54)" />
                        </g>
                        <g id="k11s8hke" class="stem">
                           <path d="M8620 1150 L8620 1601" stroke-width="18" />
                           <g id="l1lwxebd" class="flag">
                              <use xlink:href="#E241-yagytb8" transform="translate(8611, 1601) scale(0.54, 0.54)" />
                           </g>
                        </g>
                     </g>
                     <g id="u1dyhtdc" class="note">
                        <g class="notehead">
                           <use xlink:href="#E0A4-yagytb8" transform="translate(9061, 1399) scale(0.54, 0.54)" />
                        </g>
                        <g id="md1xe30" class="stem">
                           <path d="M9221 1378 L9221 927" stroke-width="18" />
                           <g id="n18ci6j4" class="flag">
                              <use xlink:href="#E240-yagytb8" transform="translate(9212, 927) scale(0.54, 0.54)" />
                           </g>
                        </g>
                     </g>
                     <g id="vvioa05" class="note">
                        <g class="notehead">
                           <use xlink:href="#E0A4-yagytb8" transform="translate(9511, 1579) scale(0.54, 0.54)" />
                        </g>
                        <g id="omu4ol8" class="stem">
                           <path d="M9671 1558 L9671 1107" stroke-width="18" />
                           <g id="puqapor" class="flag">
                              <use xlink:href="#E240-yagytb8" transform="translate(9662, 1107) scale(0.54, 0.54)" />
                           </g>
                        </g>
                     </g>
                  </g>
               </g>
               <g id="l1ib9jqw" class="harm">
                  <text x="6361" y="273" font-size="0px">
                     <tspan id="m1rq3iib" class="text">
                        <tspan font-size="405px" x="6361" y="273">Am7</tspan>
                     </tspan>
                  </text>
               </g>
               <g id="jvrypuw" class="barLine">
                  <path d="M9961 859 L9961 1579" stroke-width="27" />
               </g>
            </g>
            <g id="w1ebeq8y" class="measure">
               <g id="fabvcfv" class="staff">
                  <path d="M9974 859 L13767 859" stroke-width="13" />
                  <path d="M9974 1039 L13767 1039" stroke-width="13" />
                  <path d="M9974 1219 L13767 1219" stroke-width="13" />
                  <path d="M9974 1399 L13767 1399" stroke-width="13" />
                  <path d="M9974 1579 L13767 1579" stroke-width="13" />
                  <g class="ledgerLines above cue">
                     <path d="M11918 679 L12158 679" stroke-width="16" />
                  </g>
                  <g class="ledgerLines below cue">
                     <path d="M10118 1759 L10358 1759" stroke-width="16" />
                  </g>
                  <g id="i64nosz" class="layer">
                     <g id="jogh6qx" class="note">
                        <g class="notehead">
                           <use xlink:href="#E0A4-yagytb8" transform="translate(10154, 1849) scale(0.54, 0.54)" />
                        </g>
                        <g id="q1p00m38" class="stem">
                           <path d="M10314 1828 L10314 1219" stroke-width="18" />
                           <g id="rrcych4" class="flag">
                              <use xlink:href="#E240-yagytb8" transform="translate(10305, 1219) scale(0.54, 0.54)" />
                           </g>
                        </g>
                     </g>
                     <g id="k15c9cgt" class="note">
                        <g class="notehead">
                           <use xlink:href="#E0A4-yagytb8" transform="translate(10604, 1489) scale(0.54, 0.54)" />
                        </g>
                        <g id="sehp0h2" class="stem">
                           <path d="M10764 1468 L10764 1017" stroke-width="18" />
                           <g id="t3pkk5p" class="flag">
                              <use xlink:href="#E240-yagytb8" transform="translate(10755, 1017) scale(0.54, 0.54)" />
                           </g>
                        </g>
                        <g id="lzwfi3" class="accid" />
                     </g>
                     <g id="m16h26mb" class="note">
                        <g class="notehead">
                           <use xlink:href="#E0A4-yagytb8" transform="translate(11054, 1309) scale(0.54, 0.54)" />
                        </g>
                        <g id="u1p3t8fe" class="stem">
                           <path d="M11214 1288 L11214 837" stroke-width="18" />
                           <g id="v1ga0q2h" class="flag">
                              <use xlink:href="#E240-yagytb8" transform="translate(11205, 837) scale(0.54, 0.54)" />
                           </g>
                        </g>
                     </g>
                     <g id="n1e4q5nt" class="note">
                        <g class="notehead">
                           <use xlink:href="#E0A4-yagytb8" transform="translate(11504, 1039) scale(0.54, 0.54)" />
                        </g>
                        <g id="wzbc9eg" class="stem">
                           <path d="M11513 1060 L11513 1511" stroke-width="18" />
                           <g id="xw56948" class="flag">
                              <use xlink:href="#E241-yagytb8" transform="translate(11504, 1511) scale(0.54, 0.54)" />
                           </g>
                        </g>
                     </g>
                     <g id="opjlho" class="note">
                        <g class="notehead">
                           <use xlink:href="#E0A4-yagytb8" transform="translate(11954, 679) scale(0.54, 0.54)" />
                        </g>
                        <g id="y1y253pd" class="stem">
                           <path d="M11963 700 L11963 1219" stroke-width="18" />
                           <g id="zpu6mp5" class="flag">
                              <use xlink:href="#E241-yagytb8" transform="translate(11954, 1219) scale(0.54, 0.54)" />
                           </g>
                        </g>
                     </g>
                     <g id="p18u0wsf" class="note">
                        <g class="notehead">
                           <use xlink:href="#E0A4-yagytb8" transform="translate(12404, 859) scale(0.54, 0.54)" />
                        </g>
                        <g id="alhcy0t" class="stem">
                           <path d="M12413 880 L12413 1331" stroke-width="18" />
                           <g id="b69g5tv" class="flag">
                              <use xlink:href="#E241-yagytb8" transform="translate(12404, 1331) scale(0.54, 0.54)" />
                           </g>
                        </g>
                        <g id="q13udihw" class="accid" />
                     </g>
                     <g id="r1d6xmoo" class="note">
                        <g class="notehead">
                           <use xlink:href="#E0A4-yagytb8" transform="translate(12854, 1039) scale(0.54, 0.54)" />
                        </g>
                        <g id="c1xryin7" class="stem">
                           <path d="M12863 1060 L12863 1511" stroke-width="18" />
                           <g id="dboaf6c" class="flag">
                              <use xlink:href="#E241-yagytb8" transform="translate(12854, 1511) scale(0.54, 0.54)" />
                           </g>
                        </g>
                     </g>
                     <g id="sbnxpmu" class="note">
                        <g class="notehead">
                           <use xlink:href="#E0A4-yagytb8" transform="translate(13304, 1309) scale(0.54, 0.54)" />
                        </g>
                        <g id="ebgjax8" class="stem">
                           <path d="M13464 1288 L13464 837" stroke-width="18" />
                           <g id="f1yo0ao8" class="flag">
                              <use xlink:href="#E240-yagytb8" transform="translate(13455, 837) scale(0.54, 0.54)" />
                           </g>
                        </g>
                     </g>
                  </g>
               </g>
               <g id="g1nh94vw" class="harm">
                  <text x="10154" y="273" font-size="0px">
                     <tspan id="h1pai65h" class="text">
                        <tspan font-size="405px" x="10154" y="273">Bm7</tspan>
                     </tspan>
                  </text>
               </g>
               <g id="e11cvphs" class="barLine">
                  <path d="M13754 859 L13754 1579" stroke-width="27" />
               </g>
            </g>
            <g id="tz09m21" class="measure">
               <g id="c1ueubhf" class="staff">
                  <path d="M13767 859 L17560 859" stroke-width="13" />
                  <path d="M13767 1039 L17560 1039" stroke-width="13" />
                  <path d="M13767 1219 L17560 1219" stroke-width="13" />
                  <path d="M13767 1399 L17560 1399" stroke-width="13" />
                  <path d="M13767 1579 L17560 1579" stroke-width="13" />
                  <g class="ledgerLines below cue">
                     <path d="M13911 1759 L14151 1759" stroke-width="16" />
                     <path d="M13911 1939 L14151 1939" stroke-width="16" />
                  </g>
                  <g id="f1e2k4b1" class="layer">
                     <g id="g1sgid0f" class="note">
                        <g class="notehead">
                           <use xlink:href="#E0A4-yagytb8" transform="translate(13947, 1939) scale(0.54, 0.54)" />
                        </g>
                        <g id="gzcbx3j" class="stem">
                           <path d="M14107 1918 L14107 1219" stroke-width="18" />
                           <g id="h17riyuu" class="flag">
                              <use xlink:href="#E240-yagytb8" transform="translate(14098, 1219) scale(0.54, 0.54)" />
                           </g>
                        </g>
                     </g>
                     <g id="h3zmg2l" class="note">
                        <g class="notehead">
                           <use xlink:href="#E0A4-yagytb8" transform="translate(14397, 1579) scale(0.54, 0.54)" />
                        </g>
                        <g id="i1n62i11" class="stem">
                           <path d="M14557 1558 L14557 1107" stroke-width="18" />
                           <g id="jrcmami" class="flag">
                              <use xlink:href="#E240-yagytb8" transform="translate(14548, 1107) scale(0.54, 0.54)" />
                           </g>
                        </g>
                     </g>
                     <g id="i17tas8" class="note">
                        <g class="notehead">
                           <use xlink:href="#E0A4-yagytb8" transform="translate(14847, 1399) scale(0.54, 0.54)" />
                        </g>
                        <g id="k1kb5asz" class="stem">
                           <path d="M15007 1378 L15007 927" stroke-width="18" />
                           <g id="lc4z1x1" class="flag">
                              <use xlink:href="#E240-yagytb8" transform="translate(14998, 927) scale(0.54, 0.54)" />
                           </g>
                        </g>
                     </g>
                     <g id="j13mbd8y" class="note">
                        <g class="notehead">
                           <use xlink:href="#E0A4-yagytb8" transform="translate(15297, 1129) scale(0.54, 0.54)" />
                        </g>
                        <g id="mqj2oeo" class="stem">
                           <path d="M15306 1150 L15306 1601" stroke-width="18" />
                           <g id="n1mo0pnz" class="flag">
                              <use xlink:href="#E241-yagytb8" transform="translate(15297, 1601) scale(0.54, 0.54)" />
                           </g>
                        </g>
                     </g>
                     <g id="k1dm1duk" class="note">
                        <g class="notehead">
                           <use xlink:href="#E0A4-yagytb8" transform="translate(15747, 769) scale(0.54, 0.54)" />
                        </g>
                        <g id="o15hvdj" class="stem">
                           <path d="M15756 790 L15756 1241" stroke-width="18" />
                           <g id="p15wheq4" class="flag">
                              <use xlink:href="#E241-yagytb8" transform="translate(15747, 1241) scale(0.54, 0.54)" />
                           </g>
                        </g>
                     </g>
                     <g id="lp1hoit" class="note">
                        <g class="notehead">
                           <use xlink:href="#E0A4-yagytb8" transform="translate(16197, 949) scale(0.54, 0.54)" />
                        </g>
                        <g id="q1c5gmf1" class="stem">
                           <path d="M16206 970 L16206 1421" stroke-width="18" />
                           <g id="rym5xx2" class="flag">
                              <use xlink:href="#E241-yagytb8" transform="translate(16197, 1421) scale(0.54, 0.54)" />
                           </g>
                        </g>
                     </g>
                     <g id="mqy1mn4" class="note">
                        <g class="notehead">
                           <use xlink:href="#E0A4-yagytb8" transform="translate(16647, 1129) scale(0.54, 0.54)" />
                        </g>
                        <g id="sinp9it" class="stem">
                           <path d="M16656 1150 L16656 1601" stroke-width="18" />
                           <g id="t1043t0" class="flag">
                              <use xlink:href="#E241-yagytb8" transform="translate(16647, 1601) scale(0.54, 0.54)" />
                           </g>
                        </g>
                     </g>
                     <g id="n481xv" class="note">
                        <g class="notehead">
                           <use xlink:href="#E0A4-yagytb8" transform="translate(17097, 1399) scale(0.54, 0.54)" />
                        </g>
                        <g id="u1wi9jix" class="stem">
                           <path d="M17257 1378 L17257 927" stroke-width="18" />
                           <g id="v1xbjly" class="flag">
                              <use xlink:href="#E240-yagytb8" transform="translate(17248, 927) scale(0.54, 0.54)" />
                           </g>
                        </g>
                     </g>
                  </g>
               </g>
               <g id="d1kzvrd9" class="harm">
                  <text x="13947" y="273" font-size="0px">
                     <tspan id="e139bwry" class="text">
                        <tspan font-size="405px" x="13947" y="273">Am7</tspan>
                     </tspan>
                  </text>
               </g>
               <g id="bl7lem" class="barLine">
                  <path d="M17547 859 L17547 1579" stroke-width="27" />
               </g>
            </g>
            <g id="o77y17q" class="measure">
               <g id="xjwipov" class="staff">
                  <path d="M17560 859 L21353 859" stroke-width="13" />
                  <path d="M17560 1039 L21353 1039" stroke-width="13" />
                  <path d="M17560 1219 L21353 1219" stroke-width="13" />
                  <path d="M17560 1399 L21353 1399" stroke-width="13" />
                  <path d="M17560 1579 L21353 1579" stroke-width="13" />
                  <g class="ledgerLines above cue">
                     <path d="M19504 679 L19744 679" stroke-width="16" />
                  </g>
                  <g id="a54r4e3" class="layer">
                     <g id="b1knf3dc" class="note">
                        <g class="notehead">
                           <use xlink:href="#E0A4-yagytb8" transform="translate(17740, 1669) scale(0.54, 0.54)" />
                        </g>
                        <g id="wrxco2" class="stem">
                           <path d="M17900 1648 L17900 1197" stroke-width="18" />
                           <g id="x1u12hsm" class="flag">
                              <use xlink:href="#E240-yagytb8" transform="translate(17891, 1197) scale(0.54, 0.54)" />
                           </g>
                        </g>
                     </g>
                     <g id="c1ygxez4" class="note">
                        <g class="notehead">
                           <use xlink:href="#E0A4-yagytb8" transform="translate(18190, 1309) scale(0.54, 0.54)" />
                        </g>
                        <g id="yk2po6y" class="stem">
                           <path d="M18350 1288 L18350 837" stroke-width="18" />
                           <g id="zc83tax" class="flag">
                              <use xlink:href="#E240-yagytb8" transform="translate(18341, 837) scale(0.54, 0.54)" />
                           </g>
                        </g>
                     </g>
                     <g id="d1bp09on" class="note">
                        <g class="notehead">
                           <use xlink:href="#E0A4-yagytb8" transform="translate(18640, 1129) scale(0.54, 0.54)" />
                        </g>
                        <g id="ag96r69" class="stem">
                           <path d="M18649 1150 L18649 1601" stroke-width="18" />
                           <g id="bfiloyo" class="flag">
                              <use xlink:href="#E241-yagytb8" transform="translate(18640, 1601) scale(0.54, 0.54)" />
                           </g>
                        </g>
                     </g>
                     <g id="e8teufn" class="note">
                        <g class="notehead">
                           <use xlink:href="#E0A4-yagytb8" transform="translate(19090, 859) scale(0.54, 0.54)" />
                        </g>
                        <g id="c18idsnk" class="stem">
                           <path d="M19099 880 L19099 1331" stroke-width="18" />
                           <g id="drjhtan" class="flag">
                              <use xlink:href="#E241-yagytb8" transform="translate(19090, 1331) scale(0.54, 0.54)" />
                           </g>
                        </g>
                        <g id="f1xsm7w0" class="accid" />
                     </g>
                     <g id="gsfe6w0" class="note">
                        <g class="notehead">
                           <use xlink:href="#E0A4-yagytb8" transform="translate(19540, 679) scale(0.54, 0.54)" />
                        </g>
                        <g id="e1fx6tln" class="stem">
                           <path d="M19549 700 L19549 1219" stroke-width="18" />
                           <g id="fhzrnrf" class="flag">
                              <use xlink:href="#E241-yagytb8" transform="translate(19540, 1219) scale(0.54, 0.54)" />
                           </g>
                        </g>
                     </g>
                     <g id="hs6krmg" class="note">
                        <g class="notehead">
                           <use xlink:href="#E0A4-yagytb8" transform="translate(19990, 859) scale(0.54, 0.54)" />
                        </g>
                        <g id="g1qcg0hj" class="stem">
                           <path d="M19999 880 L19999 1331" stroke-width="18" />
                           <g id="h19i5xtx" class="flag">
                              <use xlink:href="#E241-yagytb8" transform="translate(19990, 1331) scale(0.54, 0.54)" />
                           </g>
                        </g>
                        <g id="i5o0e3l" class="accid" />
                     </g>
                     <g id="jveworw" class="note">
                        <g class="notehead">
                           <use xlink:href="#E0A4-yagytb8" transform="translate(20440, 1039) scale(0.54, 0.54)" />
                        </g>
                        <g id="i1lpktj7" class="stem">
                           <path d="M20449 1060 L20449 1511" stroke-width="18" />
                           <g id="j1fzha7" class="flag">
                              <use xlink:href="#E241-yagytb8" transform="translate(20440, 1511) scale(0.54, 0.54)" />
                           </g>
                        </g>
                     </g>
                     <g id="ks8789n" class="note">
                        <g class="notehead">
                           <use xlink:href="#E0A4-yagytb8" transform="translate(20890, 1129) scale(0.54, 0.54)" />
                        </g>
                        <g id="k1a7sz65" class="stem">
                           <path d="M20899 1150 L20899 1601" stroke-width="18" />
                           <g id="l1rfvyq9" class="flag">
                              <use xlink:href="#E241-yagytb8" transform="translate(20890, 1601) scale(0.54, 0.54)" />
                           </g>
                        </g>
                     </g>
                  </g>
               </g>
               <g id="y1v8qljn" class="harm">
                  <text x="17740" y="273" font-size="0px">
                     <tspan id="z1e0z8hy" class="text">
                        <tspan font-size="405px" x="17740" y="273">D7</tspan>
                     </tspan>
                  </text>
               </g>
               <g id="w1koujbg" class="barLine">
                  <path d="M21340 859 L21340 1579" stroke-width="27" />
               </g>
            </g>
            <g id="sun436f" class="systemMilestoneEnd lvp8yi2" />
         </g>
         <g id="t1giyqin" class="pageMilestoneEnd j1xe8ejz" />
         <g id="uuce9uz" class="pageMilestoneEnd izhip00" />
      </g>
   </svg>
</svg>
