<svg width="552px" height="141px" version="1.1" xmlns="http://www.w3.org/2000/svg" xmlns:xlink="http://www.w3.org/1999/xlink" overflow="visible" id="tf92vu3">
   <desc>Engraved by Verovio 5.7.0-7135340</desc>
   <defs>
      <g id="E050-tf92vu3">
         <path transform="scale(1,-1)" d="M441 -245c-23 -4 -48 -6 -76 -6c-59 0 -102 7 -130 20c-88 42 -150 93 -187 154c-26 44 -43 103 -48 176c0 6 -1 13 -1 19c0 54 15 111 45 170c29 57 65 106 110 148s96 85 153 127c-3 16 -8 46 -13 92c-4 43 -5 73 -5 89c0 117 16 172 69 257c34 54 64 82 89 82 c21 0 43 -30 69 -92s39 -115 41 -159v-15c0 -109 -21 -162 -67 -241c-13 -20 -63 -90 -98 -118c-13 -9 -25 -19 -37 -29l31 -181c8 1 18 2 28 2c58 0 102 -12 133 -35c59 -43 92 -104 98 -184c1 -7 1 -15 1 -22c0 -123 -87 -209 -181 -248c8 -57 17 -110 25 -162 c5 -31 6 -58 6 -80c0 -30 -5 -53 -14 -70c-35 -64 -88 -99 -158 -103c-5 0 -11 -1 -16 -1c-37 0 -72 10 -108 27c-50 24 -77 59 -80 105v11c0 29 7 55 20 76c18 28 45 42 79 44h6c49 0 93 -42 97 -87v-9c0 -51 -34 -86 -105 -106c17 -24 51 -36 102 -36c62 0 116 43 140 85 c9 16 13 41 13 74c0 20 -1 42 -5 67c-8 53 -18 106 -26 159zM461 939c-95 0 -135 -175 -135 -286c0 -24 2 -48 5 -71c50 39 92 82 127 128c40 53 60 100 60 140v8c-4 53 -22 81 -55 81h-2zM406 119l54 -326c73 25 110 78 110 161c0 7 0 15 -1 23c-7 95 -57 142 -151 142h-12 zM382 117c-72 -2 -128 -47 -128 -120v-7c2 -46 43 -99 75 -115c-3 -2 -7 -5 -10 -10c-70 33 -116 88 -123 172v11c0 68 44 126 88 159c23 17 49 29 78 36l-29 170c-21 -13 -52 -37 -92 -73c-50 -44 -86 -84 -109 -119c-45 -69 -67 -130 -67 -182v-13c5 -68 35 -127 93 -176 s125 -73 203 -73c25 0 50 3 75 9c-19 111 -36 221 -54 331z" />
      </g>
      <g id="E084-tf92vu3">
         <path transform="scale(1,-1)" d="M20 -78c84 97 114 180 134 329h170c-13 -32 -82 -132 -99 -151l-84 -97c-33 -36 -59 -63 -80 -81h162v102l127 123v-225h57v-39h-57v-34c0 -43 19 -65 57 -65v-34h-244v36c48 0 60 26 60 70v27h-203v39z" />
      </g>
      <g id="E4E5-tf92vu3">
         <path transform="scale(1,-1)" d="M107 292c-13 24 -30 49 -52 71c-1 1 0 2 0 3l-2 2c3 3 4 4 6 4c12 0 26 -7 40 -20s44 -40 89 -81c26 -24 28 -29 46 -47c4 -4 8 -9 10 -14c6 -8 8 -16 8 -27c0 -19 -12 -40 -36 -61c-28 -23 -49 -38 -61 -73c-4 -11 -7 -27 -10 -50c13 -43 34 -83 59 -121 c31 -47 59 -79 101 -129c-8 0 -26 7 -54 20l-62 29l-21 6l-23 1c-25 0 -45 -10 -60 -30l-4 -14l-1 -12c0 -33 20 -56 39 -78c8 -9 17 -18 26 -26c17 -15 27 -24 28 -30l-3 -3c-11 5 -19 10 -25 15c-9 3 -37 21 -45 26c-24 14 -45 32 -63 51c-19 21 -37 44 -37 71 c0 63 27 95 80 95c41 0 86 -18 136 -52c-19 26 -37 48 -55 66c-23 23 -48 44 -73 65c-28 23 -47 40 -58 53s-17 26 -18 39c75 64 113 125 113 183c0 27 -7 48 -18 68z" />
      </g>
      <g id="E240-tf92vu3">
         <path transform="scale(1,-1)" d="M179 -646c15 29 29 55 46 102c18 49 30 108 30 138c0 105 -80 173 -168 200c-18 5 -47 9 -87 16v190h22c8 0 33 -61 71 -95c4 -3 -2 3 61 -56c62 -58 122 -137 122 -241c0 -38 -13 -106 -35 -163c-20 -51 -43 -99 -66 -132c-6 -5 -10 -7 -13 -7s-5 2 -5 5l4 10 c1 3 14 25 18 33z" />
      </g>
      <g id="E0A4-tf92vu3">
         <path transform="scale(1,-1)" d="M0 -39c0 68 73 172 200 172c66 0 114 -37 114 -95c0 -84 -106 -171 -218 -171c-64 0 -96 30 -96 94z" />
      </g>
      <g id="E4E3-tf92vu3">
         <path transform="scale(1,-1)" d="M0 -115v105c0 9 1 10 10 10h280c9 0 10 -1 10 -10v-105c0 -9 -1 -10 -10 -10h-280c-9 0 -10 1 -10 10z" />
      </g>
      <g id="E4E4-tf92vu3">
         <path transform="scale(1,-1)" d="M0 10v105c0 9 1 10 10 10h280c9 0 10 -1 10 -10v-105c0 -9 -1 -10 -10 -10h-280c-9 0 -10 1 -10 10z" />
      </g>
   </defs>
   <style type="text/css">#tf92vu3 g.page-margin {font-family:Times,serif;}#tf92vu3 g.ending, #tf92vu3 g.fing, #tf92vu3 g.reh, #tf92vu3 g.tempo {font-weight:bold;}#tf92vu3 g.dir, #tf92vu3 g.dynam, #tf92vu3 g.mNum {font-style:italic;}#tf92vu3 g.label {font-weight:normal;}#tf92vu3 ellipse, #tf92vu3 path, #tf92vu3 polygon, #tf92vu3 polyline, #tf92vu3 rect {stroke:currentColor}g.harm tspan { font-size: 280px !important; } g.tempo tspan { font-size: 260px !important; } g.label tspan { font-size: 250px !important; }</style>
   <svg class="definition-scale" color="black" viewBox="0 0 12250 3120">
      <g class="page-margin" transform="translate(500, 500)">
         <g id="dilhqed" class="mdiv pageMilestone" />
         <g id="esbvlfa" class="score pageMilestone" />
         <g id="x1pwrfz5" class="system">
            <g id="z1pmsiii" class="label">
               <text x="1105" y="1313" text-anchor="end" font-size="0px">
                  <tspan id="apawoil" class="text">
                     <tspan font-size="405px">Piano</tspan>
                  </tspan>
               </text>
            </g>
            <g id="g1ptegd4" class="section systemMilestone" />
            <g id="v1q3741" class="measure">
               <g id="e6kqyla" class="staff">
                  <path d="M1285 863 L5241 863" stroke-width="13" />
                  <path d="M1285 1043 L5241 1043" stroke-width="13" />
                  <path d="M1285 1223 L5241 1223" stroke-width="13" />
                  <path d="M1285 1403 L5241 1403" stroke-width="13" />
                  <path d="M1285 1583 L5241 1583" stroke-width="13" />
                  <g id="z61pxbm" class="clef">
                     <use xlink:href="#E050-tf92vu3" transform="translate(1375, 1403) scale(0.72, 0.72)" />
                  </g>
                  <g id="a1gmgrx4" class="keySig" />
                  <g id="bu0v3g5" class="meterSig">
                     <use xlink:href="#E084-tf92vu3" transform="translate(2006, 1043) scale(0.72, 0.72)" />
                     <use xlink:href="#E084-tf92vu3" transform="translate(2006, 1403) scale(0.72, 0.72)" />
                  </g>
                  <g id="k1ay7cnx" class="layer">
                     <g id="lyhpt6v" class="rest">
                        <use xlink:href="#E4E5-tf92vu3" transform="translate(2568, 1223) scale(0.54, 0.54)" />
                        <g id="p1165nhn" class="dots">
                           <ellipse cx="2822" cy="1133" rx="36" ry="36" fill-opacity="1" />
                        </g>
                     </g>
                     <g id="nt07opo" class="chord">
                        <g id="qf3wxhs" class="stem">
                           <path d="M3608 1562 L3608 773" stroke-width="18" />
                           <g id="rtgck5g" class="flag">
                              <use xlink:href="#E240-tf92vu3" transform="translate(3599, 773) scale(0.54, 0.54)" />
                           </g>
                        </g>
                        <g id="m141ttja" class="note">
                           <g class="notehead">
                              <use xlink:href="#E0A4-tf92vu3" transform="translate(3449, 1583) scale(0.54, 0.54)" />
                           </g>
                        </g>
                        <g id="o9cil6h" class="note">
                           <g class="notehead">
                              <use xlink:href="#E0A4-tf92vu3" transform="translate(3449, 1403) scale(0.54, 0.54)" />
                           </g>
                        </g>
                        <g id="p13j2num" class="note">
                           <g class="notehead">
                              <use xlink:href="#E0A4-tf92vu3" transform="translate(3449, 1223) scale(0.54, 0.54)" />
                           </g>
                        </g>
                     </g>
                     <g id="q686tcf" class="rest">
                        <use xlink:href="#E4E5-tf92vu3" transform="translate(3898, 1223) scale(0.54, 0.54)" />
                        <g id="svk1j30" class="dots">
                           <ellipse cx="4152" cy="1133" rx="36" ry="36" fill-opacity="1" />
                        </g>
                     </g>
                     <g id="t1hvny2w" class="chord">
                        <g id="tapuabo" class="stem">
                           <path d="M4938 1652 L4938 773" stroke-width="18" />
                           <g id="u1ppsbrn" class="flag">
                              <use xlink:href="#E240-tf92vu3" transform="translate(4929, 773) scale(0.54, 0.54)" />
                           </g>
                        </g>
                        <g id="r1gv1kvm" class="note">
                           <g class="notehead">
                              <use xlink:href="#E0A4-tf92vu3" transform="translate(4779, 1673) scale(0.54, 0.54)" />
                           </g>
                           <g id="s1mcrupg" class="accid" />
                        </g>
                        <g id="u1jehdfb" class="note">
                           <g class="notehead">
                              <use xlink:href="#E0A4-tf92vu3" transform="translate(4779, 1493) scale(0.54, 0.54)" />
                           </g>
                           <g id="v1sdkg6h" class="accid" />
                        </g>
                        <g id="w1f52yh6" class="note">
                           <g class="notehead">
                              <use xlink:href="#E0A4-tf92vu3" transform="translate(4779, 1223) scale(0.54, 0.54)" />
                           </g>
                        </g>
                     </g>
                  </g>
               </g>
               <g id="f1g44gvg" class="tempo" xml:lang="it">
                  <text x="2006" y="735" font-size="0px">
                     <tspan id="gw1ay3p" class="rend">
                        <tspan id="h17j34pc" class="text">
                           <tspan font-size="405px">♩ = 84</tspan>
                        </tspan>
                     </tspan>
                  </text>
               </g>
               <g id="ius3z0q" class="harm">
                  <text x="2568" y="277" font-size="0px">
                     <tspan id="jhm7vl5" class="text">
                        <tspan font-size="405px" x="2568" y="277">Cmaj7</tspan>
                     </tspan>
                  </text>
               </g>
               <g id="d1ijosvm" class="barLine">
                  <path d="M5228 863 L5228 1583" stroke-width="27" />
               </g>
            </g>
            <g id="x1g5k4sz" class="measure">
               <g id="g214g6u" class="staff">
                  <path d="M5241 863 L6934 863" stroke-width="13" />
                  <path d="M5241 1043 L6934 1043" stroke-width="13" />
                  <path d="M5241 1223 L6934 1223" stroke-width="13" />
                  <path d="M5241 1403 L6934 1403" stroke-width="13" />
                  <path d="M5241 1583 L6934 1583" stroke-width="13" />
                  <g id="jhyytt7" class="layer">
                     <g id="khu9pdx" class="mRest">
                        <use xlink:href="#E4E3-tf92vu3" transform="translate(5993, 1043) scale(0.54, 0.54)" />
                     </g>
                  </g>
               </g>
               <g id="h1c8lmh3" class="harm">
                  <text x="5331" y="277" font-size="0px">
                     <tspan id="iqobwiq" class="text">
                        <tspan font-size="405px" x="5331" y="277">B</tspan>
                     </tspan>
                  </text>
               </g>
               <g id="fj6pky5" class="barLine">
                  <path d="M6921 863 L6921 1583" stroke-width="27" />
               </g>
            </g>
            <g id="lpl78te" class="measure">
               <g id="u6q9yqs" class="staff">
                  <path d="M6934 863 L8627 863" stroke-width="13" />
                  <path d="M6934 1043 L8627 1043" stroke-width="13" />
                  <path d="M6934 1223 L8627 1223" stroke-width="13" />
                  <path d="M6934 1403 L8627 1403" stroke-width="13" />
                  <path d="M6934 1583 L8627 1583" stroke-width="13" />
                  <g id="x2l9gcs" class="layer">
                     <g id="y7yqi70" class="mRest">
                        <use xlink:href="#E4E3-tf92vu3" transform="translate(7686, 1043) scale(0.54, 0.54)" />
                     </g>
                  </g>
               </g>
               <g id="v18on9v2" class="harm">
                  <text x="7024" y="277" font-size="0px">
                     <tspan id="wggm2nq" class="text">
                        <tspan font-size="405px" x="7024" y="277">Em7</tspan>
                     </tspan>
                  </text>
               </g>
               <g id="tuj8yym" class="barLine">
                  <path d="M8614 863 L8614 1583" stroke-width="27" />
               </g>
            </g>
            <g id="z19jftpt" class="measure">
               <g id="i1eeb2lm" class="staff">
                  <path d="M8627 863 L11250 863" stroke-width="13" />
                  <path d="M8627 1043 L11250 1043" stroke-width="13" />
                  <path d="M8627 1223 L11250 1223" stroke-width="13" />
                  <path d="M8627 1403 L11250 1403" stroke-width="13" />
                  <path d="M8627 1583 L11250 1583" stroke-width="13" />
                  <g id="l1g5uie0" class="layer">
                     <g id="m8hgdrr" class="rest">
                        <use xlink:href="#E4E5-tf92vu3" transform="translate(8807, 1223) scale(0.54, 0.54)" />
                     </g>
                     <g id="o1ssurx2" class="chord">
                        <g id="vwavah9" class="stem">
                           <path d="M9657 1652 L9657 841" stroke-width="18" />
                        </g>
                        <g id="nuxsb9d" class="note">
                           <g class="notehead">
                              <use xlink:href="#E0A4-tf92vu3" transform="translate(9498, 1673) scale(0.54, 0.54)" />
                           </g>
                        </g>
                        <g id="pcvkp8q" class="note">
                           <g class="notehead">
                              <use xlink:href="#E0A4-tf92vu3" transform="translate(9498, 1493) scale(0.54, 0.54)" />
                           </g>
                           <g id="q11yh0ko" class="accid" />
                        </g>
                        <g id="rsv92hp" class="note">
                           <g class="notehead">
                              <use xlink:href="#E0A4-tf92vu3" transform="translate(9498, 1313) scale(0.54, 0.54)" />
                           </g>
                        </g>
                     </g>
                     <g id="s1sy48iz" class="rest">
                        <use xlink:href="#E4E4-tf92vu3" transform="translate(10187, 1223) scale(0.54, 0.54)" />
                        <g class="ledgerLines" />
                     </g>
                  </g>
               </g>
               <g id="jyb26dh" class="harm">
                  <text x="8807" y="277" font-size="0px">
                     <tspan id="k1gd2fmn" class="text">
                        <tspan font-size="405px" x="8807" y="277">Bm7</tspan>
                     </tspan>
                  </text>
               </g>
               <g id="h1jelecg" class="barLine">
                  <path d="M11237 863 L11237 1583" stroke-width="27" />
               </g>
            </g>
            <g id="a1n09ju3" class="systemMilestoneEnd g1ptegd4" />
         </g>
         <g id="by0i5av" class="pageMilestoneEnd esbvlfa" />
         <g id="cw2phzs" class="pageMilestoneEnd dilhqed" />
      </g>
   </svg>
</svg>
